<svg id="Ebene_1" data-name="Ebene 1" xmlns="http://www.w3.org/2000/svg" viewBox="0 0 564.82 564.79"><defs><style>.cls-1{fill:#fff;}.cls-1,.cls-2,.cls-4{fill-rule:evenodd;}.cls-2{fill:#da251d;}.cls-3,.cls-5{fill:none;stroke-linecap:square;stroke-miterlimit:10;stroke-width:0.21px;}.cls-3{stroke:#242729;}.cls-5{stroke:#000;}</style></defs><polygon class="cls-1" points="0.01 282.43 282.25 0.18 564.53 282.43 282.25 564.67 0.01 282.43 0.01 282.43"/><path class="cls-2" d="M20.69,421.32l276.56-276.6,276.6,276.6L297.25,697.88,20.69,421.32Zm44.84,0L297.25,189.59,529,421.32,297.25,653,65.53,421.32Z" transform="translate(-15 -138.89)"/><polyline class="cls-3" points="0.15 282.22 282.25 0.15 564.67 282.22 282.25 564.64 0.15 282.22"/><polygon class="cls-4" points="277.1 462.96 271.17 456.93 265.66 451.39 260.54 446.23 255.78 441.43 251.29 436.88 247.02 432.57 242.89 428.4 238.87 424.31 234.88 420.21 230.85 416.12 226.76 411.92 222.52 407.54 218.04 402.92 213.31 398.01 208.26 392.78 202.82 387.1 202.4 386.64 202.19 386.43 202.12 386.25 202.08 385.72 202.12 385.16 202.15 384.63 202.19 384.13 202.29 383.64 202.4 383.18 202.54 382.76 202.72 382.33 202.89 381.95 203.1 381.56 203.32 381.24 203.56 380.89 203.81 380.61 204.09 380.32 204.41 380.04 204.73 379.83 205.04 379.62 205.4 379.44 205.75 379.26 206.14 379.16 206.53 379.05 206.95 378.98 207.34 378.95 207.8 378.91 208.22 378.91 208.68 378.95 209.14 379.02 209.63 379.12 210.09 379.23 210.59 379.4 211.12 379.58 211.61 379.79 211.97 379.26 212.32 378.77 212.67 378.35 213.06 377.89 213.41 377.46 213.76 377.07 214.15 376.72 214.51 376.37 214.9 376.05 215.28 375.8 215.71 375.52 216.09 375.31 216.52 375.06 216.91 374.89 217.37 374.75 217.79 374.6 218.21 374.46 218.67 374.43 219.1 374.36 219.56 374.32 220.01 374.32 220.51 374.36 221 374.43 221.46 374.5 221.99 374.6 222.49 374.75 223.01 374.92 223.54 375.1 224.07 375.31 224.64 375.56 225.2 375.87 225.77 376.16 226.01 376.16 226.33 376.19 226.33 375.56 226.4 374.96 226.44 374.43 226.51 373.9 226.58 373.47 226.72 373.05 226.83 372.66 227.04 372.34 227.22 371.99 227.46 371.64 227.75 371.32 228.1 371 228.49 370.69 228.91 370.33 229.37 369.98 229.93 369.63 230.43 369.52 230.89 369.41 231.31 369.38 231.73 369.31 232.19 369.27 232.69 369.24 233.25 369.24 233.92 369.27 234.88 369.66 235.44 369.87 235.62 369.91 235.72 369.91 235.83 369.91 235.97 369.87 236.18 369.48 236.43 369.06 236.64 368.67 236.89 368.32 237.13 368 237.42 367.68 237.66 367.4 237.95 367.08 238.23 366.84 238.51 366.63 238.83 366.41 239.15 366.24 239.47 366.06 239.78 365.92 240.1 365.81 240.42 365.71 240.77 365.64 241.13 365.57 241.48 365.57 241.83 365.57 242.18 365.57 242.57 365.64 242.93 365.71 243.31 365.78 243.7 365.88 244.09 366.02 244.48 366.2 244.9 366.38 245.29 366.59 245.71 366.84 246.1 367.12 246.53 367.4 246.99 366.91 247.41 366.45 247.8 366.06 248.19 365.71 248.57 365.39 248.96 365.11 249.35 364.89 249.74 364.65 250.13 364.47 250.59 364.33 251.04 364.19 251.54 364.08 252.07 364.01 252.67 363.94 253.3 363.87 253.97 363.87 254.36 363.94 254.75 364.01 254.96 364.05 255.18 364.08 255.39 364.05 255.67 364.01 255.32 363.48 255 362.95 254.79 362.42 254.61 361.93 254.5 361.44 254.43 360.98 254.43 360.48 254.43 360.02 254.54 359.6 254.68 359.21 254.82 358.82 255.03 358.44 255.25 358.12 255.53 357.8 255.81 357.52 256.13 357.27 256.48 357.06 256.83 356.85 257.22 356.74 257.65 356.6 258.04 356.53 258.46 356.49 258.88 356.49 259.31 356.53 259.73 356.67 260.15 356.81 260.58 356.99 261 357.23 261.39 357.52 261.78 357.87 262.13 358.26 262.48 358.72 263.15 358.58 263.82 358.44 264.42 358.33 264.99 358.26 265.55 358.22 266.08 358.22 266.61 358.26 267.11 358.29 267.64 358.44 268.13 358.58 268.63 358.79 269.15 359.04 269.65 359.35 270.21 359.71 270.78 360.13 271.38 360.66 271.49 360.66 271.66 360.59 271.8 360.55 271.98 360.52 272.37 360.34 272.76 360.17 273.21 359.99 273.71 359.81 273.96 359.78 274.2 359.71 274.45 359.67 274.7 359.63 275.23 359.95 275.72 360.27 275.93 360.45 276.14 360.59 276.32 360.76 276.46 360.94 276.64 361.12 276.78 361.29 276.89 361.47 276.99 361.65 277.03 361.82 277.1 362 277.17 362.18 277.17 362.39 277.2 362.56 277.2 362.78 277.17 362.95 277.13 363.17 277.06 363.38 276.99 363.55 276.92 363.8 276.78 363.98 276.67 364.19 276.5 364.44 276.36 364.65 276.14 364.89 275.72 365.32 275.23 365.81 275.44 366.13 275.62 366.41 275.79 366.7 275.93 367.01 276.07 367.3 276.18 367.58 276.29 367.86 276.36 368.18 276.43 368.46 276.46 368.74 276.53 369.06 276.53 369.31 276.57 369.63 276.57 369.91 276.53 370.19 276.53 370.51 276.46 371.07 276.36 371.64 276.18 372.24 275.97 372.84 275.76 373.44 275.51 374.04 275.23 374.64 274.94 375.27 275.26 375.59 275.58 375.91 275.9 376.26 276.18 376.58 276.46 376.93 276.71 377.25 276.92 377.64 277.13 377.96 277.31 378.35 277.49 378.7 277.63 379.05 277.77 379.4 277.88 379.79 277.94 380.15 278.02 380.53 278.05 380.92 278.05 381.31 278.05 381.66 278.05 382.05 277.98 382.48 277.94 382.86 277.84 383.25 277.73 383.64 277.59 384.03 277.42 384.45 277.24 384.84 277.03 385.23 276.81 385.62 276.53 386.04 276.29 386.43 275.97 386.82 275.65 387.24 275.97 387.49 276.25 387.74 276.5 387.98 276.78 388.26 276.99 388.55 277.2 388.87 277.42 389.18 277.56 389.5 277.73 389.82 277.88 390.14 277.98 390.45 278.05 390.81 278.12 391.13 278.19 391.48 278.19 391.8 278.19 392.11 278.16 392.43 278.12 392.71 278.02 393.03 277.94 393.35 277.8 393.63 277.63 393.91 277.45 394.16 277.24 394.41 276.99 394.65 276.71 394.87 276.43 395.08 276.07 395.25 275.72 395.4 275.3 395.54 274.87 395.64 274.42 395.75 274.59 396.56 274.7 397.3 274.77 398.04 274.8 398.75 274.8 399.1 274.8 399.49 274.77 399.88 274.73 400.23 274.66 400.66 274.59 401.08 274.49 401.5 274.38 401.96 274.8 402 275.23 402.03 275.58 402.1 275.97 402.21 276.32 402.28 276.64 402.39 276.96 402.49 277.24 402.63 277.49 402.77 277.73 402.92 277.98 403.09 278.19 403.27 278.37 403.48 278.55 403.66 278.72 403.87 278.86 404.08 278.97 404.36 279.07 404.61 279.14 404.86 279.22 405.14 279.29 405.42 279.32 405.74 279.32 406.06 279.32 406.38 279.32 406.69 279.29 407.05 279.25 407.4 279.18 407.75 279.11 408.14 279 408.53 278.9 408.95 278.79 409.38 279.18 409.76 279.5 410.19 279.64 410.4 279.78 410.58 279.89 410.79 279.99 410.96 280.06 411.18 280.13 411.35 280.2 411.56 280.24 411.78 280.27 411.95 280.31 412.17 280.31 412.38 280.31 412.55 280.27 412.98 280.2 413.37 280.06 413.82 279.89 414.25 279.71 414.71 279.5 415.2 279.25 415.69 278.97 416.23 279.39 416.54 279.82 416.86 280.2 417.25 280.59 417.57 280.91 417.92 281.26 418.31 281.55 418.7 281.83 419.08 282.08 419.51 282.29 419.9 282.5 420.32 282.68 420.74 282.82 421.17 282.92 421.59 283.03 422.01 283.1 422.47 283.13 422.93 283.13 423.36 283.1 423.81 283.06 424.24 282.99 424.7 282.85 425.16 282.71 425.58 282.53 426.04 282.36 426.46 282.11 426.89 281.83 427.35 281.51 427.77 281.16 428.19 280.77 428.62 280.38 429.04 279.92 429.43 279.96 429.64 279.96 429.85 280.03 430.06 280.06 430.31 280.2 430.73 280.38 431.19 280.59 431.69 280.84 432.15 281.05 432.64 281.26 433.13 281.37 433.63 281.48 434.09 281.51 434.55 281.58 434.97 281.58 435.43 281.62 435.85 281.65 436.31 281.65 436.74 281.62 437.16 281.58 437.58 281.55 438.01 281.48 438.43 281.4 438.85 281.3 439.28 281.23 439.67 281.09 440.09 280.95 440.48 280.81 440.87 280.63 441.25 280.45 441.64 280.27 442.03 280.06 442.38 279.82 442.74 279.6 443.13 279.32 443.51 279.07 443.83 278.79 444.19 278.51 444.54 278.19 444.89 277.84 445.21 277.49 445.56 277.13 445.88 276.99 446.2 276.81 446.48 277.24 446.62 277.56 446.8 277.88 446.97 278.12 447.15 278.37 447.4 278.55 447.64 278.69 447.93 278.83 448.24 278.93 448.56 279 448.88 279.07 449.23 279.07 449.55 279.14 450.33 279.14 451.1 278.79 451.53 278.44 451.95 278.26 452.23 278.16 452.44 278.12 452.59 278.05 452.73 278.05 452.87 278.05 453.01 278.23 453.15 278.44 453.29 278.58 453.47 278.76 453.68 278.86 453.86 279 454.07 279.07 454.32 279.14 454.56 279.18 454.81 279.22 455.06 279.22 455.34 279.18 455.62 279.14 455.9 279.11 456.19 279 456.5 278.9 456.82 278.55 457.07 278.19 457.39 278.02 457.56 277.88 457.74 277.84 457.85 277.8 457.92 277.77 458.02 277.77 458.16 277.94 458.2 278.12 458.27 278.44 458.69 278.65 459.08 278.79 459.44 278.9 459.72 278.93 460 278.93 460.25 278.9 460.46 278.83 460.88 278.44 461.69 277.8 462.54 277.1 462.96 277.1 462.96"/><polygon class="cls-4" points="285.92 462.26 285.32 461.94 285.01 461.52 284.76 461.17 284.62 460.88 284.51 460.64 284.44 460.39 284.4 460.14 284.4 459.89 284.44 459.61 284.51 459.37 284.62 459.12 284.76 458.83 284.86 458.52 285.08 458.24 285.29 457.88 285.39 457.35 285.46 456.96 285.57 456.58 285.68 456.26 285.78 455.94 285.96 455.62 286.17 455.31 286.45 454.95 286.21 454.67 285.99 454.42 285.82 454.18 285.68 453.89 285.57 453.65 285.5 453.36 285.43 453.12 285.43 452.87 285.43 452.59 285.5 452.34 285.57 452.09 285.64 451.85 285.75 451.6 285.89 451.35 286.03 451.07 286.21 450.82 286.17 450.57 286.1 450.26 285.99 449.83 285.82 449.41 285.71 448.95 285.57 448.46 285.43 448 285.36 447.57 285.39 447.01 285.43 446.48 285.5 445.99 285.61 445.49 285.71 445.03 285.82 444.57 285.96 444.15 286.1 443.69 285.96 442.98 285.89 442.35 285.78 441.71 285.75 441.08 285.71 440.48 285.75 439.88 285.78 439.28 285.89 438.71 285.96 438.47 286.03 438.18 286.13 437.9 286.24 437.62 286.35 437.37 286.49 437.12 286.63 436.88 286.77 436.63 286.95 436.38 287.16 436.14 287.34 435.92 287.55 435.68 287.8 435.46 288.04 435.22 288.29 435.04 288.61 434.79 288.61 434.58 288.61 434.41 288.25 433.98 287.97 433.59 287.65 433.2 287.41 432.78 287.16 432.39 286.95 432 286.74 431.58 286.52 431.19 286.38 430.81 286.24 430.42 286.1 429.99 285.99 429.61 285.92 429.22 285.85 428.83 285.78 428.4 285.75 428.02 285.75 427.63 285.75 427.2 285.78 426.82 285.85 426.43 285.89 426.04 285.99 425.62 286.1 425.26 286.21 424.84 286.35 424.45 286.52 424.06 286.7 423.67 286.91 423.25 287.09 422.86 287.34 422.47 287.58 422.08 287.87 421.66 288.36 421.2 288.85 420.78 289.35 420.39 289.81 420 290.58 419.37 291.08 418.94 290.69 418.63 290.34 418.27 289.98 417.92 289.67 417.6 289.38 417.25 289.1 416.93 288.85 416.58 288.64 416.23 288.43 415.87 288.22 415.52 288.04 415.17 287.9 414.85 287.8 414.46 287.65 414.11 287.58 413.75 287.48 413.37 287.41 413.01 287.37 412.62 287.34 412.27 287.34 411.88 287.34 411.49 287.34 411.11 287.41 410.72 287.44 410.33 287.51 409.91 287.58 409.52 287.65 409.09 287.76 408.71 288.01 407.86 288.29 406.98 287.44 406.69 286.7 406.38 286.35 406.16 286.03 406.02 285.75 405.85 285.46 405.67 285.22 405.49 285.01 405.28 284.76 405.11 284.58 404.89 284.4 404.68 284.26 404.47 284.12 404.26 284.05 404.05 283.95 403.76 283.88 403.52 283.84 403.27 283.81 403.02 283.81 402.77 283.84 402.49 283.88 402.21 283.91 401.93 283.98 401.61 284.09 401.29 284.19 400.97 284.33 400.62 284.51 400.3 284.69 399.92 284.86 399.56 285.08 399.17 285.46 398.96 285.89 398.75 286.28 398.54 286.7 398.33 286.35 397.44 286.13 396.63 285.99 395.86 285.96 395.15 285.99 394.51 286.1 393.88 286.28 393.35 286.52 392.86 286.81 392.43 287.16 392.04 287.55 391.73 287.97 391.48 288.43 391.27 288.89 391.09 289.38 391.02 289.88 390.95 290.37 390.95 290.87 391.02 291.39 391.16 291.85 391.34 292.28 391.58 292.7 391.87 293.09 392.22 293.44 392.61 293.73 393.07 293.97 393.6 294.15 394.16 294.22 394.76 294.25 395.43 294.22 396.21 294.08 396.95 293.83 397.8 294.78 398.15 295.31 398.33 295.45 398.36 295.56 398.36 295.63 398.36 295.74 398.33 295.74 397.97 295.74 397.62 295.74 397.27 295.81 396.95 295.88 396.31 295.99 395.68 296.13 395.08 296.2 394.51 296.3 393.91 296.3 393.35 295.81 392.64 295.35 391.94 295.17 391.58 295 391.27 294.86 390.95 294.71 390.6 294.57 390.28 294.47 389.96 294.36 389.64 294.25 389.36 294.18 389.04 294.11 388.76 294.08 388.44 294.04 388.12 294.01 387.81 294.01 387.49 294.01 387.17 294.01 386.85 294.04 386.22 294.15 385.58 294.29 384.91 294.43 384.17 294.64 383.43 294.86 382.62 294.43 382.19 294.08 381.73 293.73 381.31 293.44 380.92 293.2 380.53 292.95 380.15 292.77 379.79 292.63 379.44 292.49 379.05 292.38 378.66 292.28 378.27 292.21 377.82 292.1 376.9 292 375.87 292.28 374.67 292.45 373.86 292.52 373.54 292.6 373.33 292.6 373.12 292.6 372.94 292.14 372.66 291.75 372.34 291.39 372.03 291.04 371.71 290.76 371.36 290.48 371 290.23 370.65 290.05 370.3 289.88 369.94 289.74 369.56 289.63 369.2 289.6 368.85 289.56 368.46 289.56 368.14 289.56 367.79 289.63 367.47 289.74 367.12 289.88 366.8 290.02 366.52 290.19 366.2 290.41 365.95 290.65 365.71 290.94 365.46 291.22 365.25 291.57 365.07 291.93 364.89 292.31 364.75 292.7 364.61 293.16 364.58 293.65 364.51 294.15 364.51 294.68 364.51 295.07 364.65 295.49 364.82 295.88 364.97 296.3 365.14 296.2 364.51 296.13 363.87 296.13 363.27 296.16 362.71 296.23 362.18 296.37 361.65 296.51 361.15 296.73 360.69 296.94 360.24 297.22 359.85 297.5 359.46 297.82 359.14 298.17 358.82 298.53 358.58 298.92 358.29 299.34 358.12 299.73 357.94 300.15 357.83 300.61 357.73 301.03 357.69 301.49 357.73 301.92 357.76 302.37 357.87 302.8 358.01 303.26 358.19 303.68 358.4 304.1 358.68 304.53 359 304.88 359.39 305.27 359.81 305.59 360.31 305.94 360.83 306.15 360.91 306.36 360.91 306.57 360.91 306.86 360.91 307.67 360.83 309.12 360.66 309.33 360.27 309.51 359.92 309.75 359.56 309.96 359.32 310.21 359.04 310.49 358.82 310.78 358.61 311.02 358.44 311.34 358.26 311.62 358.15 311.94 358.05 312.22 358.01 312.54 357.94 312.86 357.94 313.18 357.94 313.5 357.98 313.81 358.05 314.13 358.12 314.45 358.26 314.77 358.36 315.05 358.54 315.33 358.72 315.61 358.93 315.89 359.18 316.14 359.42 316.39 359.71 316.64 359.99 316.85 360.31 317.02 360.66 317.2 361.01 317.38 361.4 317.52 361.79 318.47 361.86 319.39 361.93 319.81 362 320.24 362.07 320.63 362.14 321.01 362.21 321.37 362.35 321.72 362.46 322.07 362.6 322.39 362.74 322.71 362.92 322.99 363.06 323.27 363.27 323.56 363.48 323.8 363.66 324.05 363.94 324.3 364.19 324.54 364.44 324.72 364.75 324.93 365.07 325.14 365.39 325.32 365.71 325.5 366.1 325.67 366.48 325.81 366.91 325.96 367.33 326.13 367.79 326.24 368.25 326.38 368.74 326.49 369.27 327.26 369.27 327.93 369.31 328.25 369.38 328.57 369.41 328.89 369.48 329.2 369.56 329.52 369.66 329.84 369.8 330.16 369.94 330.48 370.08 330.79 370.3 331.15 370.51 331.5 370.72 331.89 371 332.13 371.32 332.28 371.5 332.42 371.64 332.66 371.74 332.74 371.25 332.81 370.75 332.95 370.33 333.12 369.94 333.33 369.52 333.55 369.17 333.79 368.85 334.08 368.53 334.32 368.28 334.64 368.04 334.96 367.86 335.31 367.65 335.67 367.54 335.98 367.44 336.33 367.33 336.72 367.3 337.11 367.3 337.46 367.33 337.82 367.4 338.17 367.47 338.52 367.58 338.88 367.79 339.19 367.97 339.51 368.21 339.83 368.46 340.15 368.78 340.39 369.1 340.64 369.48 340.85 369.94 341.03 370.37 341.21 370.86 341.35 371.39 341.91 371.29 342.44 371.18 342.97 371.14 343.5 371.07 344 371.07 344.49 371.07 344.95 371.07 345.44 371.11 345.87 371.18 346.29 371.25 346.71 371.39 347.1 371.5 347.49 371.64 347.84 371.81 348.23 372.03 348.55 372.24 348.87 372.49 349.19 372.77 349.47 373.05 349.75 373.33 350 373.69 350.25 374.04 350.49 374.43 350.7 374.85 350.92 375.27 351.09 375.73 351.27 376.19 351.41 376.69 351.55 377.22 351.66 377.78 351.76 378.35 351.87 378.95 352.22 378.8 352.57 378.66 352.93 378.56 353.28 378.45 353.63 378.35 353.99 378.27 354.3 378.24 354.66 378.2 354.98 378.13 355.29 378.13 355.65 378.13 355.96 378.17 356.28 378.2 356.56 378.27 356.88 378.35 357.2 378.45 357.45 378.56 357.76 378.66 358.01 378.84 358.29 378.98 358.58 379.16 358.82 379.37 359.07 379.58 359.35 379.83 359.56 380.11 359.78 380.36 360.02 380.68 360.24 380.99 360.41 381.31 360.62 381.66 360.8 382.05 360.98 382.48 361.37 382.37 361.68 382.23 362.04 382.19 362.35 382.12 362.71 382.09 363.02 382.05 363.34 382.09 363.66 382.12 363.98 382.16 364.26 382.23 364.54 382.3 364.82 382.4 365.07 382.51 365.35 382.65 365.6 382.83 365.81 382.97 366.02 383.15 366.24 383.36 366.41 383.57 366.59 383.82 366.77 384.06 366.91 384.31 367.01 384.63 367.12 384.91 367.23 385.23 367.3 385.51 367.33 385.87 367.37 386.22 367.37 386.61 367.33 386.96 367.3 387.35 367.23 387.74 362.18 392.4 357.13 397.06 352.08 401.72 347 406.38 341.95 411.04 336.9 415.66 331.85 420.32 326.8 424.98 321.76 429.64 316.71 434.33 311.66 439 306.61 443.65 301.56 448.31 296.51 452.98 291.47 457.63 286.42 462.3 285.92 462.26 285.92 462.26"/><polygon class="cls-4" points="417.85 311.59 417.85 311.76 417.85 311.94 417.85 312.12 417.85 312.29 417.85 314.1 417.85 315.93 417.85 317.73 417.85 319.53 417.81 321.37 417.81 323.17 417.81 325 417.78 326.8 417.78 328.6 417.78 330.44 417.74 332.24 417.74 334.04 417.71 335.88 417.71 337.68 417.67 339.48 417.64 341.31 415.1 343.64 412.55 345.97 410.01 348.3 407.47 350.67 404.93 353 402.39 355.33 399.88 357.66 397.34 360.02 394.8 362.35 392.25 364.68 389.71 367.01 387.17 369.38 384.63 371.71 382.09 374.04 379.55 376.37 377 378.7 376.58 379.19 376.12 379.62 375.7 379.97 375.24 380.32 374.78 380.61 374.32 380.82 373.86 380.99 373.44 381.13 372.98 381.24 372.56 381.27 372.13 381.31 371.71 381.24 371.32 381.17 370.93 381.06 370.54 380.92 370.19 380.75 369.84 380.53 369.52 380.29 369.24 380.04 368.95 379.72 368.71 379.37 368.5 379.02 368.32 378.63 368.14 378.2 368.04 377.78 367.93 377.32 367.86 376.83 367.86 376.33 367.86 375.8 367.93 375.27 368.04 374.75 368.21 374.14 367.61 374.32 366.98 374.46 366.41 374.53 365.85 374.64 365.32 374.67 364.79 374.71 364.26 374.71 363.76 374.67 363.31 374.64 362.85 374.57 362.39 374.46 361.96 374.36 361.54 374.21 361.15 374.04 360.8 373.83 360.41 373.62 360.09 373.37 359.78 373.08 359.46 372.8 359.14 372.49 358.89 372.13 358.65 371.78 358.4 371.39 358.15 371 357.94 370.58 357.76 370.12 357.62 369.66 357.45 369.17 357.31 368.64 357.2 368.11 357.13 367.54 357.02 366.98 356.6 367.15 356.18 367.3 355.75 367.44 355.33 367.58 354.9 367.68 354.48 367.79 354.09 367.86 353.67 367.93 353.25 367.97 352.82 368 352.47 368.04 352.05 368 351.66 367.97 351.3 367.93 350.92 367.86 350.56 367.75 350.21 367.65 349.86 367.51 349.54 367.33 349.22 367.19 348.94 366.98 348.66 366.77 348.37 366.52 348.13 366.24 347.88 365.95 347.67 365.64 347.46 365.25 347.24 364.89 347.1 364.51 346.93 364.08 346.79 363.62 346.68 363.17 346.19 363.31 345.69 363.45 345.2 363.55 344.74 363.66 344.24 363.76 343.82 363.84 343.36 363.91 342.9 363.94 342.48 363.98 342.05 363.98 341.67 363.98 341.24 363.94 340.82 363.87 340.47 363.84 340.08 363.73 339.69 363.62 339.37 363.52 339.02 363.38 338.67 363.2 338.31 363.02 338 362.81 337.68 362.56 337.39 362.32 337.11 362.04 336.79 361.72 336.55 361.4 336.26 361.05 336.02 360.69 335.77 360.27 335.52 359.85 335.28 359.39 335.06 358.93 334.99 358.93 334.92 359.04 334.82 359.14 334.68 359.32 334.25 359.81 333.58 360.59 333.16 360.76 332.74 360.91 332.38 360.98 331.99 361.01 331.61 360.98 331.25 360.94 330.93 360.83 330.62 360.69 330.33 360.55 330.02 360.38 329.77 360.17 329.59 359.92 329.38 359.67 329.2 359.39 329.06 359.11 328.96 358.79 328.85 358.47 328.82 358.19 328.82 357.83 328.82 357.52 328.89 357.2 328.99 356.92 329.13 356.6 329.27 356.32 329.52 356.03 329.77 355.79 330.09 355.54 330.44 355.33 330.86 355.15 331.29 354.98 331.82 354.87 332.38 354.76 332.24 354.06 332.13 353.39 332.06 352.82 332.03 352.26 332.03 351.69 332.03 351.16 332.06 350.6 332.1 350 331.43 349.96 330.72 349.86 329.98 349.75 329.27 349.64 328.57 349.54 327.93 349.43 327.65 349.4 327.37 349.4 327.12 349.4 326.87 349.4 326.45 350.03 326.03 350.6 325.57 351.06 325.11 351.41 324.65 351.69 324.23 351.87 323.77 351.97 323.31 352.01 322.85 351.97 322.43 351.87 322 351.73 321.65 351.51 321.26 351.27 320.91 350.99 320.56 350.67 320.31 350.28 320.03 349.93 319.81 349.47 319.6 349.08 319.5 348.62 319.39 348.16 319.36 347.74 319.36 347.28 319.43 346.86 319.53 346.43 319.71 346.01 319.95 345.65 320.27 345.3 320.63 344.99 321.08 344.7 321.65 344.45 322.25 344.28 322.07 343.64 321.97 343.04 321.9 342.48 321.83 341.91 321.76 341.38 321.72 340.85 321.69 340.32 321.69 339.8 321.01 339.8 320.45 339.8 319.88 339.76 319.39 339.69 318.97 339.65 318.61 339.62 318.3 339.62 318.05 339.62 317.77 340.01 317.45 340.32 317.13 340.61 316.78 340.82 316.46 341 316.11 341.14 315.75 341.21 315.4 341.24 315.05 341.24 314.69 341.21 314.38 341.14 314.02 341.03 313.71 340.89 313.42 340.71 313.14 340.5 312.89 340.29 312.65 340.04 312.47 339.76 312.33 339.48 312.19 339.16 312.12 338.84 312.08 338.49 312.08 338.14 312.12 337.78 312.22 337.39 312.4 337.04 312.61 336.65 312.89 336.26 313.25 335.88 313.64 335.52 314.13 335.13 314.69 334.78 314.38 334.29 314.1 333.79 313.85 333.3 313.67 332.84 313.5 332.35 313.39 331.89 313.28 331.43 313.28 331 313.25 330.58 313.28 330.16 313.35 329.73 313.46 329.35 313.56 328.96 313.74 328.6 313.92 328.25 314.17 327.93 314.41 327.62 314.69 327.37 314.98 327.09 315.33 326.87 315.65 326.63 316.04 326.45 316.43 326.27 316.85 326.17 317.27 326.03 317.77 325.99 318.23 325.92 318.72 325.92 319.25 325.92 319.74 325.99 320.31 326.03 320.87 326.17 320.8 325.71 320.77 325.29 320.77 324.9 320.73 324.47 320.73 324.12 320.77 323.77 320.77 323.42 320.8 323.1 320.87 322.81 320.94 322.5 321.05 322.25 321.15 322 321.26 321.75 321.4 321.51 321.58 321.3 321.72 321.08 321.9 320.91 322.07 320.73 322.29 320.56 322.53 320.38 322.78 320.24 323.03 320.1 323.27 319.99 323.56 319.85 323.84 319.74 324.16 319.67 324.51 319.53 324.86 319.46 325.57 319.28 326.38 319.14 326.49 318.54 326.63 317.98 326.77 317.41 326.94 316.88 327.12 316.35 327.37 315.86 327.58 315.4 327.83 314.94 328.07 314.55 328.36 314.13 328.64 313.74 328.96 313.42 329.27 313.07 329.63 312.79 329.98 312.47 330.37 312.22 330.76 311.98 331.18 311.76 331.57 311.55 331.99 311.38 332.45 311.24 332.95 311.09 333.4 310.99 333.9 310.88 334.39 310.81 334.92 310.78 335.45 310.74 335.98 310.74 336.55 310.74 337.11 310.78 337.71 310.85 338.31 310.92 338.45 310.88 338.6 310.85 338.74 310.78 338.88 310.71 339.34 310.32 340.15 309.65 340.64 309.5 341.14 309.36 341.6 309.26 342.09 309.22 342.62 309.22 343.15 309.22 343.68 309.29 344.28 309.36 344.31 308.66 344.38 307.99 344.42 307.35 344.56 306.72 344.67 306.08 344.81 305.45 344.99 304.85 345.2 304.28 345.41 303.72 345.62 303.19 345.9 302.66 346.19 302.16 346.5 301.7 346.82 301.28 347.17 300.86 347.56 300.43 347.99 300.08 348.41 299.73 348.87 299.41 349.33 299.13 349.82 298.84 350.35 298.63 350.88 298.42 351.44 298.24 352.05 298.1 352.64 298 353.28 297.93 353.99 297.89 354.66 297.89 355.36 297.93 356.11 298 356.88 298.1 356.92 297.47 356.99 296.87 357.13 296.3 357.27 295.77 357.45 295.24 357.66 294.75 357.87 294.29 358.12 293.87 358.4 293.44 358.68 293.06 359 292.7 359.32 292.38 359.67 292.07 360.02 291.82 360.41 291.57 360.83 291.36 361.22 291.15 361.68 290.97 362.11 290.87 362.6 290.76 363.06 290.65 363.55 290.62 364.05 290.62 364.54 290.62 365.04 290.65 365.57 290.73 366.1 290.83 366.63 290.97 367.15 291.11 367.68 291.29 368.25 291.5 368.78 291.75 368.99 290.97 369.2 290.3 369.38 289.7 369.63 289.17 369.73 288.96 369.84 288.78 369.98 288.57 370.08 288.39 370.23 288.29 370.37 288.15 370.51 288.01 370.69 287.9 370.86 287.83 371.04 287.72 371.21 287.65 371.43 287.58 371.85 287.51 372.34 287.44 372.91 287.44 373.51 287.41 374.18 287.41 374.96 287.41 375.13 287.05 375.31 286.74 375.52 286.42 375.7 286.13 375.87 285.85 376.09 285.61 376.33 285.36 376.55 285.15 376.79 284.97 377.07 284.79 377.32 284.69 377.64 284.55 377.99 284.48 378.35 284.4 378.73 284.37 379.16 284.33 382.3 285.32 385.41 286.28 388.44 287.23 391.48 288.22 392.96 288.71 394.44 289.24 395.89 289.77 397.3 290.37 398.68 290.94 400.06 291.57 401.4 292.21 402.7 292.91 403.98 293.65 405.25 294.4 406.45 295.21 407.58 296.09 408.74 297.01 409.8 298 410.86 299.02 411.85 300.12 412.76 301.28 413.68 302.52 414.53 303.82 415.31 305.2 416.05 306.68 416.68 308.24 417.32 309.86 417.85 311.59 417.85 311.59"/><polygon class="cls-4" points="153.65 337.43 153.65 335.77 153.65 334.11 153.65 332.45 153.65 330.79 153.65 329.13 153.65 327.47 153.65 325.81 153.65 324.16 153.65 322.5 153.65 320.84 153.65 319.18 153.65 317.52 153.65 315.86 153.65 314.2 153.65 312.54 153.65 310.88 153.96 308.87 154.46 306.82 154.78 305.73 155.2 304.28 155.73 303.22 156.29 302.27 156.79 301.39 157.35 300.54 157.88 299.76 158.45 299.02 159.01 298.31 159.65 297.68 160.28 297.04 160.95 296.44 161.66 295.88 162.4 295.31 163.25 294.75 164.13 294.18 165.08 293.62 166.07 293.02 167.63 292.45 169.18 291.82 170.73 291.22 173.06 290.34 175.39 289.42 177.72 288.54 180.05 287.62 182.35 286.74 184.68 285.82 187.01 284.9 189.34 284.02 190.89 283.42 191.35 283.42 191.77 283.45 192.16 283.49 192.51 283.52 192.87 283.63 193.18 283.74 193.5 283.88 193.82 284.05 194.07 284.23 194.31 284.48 194.56 284.72 194.77 285.04 194.98 285.36 195.2 285.75 195.37 286.17 195.51 286.63 195.94 286.49 196.4 286.31 196.82 286.17 197.24 286.06 197.67 285.99 198.09 285.96 198.51 285.96 198.9 285.99 199.12 286.06 199.33 286.1 199.5 286.17 199.72 286.24 199.89 286.31 200.1 286.42 200.28 286.52 200.46 286.67 200.63 286.81 200.81 286.95 200.99 287.12 201.16 287.34 201.3 287.51 201.48 287.76 201.62 287.97 201.8 288.22 202.33 288.22 202.79 288.18 203.28 288.15 203.74 288.18 204.2 288.22 204.66 288.22 205.04 288.29 205.5 288.36 205.86 288.46 206.28 288.54 206.63 288.68 206.99 288.82 207.34 288.96 207.69 289.14 208.01 289.35 208.33 289.52 208.61 289.77 208.89 290.02 209.18 290.3 209.42 290.55 209.67 290.87 209.92 291.18 210.13 291.54 210.34 291.93 210.55 292.31 210.73 292.7 210.87 293.13 211.05 293.58 211.19 294.04 211.33 294.54 211.44 295.03 211.54 295.6 211.93 295.53 212.28 295.45 212.64 295.42 212.95 295.42 213.27 295.42 213.55 295.42 213.84 295.45 214.08 295.53 214.33 295.6 214.58 295.7 214.79 295.81 215 295.95 215.21 296.09 215.39 296.23 215.53 296.41 215.71 296.62 215.85 296.8 215.99 297.01 216.09 297.26 216.24 297.47 216.34 297.71 216.41 297.96 216.48 298.24 216.59 298.53 216.69 299.13 216.77 299.76 216.8 300.4 216.84 301.1 217.44 301.42 217.97 301.74 218.43 302.02 218.92 302.34 219.38 302.73 219.84 303.12 220.33 303.61 220.9 304.18 221.46 304.07 222.06 303.93 222.63 303.82 223.16 303.75 223.72 303.72 224.25 303.68 224.78 303.68 225.27 303.72 225.77 303.75 226.26 303.86 226.72 303.93 227.18 304.07 227.6 304.25 228.03 304.42 228.45 304.63 228.84 304.85 229.19 305.09 229.54 305.38 229.86 305.69 230.18 306.01 230.46 306.4 230.75 306.79 230.99 307.18 231.21 307.63 231.38 308.09 231.56 308.59 231.73 309.12 231.84 309.68 231.95 310.25 232.02 310.85 232.05 311.48 232.09 312.15 232.58 312.15 233.15 312.22 233.64 312.29 234.17 312.4 234.66 312.54 235.12 312.72 235.34 312.82 235.55 312.93 235.72 313.04 235.94 313.21 236.11 313.35 236.29 313.5 236.43 313.67 236.57 313.85 236.71 314.06 236.82 314.27 236.92 314.52 236.99 314.73 237.06 315.01 237.13 315.3 237.17 315.58 237.17 315.89 237.17 316.21 237.13 316.57 237.1 316.92 237.03 317.31 237.63 317.1 238.23 316.95 238.83 316.81 239.36 316.71 239.92 316.6 240.45 316.57 240.98 316.5 241.48 316.5 242.01 316.53 242.47 316.6 242.93 316.67 243.38 316.78 243.81 316.92 244.2 317.06 244.62 317.27 244.97 317.48 245.36 317.73 245.71 318.01 246.03 318.3 246.35 318.61 246.67 318.97 246.91 319.36 247.2 319.74 247.44 320.17 247.69 320.66 247.87 321.12 248.04 321.65 248.26 322.18 248.36 322.74 248.5 323.34 248.61 323.94 248.72 324.62 249.03 324.9 249.31 325.21 249.6 325.53 249.84 325.81 250.09 326.1 250.3 326.42 250.51 326.73 250.69 327.05 250.83 327.37 251.01 327.72 251.15 328.07 251.29 328.43 251.4 328.85 251.54 329.27 251.65 329.77 251.72 330.23 252.07 330.26 252.39 330.33 252.7 330.4 252.99 330.51 253.23 330.62 253.48 330.72 253.69 330.86 253.87 331.04 254.04 331.18 254.22 331.36 254.36 331.53 254.47 331.71 254.57 331.92 254.61 332.13 254.68 332.35 254.68 332.56 254.68 332.81 254.68 333.02 254.65 333.23 254.57 333.48 254.5 333.69 254.4 333.94 254.26 334.15 254.12 334.36 253.94 334.57 253.73 334.78 253.55 334.99 253.3 335.21 253.06 335.38 252.74 335.56 252.42 335.74 252.1 335.88 252.1 336.33 252.1 336.83 252.1 337.29 252.1 337.75 252.03 338.24 251.96 338.74 251.89 339.27 251.79 339.8 252.14 339.94 252.49 340.04 252.84 340.15 253.2 340.25 253.59 340.64 253.9 341 254.15 341.38 254.36 341.74 254.5 342.09 254.57 342.44 254.61 342.83 254.57 343.18 254.5 343.5 254.43 343.86 254.26 344.17 254.12 344.42 253.9 344.74 253.66 344.99 253.41 345.2 253.13 345.37 252.81 345.55 252.53 345.69 252.17 345.8 251.86 345.87 251.54 345.94 251.19 345.94 250.83 345.87 250.51 345.8 250.2 345.65 249.88 345.44 249.56 345.23 249.28 344.91 249 344.6 248.78 344.17 248.57 343.71 248.36 343.22 247.66 343.29 246.95 343.32 246.21 343.43 245.54 343.5 245.5 344.6 245.47 345.48 245.4 345.87 245.4 346.25 245.33 346.64 245.25 346.96 245.15 347.28 245.01 347.63 244.9 347.95 244.72 348.34 244.51 348.69 244.3 349.08 244.02 349.54 243.74 350 244.13 350.28 244.51 350.6 244.83 350.92 245.15 351.23 245.43 351.55 245.64 351.9 245.85 352.26 246.03 352.61 246.17 352.93 246.28 353.32 246.35 353.63 246.38 354.02 246.38 354.34 246.35 354.69 246.28 355.01 246.21 355.36 246.1 355.68 245.96 356 245.78 356.28 245.61 356.6 245.36 356.85 245.11 357.09 244.83 357.38 244.51 357.55 244.2 357.76 243.84 357.94 243.46 358.12 243.07 358.26 242.61 358.33 242.18 358.4 241.69 358.44 241.23 358.47 240.56 358.12 239.96 357.76 239.71 357.59 239.47 357.41 239.25 357.23 239.04 357.06 238.87 356.85 238.69 356.67 238.51 356.49 238.41 356.28 238.26 356.07 238.16 355.86 238.09 355.65 237.98 355.43 237.95 355.22 237.88 355.01 237.84 354.76 237.84 354.52 237.84 354.3 237.84 354.06 237.88 353.81 237.88 353.56 238.02 353 238.16 352.47 238.37 351.87 238.62 351.27 238.34 351.23 238.05 351.16 237.77 351.06 237.52 350.99 236.99 350.74 236.5 350.49 236.04 350.21 235.62 350 235.37 349.93 235.16 349.82 234.95 349.75 234.74 349.71 234.59 350 234.49 350.28 234.35 350.53 234.21 350.77 234.03 350.99 233.89 351.23 233.71 351.41 233.53 351.62 233.15 352.05 232.76 352.4 232.3 352.75 231.81 353.14 232.02 353.56 232.19 353.95 232.37 354.38 232.51 354.76 232.62 355.15 232.72 355.54 232.76 355.89 232.83 356.21 232.83 356.6 232.83 356.92 232.79 357.23 232.76 357.55 232.69 357.83 232.58 358.12 232.44 358.4 232.33 358.65 232.16 358.89 231.98 359.14 231.77 359.32 231.56 359.53 231.31 359.71 231.03 359.88 230.75 360.02 230.43 360.17 230.11 360.27 229.76 360.38 229.37 360.45 228.98 360.52 228.59 360.55 228.17 360.59 227.71 360.59 227.25 360.59 226.83 360.34 226.44 360.17 226.09 360.06 225.77 359.99 225.52 359.95 225.27 359.99 225.06 360.06 224.85 360.13 224.64 360.27 224.43 360.41 224.18 360.59 223.97 360.76 223.69 361.01 223.4 361.22 223.05 361.44 222.7 361.68 222.73 362.18 222.73 362.64 222.8 363.1 222.8 363.59 222.84 364.05 222.91 364.54 222.91 365.04 222.98 365.5 222.8 365.99 222.63 366.45 222.41 366.91 222.2 367.33 221.96 367.72 221.71 368.07 221.46 368.43 221.14 368.71 220.86 368.99 220.58 369.24 220.26 369.48 219.91 369.7 219.56 369.87 219.24 370.05 218.88 370.19 218.5 370.26 218.11 370.37 217.75 370.44 217.37 370.44 216.98 370.44 216.55 370.44 216.17 370.4 215.78 370.33 215.35 370.26 214.97 370.12 214.54 369.98 214.15 369.8 213.73 369.63 213.34 369.41 212.95 369.17 212.53 368.92 212.14 368.6 212.11 369.1 212.03 369.56 211.97 369.98 211.86 370.44 211.75 370.86 211.65 371.25 211.54 371.64 211.4 372.03 211.22 372.38 211.08 372.73 210.91 373.08 210.73 373.4 210.52 373.69 210.27 373.97 210.06 374.29 209.85 374.53 209.56 374.78 209.28 375.03 209.03 375.24 208.72 375.45 208.4 375.63 208.08 375.8 207.73 375.98 207.38 376.12 206.99 376.26 206.6 376.37 206.18 376.47 205.79 376.55 205.33 376.65 204.9 376.69 204.41 376.76 203.95 376.79 202.86 376.58 202.26 376.51 202.08 376.47 201.9 376.47 201.76 376.51 201.62 376.51 201.3 376.86 201.02 377.25 200.67 377.57 200.31 377.89 199.93 378.17 199.5 378.45 199.12 378.7 198.66 378.91 198.23 379.05 197.77 379.19 197.31 379.3 196.82 379.33 196.61 379.37 196.36 379.37 196.15 379.33 195.9 379.33 195.66 379.3 195.41 379.26 195.2 379.19 194.95 379.12 191.59 375.7 188.52 372.59 185.7 369.7 183.09 367.01 180.65 364.51 178.32 362.14 176.1 359.88 173.91 357.66 171.75 355.47 169.57 353.25 167.31 350.99 164.91 348.58 162.4 346.11 159.72 343.43 156.79 340.57 153.65 337.43 153.65 337.43"/><polygon class="cls-4" points="276.29 355.33 276.14 355.26 275.97 355.15 275.72 355.01 275.4 354.9 275.09 354.76 274.77 354.59 274.45 354.41 274.13 354.2 273.81 353.67 273.53 353.18 273.32 352.68 273.14 352.22 273.07 352.01 273.04 351.76 273 351.55 272.97 351.34 272.97 351.13 272.97 350.92 273 350.7 273 350.49 273.07 350.31 273.14 350.1 273.18 349.93 273.29 349.71 273.39 349.54 273.5 349.36 273.64 349.19 273.81 349.01 273.96 348.83 274.13 348.66 274.34 348.48 274.52 348.34 275.01 347.99 275.55 347.63 276.07 347.53 276.6 347.49 277.1 347.49 277.59 347.56 278.02 347.63 278.44 347.81 278.79 347.99 279.14 348.2 279.43 348.48 279.71 348.76 279.96 349.08 280.13 349.43 280.35 349.79 280.45 350.17 280.56 350.53 280.59 350.92 280.63 351.34 280.59 351.73 280.56 352.12 280.45 352.5 280.35 352.89 280.17 353.25 279.96 353.6 279.71 353.92 279.43 354.23 279.11 354.52 278.76 354.73 278.33 354.94 277.88 355.12 277.38 355.22 276.85 355.29 276.29 355.33 276.29 355.33"/><polygon class="cls-4" points="417.64 341.31 417.67 339.48 417.67 337.64 417.71 335.84 417.71 334.04 417.71 332.24 417.71 330.4 417.74 328.6 417.74 326.8 417.74 324.97 417.78 323.17 417.78 321.37 417.81 319.53 417.81 317.73 417.81 315.93 417.85 314.1 417.85 312.29 417.85 314.1 417.85 315.93 417.85 317.73 417.85 319.53 417.85 321.37 417.85 323.17 417.85 324.97 417.85 326.8 417.85 328.6 417.85 330.4 417.85 332.24 417.85 334.04 417.85 335.84 417.85 337.64 417.85 339.48 417.85 341.31 417.74 341.31 417.64 341.31 417.64 341.31"/><polygon class="cls-4" points="315.12 244.97 315.12 247.34 315.15 249.67 315.15 252.03 315.19 254.4 315.19 256.73 315.23 259.09 315.26 261.46 315.33 263.79 315.58 263.86 315.86 263.96 316.25 264.07 319.14 264.88 322.04 265.77 324.93 266.65 327.86 267.53 330.76 268.45 333.65 269.4 336.55 270.36 339.44 271.34 342.34 272.3 345.23 273.29 348.13 274.24 351.02 275.23 353.92 276.18 356.81 277.17 359.67 278.09 362.56 279.04 364.15 279.57 364.12 280.1 364.08 280.59 364.05 281.02 363.98 281.4 363.87 281.72 363.76 282 363.66 282.15 363.59 282.25 363.52 282.36 363.41 282.46 363.2 282.64 362.95 282.78 362.64 282.89 362.32 282.96 361.93 283.06 361.54 283.13 361.08 283.17 360.59 283.24 360.52 283.52 360.45 283.84 360.34 284.12 360.27 284.4 360.17 284.69 360.02 284.94 359.92 285.15 359.78 285.39 359.6 285.61 359.46 285.85 359.28 286.06 359.07 286.28 358.68 286.7 358.19 287.09 358.08 287.58 357.9 288.04 357.76 288.5 357.55 288.92 357.34 289.35 357.13 289.74 356.88 290.09 356.6 290.41 356.32 290.73 356.07 291.01 355.75 291.25 355.43 291.5 355.12 291.71 354.8 291.89 354.45 292.07 354.09 292.17 353.74 292.24 353.39 292.31 353.03 292.38 352.64 292.38 352.26 292.35 351.87 292.28 351.52 292.17 351.13 292.07 350.74 291.89 350.39 291.71 350 291.5 349.64 291.22 349.29 290.94 348.9 290.58 348.55 290.19 348.2 289.77 348.09 290.44 347.99 291.04 347.88 291.29 347.81 291.57 347.7 291.78 347.6 292 347.53 292.21 347.38 292.38 347.28 292.56 347.14 292.74 347.03 292.88 346.89 293.02 346.71 293.13 346.57 293.27 346.22 293.44 345.87 293.65 345.44 293.8 344.99 293.9 344.53 294.01 344 294.11 343.43 294.22 342.83 294.29 342.9 294.75 343.01 295.17 343.08 295.6 343.11 295.99 343.18 296.37 343.18 296.73 343.18 297.08 343.15 297.43 343.11 297.75 343.04 298.07 342.97 298.38 342.9 298.67 342.8 298.95 342.65 299.2 342.55 299.44 342.41 299.69 342.23 299.94 342.02 300.15 341.84 300.36 341.6 300.54 341.38 300.75 341.1 300.89 340.82 301.07 340.57 301.21 340.25 301.39 339.94 301.49 339.62 301.63 339.27 301.74 338.88 301.85 338.49 301.95 338.1 302.02 337.68 302.09 336.83 301.92 336.09 301.74 335.77 301.67 335.49 301.6 335.28 301.56 335.06 301.6 334.54 301.92 334 302.23 333.48 302.48 332.95 302.69 332.66 302.8 332.38 302.87 332.13 302.94 331.85 302.98 331.61 303.01 331.36 303.01 331.07 303.05 330.83 303.01 330.58 302.98 330.33 302.94 330.09 302.87 329.88 302.8 329.66 302.73 329.42 302.62 329.2 302.48 329.03 302.3 328.82 302.13 328.64 301.95 328.46 301.74 328.29 301.49 328.14 301.25 328 300.96 327.9 300.64 327.76 300.33 327.62 300.4 327.48 300.43 327.33 300.5 327.19 300.57 326.77 300.89 325.99 301.53 325.43 301.67 324.9 301.77 324.37 301.85 323.91 301.88 323.42 301.85 322.99 301.81 322.57 301.74 322.18 301.6 321.79 301.42 321.44 301.21 321.05 300.96 320.77 300.64 320.45 300.33 320.13 299.94 319.85 299.55 319.57 299.09 318.79 298.99 318.01 298.88 317.27 298.74 316.53 298.63 316.35 299.51 316.21 300.12 316.04 300.64 315.75 301.46 316.25 301.63 316.64 301.88 317.02 302.16 317.31 302.44 317.56 302.8 317.73 303.15 317.87 303.54 317.98 303.93 317.98 304.35 317.98 304.74 317.91 305.2 317.84 305.59 317.7 306.01 317.52 306.4 317.31 306.79 317.1 307.18 316.81 307.53 316.53 307.85 316.21 308.13 315.86 308.38 315.51 308.59 315.12 308.73 314.73 308.87 314.31 308.94 313.88 308.94 313.46 308.87 313.04 308.73 312.58 308.52 312.15 308.24 311.69 307.92 311.27 307.46 310.85 306.93 310.56 306.89 310.32 306.89 310.04 306.93 309.79 306.96 309.26 307.11 308.76 307.25 308.24 307.42 307.74 307.6 307.49 307.67 307.28 307.74 307.03 307.78 306.79 307.81 306.57 308.41 306.33 308.94 306.05 309.44 305.73 309.89 305.41 310.32 305.06 310.67 304.7 310.99 304.32 311.27 303.89 311.48 303.5 311.69 303.08 311.83 302.62 311.94 302.2 312.01 301.77 312.01 301.35 312.01 300.93 311.94 300.47 311.87 300.08 311.73 299.66 311.59 299.27 311.38 298.88 311.13 298.53 310.88 298.21 310.56 297.89 310.21 297.57 309.82 297.33 309.44 297.08 308.98 296.87 308.48 296.69 307.99 296.55 307.46 296.48 306.86 296.41 306.26 296.55 305.73 296.62 305.2 296.69 304.74 296.65 304.32 296.62 303.93 296.51 303.54 296.41 303.19 296.27 302.83 295.91 302.13 295.49 301.42 295.31 301.03 295.1 300.61 294.89 300.15 294.68 299.69 294.54 298.56 294.47 297.5 294.43 297.01 294.43 296.55 294.43 296.06 294.47 295.6 294.5 295.14 294.57 294.64 294.68 294.22 294.75 293.76 294.89 293.27 295.03 292.81 295.17 292.31 295.38 291.82 295.24 290.97 295.07 290.16 294.89 289.35 294.68 288.54 294.47 287.76 294.29 286.95 294.22 286.56 294.15 286.17 294.11 285.78 294.08 285.36 293.62 285.29 293.2 285.18 292.81 285.08 292.45 284.94 292.14 284.72 291.89 284.55 291.64 284.33 291.43 284.09 291.25 283.88 291.11 283.63 291.01 283.35 290.9 283.1 290.87 282.85 290.83 282.57 290.87 282.29 290.87 282 290.94 281.76 291.08 281.51 291.18 281.26 291.32 281.05 291.5 280.81 291.71 280.63 291.96 280.45 292.21 280.31 292.49 280.17 292.77 280.06 293.13 279.99 293.48 279.92 293.83 279.92 294.22 279.92 294.68 279.99 295.1 280.1 295.35 280.24 295.53 280.35 295.67 280.38 295.88 280.38 296.06 280.13 296.2 279.89 296.3 279.6 296.37 279.39 296.41 279.18 296.41 278.93 296.41 278.72 296.37 278.51 296.23 278.05 296.06 277.59 295.88 277.17 295.67 276.64 295.7 275.97 295.74 275.19 295.84 274.42 295.91 273.64 296.02 272.86 296.06 272.15 296.09 271.84 296.13 271.56 296.09 271.31 296.06 271.1 295.6 270.74 295.17 270.39 294.82 270.04 294.5 269.65 294.22 269.26 294.01 268.87 293.83 268.48 293.65 268.06 293.58 267.64 293.51 267.21 293.51 266.79 293.51 266.37 293.58 265.91 293.69 265.41 293.83 264.95 294.01 264.46 293.62 264.14 293.27 263.82 292.95 263.47 292.63 263.15 292.31 262.8 292.07 262.45 291.82 262.13 291.61 261.78 291.39 261.42 291.22 261.07 291.08 260.72 290.94 260.36 290.83 260.01 290.73 259.66 290.65 259.31 290.62 258.95 290.62 258.6 290.62 258.28 290.69 257.89 290.76 257.58 290.83 257.22 290.97 256.87 291.11 256.52 291.32 256.2 291.5 255.88 291.75 255.53 292 255.18 292.31 254.86 292.63 254.54 293.02 254.22 293.41 253.9 293.83 253.62 293.73 253.41 293.51 253.16 293.27 252.84 292.95 252.46 292.6 252.03 292.21 251.5 291.82 251.01 291.43 250.41 291.22 249.88 291.04 249.38 290.87 248.89 290.76 248.43 290.62 247.94 290.51 247.48 290.44 247.02 290.37 246.56 290.37 246.1 290.3 245.64 290.3 245.18 290.3 244.69 290.34 244.27 290.37 243.77 290.44 243.28 290.48 242.78 289.81 242.36 289.24 241.97 288.71 241.55 288.25 241.13 288.04 240.91 287.87 240.7 287.69 240.49 287.51 240.28 287.37 240.06 287.23 239.82 287.09 239.61 286.98 239.4 286.77 238.9 286.63 238.41 286.49 237.88 286.38 237.31 286.31 236.75 286.24 236.11 286.21 235.44 286.17 234.74 286.31 234.13 286.38 233.78 286.38 233.64 286.35 233.5 286.31 233.29 286.28 233.08 285.89 232.76 285.57 232.47 285.29 232.19 285.04 231.88 284.86 231.59 284.69 231.31 284.55 230.99 284.44 230.68 284.37 230.36 284.3 230.04 284.26 229.72 284.23 229.4 284.19 228.73 284.12 227.96 283.42 228.2 282.71 228.42 282.04 228.66 281.33 228.91 281.33 229.16 281.26 229.4 281.23 229.69 281.19 229.97 281.05 230.5 280.91 231.06 280.77 231.59 280.63 232.12 280.59 232.41 280.56 232.69 280.52 232.97 280.52 233.25 280.84 233.57 281.09 233.89 281.37 234.21 281.58 234.52 281.83 234.84 282 235.16 282.18 235.48 282.32 235.79 282.46 236.08 282.53 236.39 282.64 236.71 282.68 237.03 282.71 237.31 282.71 237.63 282.71 237.95 282.71 238.23 282.64 238.55 282.57 238.83 282.46 239.15 282.36 239.43 282.22 239.71 282.08 240 281.9 240.28 281.69 240.56 281.48 240.84 281.23 241.13 280.95 241.41 280.7 241.65 280.38 241.9 280.06 242.18 279.71 242.43 279.36 242.68 279.57 243.17 279.82 243.63 280.03 244.09 280.2 244.55 280.35 245.01 280.49 245.43 280.59 245.89 280.7 246.31 280.77 246.7 280.84 247.16 280.88 247.55 280.88 247.94 280.88 248.36 280.84 248.75 280.77 249.1 280.7 249.49 280.59 249.88 280.49 250.27 280.35 250.62 280.17 250.94 279.96 251.33 279.75 251.65 279.5 252 279.25 252.35 278.93 252.67 278.65 252.99 278.3 253.27 277.94 253.59 277.56 253.9 277.13 254.22 276.71 254.5 276.25 254.79 276.43 256.06 276.53 257.19 276.53 257.75 276.53 258.25 276.53 258.78 276.5 259.27 276.46 259.73 276.36 260.22 276.25 260.75 276.11 261.25 275.97 261.81 275.79 262.38 275.55 262.94 275.26 263.58 275.83 263.89 276.36 264.21 276.78 264.53 277.17 264.78 277.49 265.02 277.8 265.24 278.05 265.38 278.3 265.52 278.65 265.38 279 265.27 279.32 265.2 279.64 265.17 279.92 265.2 280.2 265.24 280.52 265.34 280.77 265.45 281.02 265.59 281.23 265.73 281.48 265.94 281.65 266.15 281.83 266.37 281.97 266.61 282.11 266.86 282.18 267.14 282.25 267.43 282.29 267.67 282.29 267.99 282.29 268.27 282.22 268.56 282.15 268.84 282.04 269.12 281.9 269.4 281.69 269.65 281.48 269.9 281.19 270.14 280.88 270.32 280.52 270.53 280.1 270.71 279.68 270.85 279.18 270.95 279.43 271.38 279.64 271.8 279.89 272.23 280.06 272.69 280.24 273.11 280.38 273.53 280.52 273.96 280.63 274.38 280.7 274.8 280.77 275.26 280.84 275.69 280.84 276.07 280.84 276.53 280.84 276.92 280.77 277.35 280.7 277.73 280.59 278.16 280.49 278.55 280.35 278.93 280.2 279.29 279.99 279.68 279.78 280.03 279.53 280.38 279.25 280.73 279 281.09 278.69 281.4 278.3 281.69 277.94 282 277.56 282.29 277.13 282.61 276.67 282.85 276.21 283.1 276.14 283.95 276.04 284.72 275.97 285.11 275.9 285.46 275.83 285.82 275.72 286.17 275.62 286.56 275.51 286.91 275.37 287.26 275.23 287.65 275.01 288.01 274.84 288.39 274.66 288.82 274.42 289.24 274.63 289.38 274.84 289.52 275.01 289.7 275.16 289.84 275.33 290.05 275.47 290.19 275.58 290.37 275.69 290.55 275.79 290.73 275.86 290.94 275.93 291.11 275.97 291.29 276 291.47 276.04 291.68 276.04 291.85 276.04 292.03 275.97 292.21 275.97 292.42 275.9 292.6 275.83 292.77 275.72 292.95 275.65 293.13 275.51 293.34 275.4 293.51 275.23 293.65 275.09 293.83 274.91 294.01 274.7 294.15 274.52 294.32 274.27 294.47 274.06 294.61 273.78 294.75 274.03 295.21 274.2 295.7 274.38 296.16 274.52 296.62 274.63 297.08 274.73 297.54 274.8 298 274.87 298.42 274.91 298.88 274.91 299.3 274.91 299.73 274.87 300.15 274.84 300.57 274.73 300.96 274.66 301.39 274.52 301.77 274.38 302.16 274.2 302.59 274.03 302.94 273.81 303.33 273.57 303.68 273.32 304.03 273.04 304.39 272.76 304.74 272.44 305.06 272.08 305.38 271.73 305.69 271.34 306.01 270.92 306.26 270.46 306.57 270.04 306.82 269.54 307.11 269.54 307.42 269.54 307.74 269.51 308.02 269.47 308.31 269.4 308.55 269.33 308.8 269.23 309.05 269.15 309.29 269.05 309.5 268.94 309.68 268.8 309.86 268.66 310.04 268.52 310.18 268.38 310.32 268.2 310.42 268.06 310.56 267.88 310.63 267.71 310.71 267.5 310.78 267.28 310.81 267.07 310.81 266.86 310.81 266.65 310.81 266.44 310.78 266.19 310.74 265.94 310.67 265.73 310.56 265.48 310.46 265.24 310.32 264.99 310.18 264.71 310 264.46 309.82 264.25 309.47 264.14 309.12 264.04 308.8 263.96 308.48 263.93 307.88 263.89 307.21 263.47 307.03 263.01 306.82 262.66 306.61 262.27 306.4 261.95 306.19 261.6 305.98 261.32 305.76 261 305.52 260.75 305.27 260.47 305.02 260.22 304.74 259.98 304.49 259.76 304.18 259.55 303.86 259.31 303.54 259.09 303.19 258.81 303.12 258.53 302.98 257.96 303.12 257.47 303.19 256.94 303.29 256.45 303.33 255.99 303.36 255.53 303.33 255.1 303.29 254.68 303.26 254.26 303.19 253.8 303.12 253.38 302.98 252.95 302.87 252.53 302.69 252.07 302.52 251.61 302.3 251.12 302.09 250.69 302.62 250.27 303.12 249.84 303.54 249.38 303.93 248.89 304.32 248.4 304.63 247.9 304.95 247.37 305.2 246.84 305.38 246.31 305.59 245.78 305.69 245.22 305.8 244.66 305.87 244.13 305.9 243.56 305.87 243.03 305.83 242.5 305.73 242.01 305.59 241.48 305.45 240.98 305.23 240.49 305.02 240.03 304.7 239.61 304.42 239.18 304.07 238.79 303.68 238.41 303.22 238.09 302.8 237.77 302.3 237.49 301.74 237.24 301.17 237.03 300.57 236.89 299.94 235.76 299.76 234.74 299.59 234.24 299.48 233.78 299.37 233.32 299.23 232.9 299.06 232.72 298.99 232.51 298.88 232.33 298.74 232.12 298.63 231.98 298.49 231.81 298.31 231.63 298.17 231.52 297.96 231.35 297.79 231.21 297.57 231.1 297.33 230.99 297.04 230.89 296.8 230.75 296.51 230.68 296.2 230.6 295.84 228.77 295.74 227.11 295.63 226.33 295.6 225.63 295.49 225.24 295.42 224.92 295.35 224.6 295.28 224.25 295.17 223.97 295.07 223.65 294.93 223.37 294.78 223.09 294.64 222.8 294.43 222.56 294.22 222.27 294.01 222.03 293.76 221.78 293.44 221.53 293.13 221.35 292.81 221.11 292.45 220.9 292.03 220.72 291.61 220.51 291.11 220.33 290.62 219.48 290.51 218.67 290.41 217.93 290.3 217.22 290.12 216.91 290.05 216.59 289.91 216.27 289.84 215.99 289.74 215.71 289.6 215.46 289.45 215.18 289.31 214.93 289.17 214.72 289 214.47 288.85 214.26 288.64 214.01 288.46 213.84 288.22 213.62 288.01 213.41 287.76 213.24 287.51 212.85 286.98 212.49 286.38 212.14 285.75 211.79 285.01 210.84 284.97 209.92 284.9 209.07 284.79 208.33 284.69 207.94 284.62 207.59 284.51 207.27 284.4 206.95 284.33 206.63 284.19 206.35 284.09 206.07 283.95 205.79 283.81 205.5 283.63 205.26 283.45 205.01 283.24 204.8 283.03 204.55 282.82 204.34 282.61 204.13 282.32 203.92 282.04 203.7 281.76 203.53 281.44 203.35 281.12 203.14 280.81 202.79 280.06 202.47 279.25 202.5 279.04 202.57 278.86 205.33 277.84 208.12 276.85 210.91 275.83 213.66 274.84 216.45 273.81 219.24 272.83 221.99 271.8 224.78 270.78 227.57 269.79 230.32 268.77 233.11 267.74 235.87 266.75 238.65 265.73 241.44 264.71 244.2 263.68 246.99 262.69 247.3 260.15 247.62 257.79 247.94 255.53 248.22 253.27 248.54 251.01 248.78 248.68 249 246.24 249.21 243.67 247.8 241.76 246.46 239.85 245.11 237.88 243.81 235.9 242.54 233.89 241.3 231.84 240.1 229.76 238.94 227.67 237.84 225.52 236.75 223.37 235.69 221.21 234.7 219.03 233.71 216.8 232.79 214.58 231.91 212.32 231.06 210.06 230.29 207.76 229.54 205.47 228.84 203.14 228.17 200.84 227.57 198.48 227 196.15 226.47 193.82 226.01 191.45 225.63 189.09 225.24 186.72 224.96 184.36 224.71 181.99 224.5 179.63 224.36 177.23 224.25 174.86 224.25 172.5 224.22 169.28 224.39 166.04 224.67 162.82 225.13 159.65 225.77 156.47 226.51 153.33 227.39 150.22 228.45 147.19 229.62 144.18 230.89 141.25 232.3 138.36 233.85 135.57 235.51 132.85 237.24 130.2 239.11 127.63 241.09 125.19 243.17 122.83 245.33 120.57 247.59 118.45 249.91 116.44 252.35 114.53 254.82 112.77 257.4 111.18 260.05 109.69 262.73 108.39 265.48 107.22 268.31 106.23 271.17 105.39 274.1 104.75 277.03 104.29 280.03 104.01 283.06 103.94 286.06 104.08 289.03 104.4 291.96 104.93 294.82 105.67 297.68 106.59 300.43 107.68 303.15 108.99 305.83 110.44 308.45 112.02 310.95 113.75 313.42 115.66 315.82 117.67 318.15 119.79 320.38 122.05 322.53 124.42 324.58 126.89 326.56 129.43 328.43 132.07 330.19 134.79 331.89 137.55 333.44 140.37 334.89 143.27 336.23 146.2 337.46 149.13 338.56 152.13 339.55 155.13 340.39 158.13 341.1 161.13 341.7 164.13 342.16 167.09 342.44 170.06 342.58 172.99 342.55 175.43 342.41 177.9 342.23 180.37 341.98 182.81 341.7 185.28 341.31 187.71 340.93 190.15 340.43 192.58 339.9 195.02 339.34 197.42 338.7 199.78 338.03 202.19 337.29 204.52 336.51 206.88 335.7 209.18 334.82 211.51 333.9 213.76 332.95 216.02 331.96 218.25 330.93 220.44 329.84 222.59 328.71 224.74 327.58 226.86 326.38 228.91 325.14 230.96 323.87 232.97 322.6 234.91 321.26 236.85 319.92 238.72 318.54 240.56 317.13 242.36 315.68 244.09 315.4 244.44 315.26 244.69 315.19 244.83 315.12 244.97 315.12 244.97"/><polygon class="cls-4" points="315.05 249.95 315.12 249.95 315.19 249.95 315.19 250.55 315.19 251.15 315.19 251.75 315.19 252.35 315.19 252.99 315.19 253.59 315.19 254.22 315.19 254.82 315.19 254.22 315.15 253.59 315.12 252.99 315.12 252.35 315.08 251.75 315.05 251.15 315.05 250.55 315.05 249.95 315.05 249.95"/><polygon class="cls-4" points="315.05 249.95 315.05 249.31 315.05 248.68 315.05 248.08 315.08 247.44 315.08 246.84 315.12 246.21 315.12 245.57 315.12 244.97 315.12 245.57 315.12 246.21 315.15 246.84 315.15 247.44 315.19 248.08 315.19 248.68 315.19 249.31 315.19 249.95 315.12 249.95 315.05 249.95 315.05 249.95"/><polygon class="cls-4" points="284.12 288.01 284.51 288.01 284.9 288.08 285.25 288.18 285.61 288.29 285.92 288.46 286.21 288.64 286.52 288.85 286.77 289.1 287.02 289.35 287.23 289.67 287.41 289.95 287.58 290.3 287.69 290.62 287.8 290.97 287.87 291.36 287.87 291.75 287.87 292.14 287.8 292.49 287.69 292.84 287.58 293.2 287.41 293.51 287.23 293.83 287.02 294.11 286.77 294.4 286.52 294.64 286.21 294.86 285.92 295.03 285.61 295.17 285.25 295.31 284.9 295.42 284.51 295.45 284.12 295.49 283.74 295.45 283.38 295.42 283.03 295.31 282.68 295.17 282.36 295.03 282.04 294.86 281.76 294.64 281.48 294.4 281.26 294.11 281.02 293.83 280.84 293.51 280.7 293.2 280.56 292.84 280.45 292.49 280.42 292.14 280.38 291.75 280.42 291.36 280.45 290.97 280.56 290.62 280.7 290.3 280.84 289.95 281.02 289.67 281.26 289.35 281.48 289.1 281.76 288.85 282.04 288.64 282.36 288.46 282.68 288.29 283.03 288.18 283.38 288.08 283.74 288.01 284.12 288.01 284.12 288.01"/><polygon class="cls-5" points="284.12 288.01 284.51 288.01 284.9 288.08 285.25 288.18 285.61 288.29 285.92 288.46 286.21 288.64 286.52 288.85 286.77 289.1 287.02 289.35 287.23 289.67 287.41 289.95 287.58 290.3 287.69 290.62 287.8 290.97 287.87 291.36 287.87 291.75 287.87 292.14 287.8 292.49 287.69 292.84 287.58 293.2 287.41 293.51 287.23 293.83 287.02 294.11 286.77 294.4 286.52 294.64 286.21 294.86 285.92 295.03 285.61 295.17 285.25 295.31 284.9 295.42 284.51 295.45 284.12 295.49 283.74 295.45 283.38 295.42 283.03 295.31 282.68 295.17 282.36 295.03 282.04 294.86 281.76 294.64 281.48 294.4 281.26 294.11 281.02 293.83 280.84 293.51 280.7 293.2 280.56 292.84 280.45 292.49 280.42 292.14 280.38 291.75 280.42 291.36 280.45 290.97 280.56 290.62 280.7 290.3 280.84 289.95 281.02 289.67 281.26 289.35 281.48 289.1 281.76 288.85 282.04 288.64 282.36 288.46 282.68 288.29 283.03 288.18 283.38 288.08 283.74 288.01 284.12 288.01 284.12 288.01"/><polygon class="cls-4" points="283.35 295.31 283.63 295.31 283.88 295.38 284.16 295.42 284.4 295.53 284.62 295.63 284.86 295.77 285.08 295.91 285.25 296.09 285.43 296.3 285.57 296.51 285.71 296.73 285.82 296.97 285.92 297.22 285.99 297.47 286.03 297.75 286.03 298 286.03 298.28 285.99 298.56 285.92 298.81 285.82 299.06 285.71 299.3 285.57 299.51 285.43 299.73 285.25 299.9 285.08 300.08 284.86 300.26 284.62 300.4 284.4 300.5 284.16 300.57 283.88 300.64 283.63 300.68 283.35 300.71 283.06 300.68 282.82 300.64 282.53 300.57 282.29 300.5 282.08 300.4 281.83 300.26 281.65 300.08 281.44 299.9 281.26 299.73 281.12 299.51 280.98 299.3 280.88 299.06 280.77 298.81 280.7 298.56 280.66 298.28 280.66 298 280.66 297.75 280.7 297.47 280.77 297.22 280.88 296.97 280.98 296.73 281.12 296.51 281.26 296.3 281.44 296.09 281.65 295.91 281.83 295.77 282.08 295.63 282.29 295.53 282.53 295.42 282.82 295.38 283.06 295.31 283.35 295.31 283.35 295.31"/><polygon class="cls-5" points="283.35 295.31 283.63 295.31 283.88 295.38 284.16 295.42 284.4 295.53 284.62 295.63 284.86 295.77 285.08 295.91 285.25 296.09 285.43 296.3 285.57 296.51 285.71 296.73 285.82 296.97 285.92 297.22 285.99 297.47 286.03 297.75 286.03 298 286.03 298.28 285.99 298.56 285.92 298.81 285.82 299.06 285.71 299.3 285.57 299.51 285.43 299.73 285.25 299.9 285.08 300.08 284.86 300.26 284.62 300.4 284.4 300.5 284.16 300.57 283.88 300.64 283.63 300.68 283.35 300.71 283.06 300.68 282.82 300.64 282.53 300.57 282.29 300.5 282.08 300.4 281.83 300.26 281.65 300.08 281.44 299.9 281.26 299.73 281.12 299.51 280.98 299.3 280.88 299.06 280.77 298.81 280.7 298.56 280.66 298.28 280.66 298 280.66 297.75 280.7 297.47 280.77 297.22 280.88 296.97 280.98 296.73 281.12 296.51 281.26 296.3 281.44 296.09 281.65 295.91 281.83 295.77 282.08 295.63 282.29 295.53 282.53 295.42 282.82 295.38 283.06 295.31 283.35 295.31 283.35 295.31"/><polygon class="cls-4" points="279 305.69 279.29 305.69 279.53 305.73 279.82 305.8 280.06 305.9 280.27 306.01 280.52 306.15 280.7 306.29 280.91 306.47 281.09 306.65 281.23 306.86 281.37 307.11 281.48 307.32 281.58 307.56 281.65 307.85 281.69 308.09 281.69 308.38 281.69 308.66 281.65 308.9 281.58 309.19 281.48 309.44 281.37 309.65 281.23 309.89 281.09 310.07 280.91 310.28 280.7 310.46 280.52 310.6 280.27 310.74 280.06 310.85 279.82 310.95 279.53 311.02 279.29 311.06 279 311.06 278.72 311.06 278.48 311.02 278.19 310.95 277.94 310.85 277.7 310.74 277.49 310.6 277.27 310.46 277.1 310.28 276.92 310.07 276.78 309.89 276.64 309.65 276.53 309.44 276.43 309.19 276.36 308.9 276.32 308.66 276.32 308.38 276.32 308.09 276.36 307.85 276.43 307.56 276.53 307.32 276.64 307.11 276.78 306.86 276.92 306.65 277.1 306.47 277.27 306.29 277.49 306.15 277.7 306.01 277.94 305.9 278.19 305.8 278.48 305.73 278.72 305.69 279 305.69 279 305.69"/><polygon class="cls-5" points="279 305.69 279.29 305.69 279.53 305.73 279.82 305.8 280.06 305.9 280.27 306.01 280.52 306.15 280.7 306.29 280.91 306.47 281.09 306.65 281.23 306.86 281.37 307.11 281.48 307.32 281.58 307.56 281.65 307.85 281.69 308.09 281.69 308.38 281.69 308.66 281.65 308.9 281.58 309.19 281.48 309.44 281.37 309.65 281.23 309.89 281.09 310.07 280.91 310.28 280.7 310.46 280.52 310.6 280.27 310.74 280.06 310.85 279.82 310.95 279.53 311.02 279.29 311.06 279 311.06 278.72 311.06 278.48 311.02 278.19 310.95 277.94 310.85 277.7 310.74 277.49 310.6 277.27 310.46 277.1 310.28 276.92 310.07 276.78 309.89 276.64 309.65 276.53 309.44 276.43 309.19 276.36 308.9 276.32 308.66 276.32 308.38 276.32 308.09 276.36 307.85 276.43 307.56 276.53 307.32 276.64 307.11 276.78 306.86 276.92 306.65 277.1 306.47 277.27 306.29 277.49 306.15 277.7 306.01 277.94 305.9 278.19 305.8 278.48 305.73 278.72 305.69 279 305.69 279 305.69"/><polygon class="cls-4" points="254.04 348.16 254.33 348.2 254.65 348.23 254.93 348.3 255.18 348.41 255.46 348.51 255.71 348.66 255.92 348.83 256.13 349.04 256.31 349.26 256.48 349.47 256.66 349.71 256.76 349.96 256.87 350.25 256.94 350.53 256.98 350.81 257.01 351.13 256.98 351.44 256.94 351.73 256.87 352.01 256.76 352.29 256.66 352.54 256.48 352.79 256.31 353 256.13 353.21 255.92 353.42 255.71 353.6 255.46 353.74 255.18 353.85 254.93 353.95 254.65 354.02 254.33 354.06 254.04 354.09 253.73 354.06 253.44 354.02 253.16 353.95 252.88 353.85 252.63 353.74 252.39 353.6 252.14 353.42 251.93 353.21 251.75 353 251.57 352.79 251.43 352.54 251.33 352.29 251.22 352.01 251.15 351.73 251.08 351.44 251.08 351.13 251.08 350.81 251.15 350.53 251.22 350.25 251.33 349.96 251.43 349.71 251.57 349.47 251.75 349.26 251.93 349.04 252.14 348.83 252.39 348.66 252.63 348.51 252.88 348.41 253.16 348.3 253.44 348.23 253.73 348.2 254.04 348.16 254.04 348.16"/><polygon class="cls-5" points="254.04 348.16 254.33 348.2 254.65 348.23 254.93 348.3 255.18 348.41 255.46 348.51 255.71 348.66 255.92 348.83 256.13 349.04 256.31 349.26 256.48 349.47 256.66 349.71 256.76 349.96 256.87 350.25 256.94 350.53 256.98 350.81 257.01 351.13 256.98 351.44 256.94 351.73 256.87 352.01 256.76 352.29 256.66 352.54 256.48 352.79 256.31 353 256.13 353.21 255.92 353.42 255.71 353.6 255.46 353.74 255.18 353.85 254.93 353.95 254.65 354.02 254.33 354.06 254.04 354.09 253.73 354.06 253.44 354.02 253.16 353.95 252.88 353.85 252.63 353.74 252.39 353.6 252.14 353.42 251.93 353.21 251.75 353 251.57 352.79 251.43 352.54 251.33 352.29 251.22 352.01 251.15 351.73 251.08 351.44 251.08 351.13 251.08 350.81 251.15 350.53 251.22 350.25 251.33 349.96 251.43 349.71 251.57 349.47 251.75 349.26 251.93 349.04 252.14 348.83 252.39 348.66 252.63 348.51 252.88 348.41 253.16 348.3 253.44 348.23 253.73 348.2 254.04 348.16 254.04 348.16"/><polygon class="cls-4" points="298.38 315.08 298.7 315.08 298.99 315.15 299.27 315.23 299.55 315.3 299.8 315.44 300.04 315.58 300.29 315.75 300.5 315.93 300.68 316.14 300.86 316.39 301 316.64 301.14 316.88 301.21 317.17 301.28 317.45 301.35 317.73 301.35 318.05 301.35 318.33 301.28 318.65 301.21 318.93 301.14 319.18 301 319.46 300.86 319.71 300.68 319.92 300.5 320.13 300.29 320.31 300.04 320.49 299.8 320.63 299.55 320.77 299.27 320.87 298.99 320.94 298.7 320.98 298.38 321.01 298.1 320.98 297.79 320.94 297.5 320.87 297.26 320.77 296.97 320.63 296.73 320.49 296.51 320.31 296.3 320.13 296.13 319.92 295.95 319.71 295.81 319.46 295.67 319.18 295.56 318.93 295.49 318.65 295.45 318.33 295.42 318.05 295.45 317.73 295.49 317.45 295.56 317.17 295.67 316.88 295.81 316.64 295.95 316.39 296.13 316.14 296.3 315.93 296.51 315.75 296.73 315.58 296.97 315.44 297.26 315.3 297.5 315.23 297.79 315.15 298.1 315.08 298.38 315.08 298.38 315.08"/><polygon class="cls-5" points="298.38 315.08 298.7 315.08 298.99 315.15 299.27 315.23 299.55 315.3 299.8 315.44 300.04 315.58 300.29 315.75 300.5 315.93 300.68 316.14 300.86 316.39 301 316.64 301.14 316.88 301.21 317.17 301.28 317.45 301.35 317.73 301.35 318.05 301.35 318.33 301.28 318.65 301.21 318.93 301.14 319.18 301 319.46 300.86 319.71 300.68 319.92 300.5 320.13 300.29 320.31 300.04 320.49 299.8 320.63 299.55 320.77 299.27 320.87 298.99 320.94 298.7 320.98 298.38 321.01 298.1 320.98 297.79 320.94 297.5 320.87 297.26 320.77 296.97 320.63 296.73 320.49 296.51 320.31 296.3 320.13 296.13 319.92 295.95 319.71 295.81 319.46 295.67 319.18 295.56 318.93 295.49 318.65 295.45 318.33 295.42 318.05 295.45 317.73 295.49 317.45 295.56 317.17 295.67 316.88 295.81 316.64 295.95 316.39 296.13 316.14 296.3 315.93 296.51 315.75 296.73 315.58 296.97 315.44 297.26 315.3 297.5 315.23 297.79 315.15 298.1 315.08 298.38 315.08 298.38 315.08"/><polygon class="cls-4" points="303.26 316.74 303.68 316.74 304.1 316.81 304.53 316.92 304.88 317.06 305.27 317.24 305.59 317.45 305.94 317.7 306.22 317.94 306.5 318.26 306.72 318.58 306.93 318.93 307.11 319.28 307.25 319.67 307.35 320.06 307.42 320.49 307.46 320.91 307.42 321.33 307.35 321.75 307.25 322.14 307.11 322.53 306.93 322.92 306.72 323.24 306.5 323.56 306.22 323.87 305.94 324.12 305.59 324.37 305.27 324.58 304.88 324.76 304.53 324.9 304.1 325 303.68 325.07 303.26 325.07 302.83 325.07 302.41 325 302.02 324.9 301.63 324.76 301.28 324.58 300.93 324.37 300.61 324.12 300.33 323.87 300.04 323.56 299.8 323.24 299.59 322.92 299.41 322.53 299.27 322.14 299.16 321.75 299.13 321.33 299.09 320.91 299.13 320.49 299.16 320.06 299.27 319.67 299.41 319.28 299.59 318.93 299.8 318.58 300.04 318.26 300.33 317.94 300.61 317.7 300.93 317.45 301.28 317.24 301.63 317.06 302.02 316.92 302.41 316.81 302.83 316.74 303.26 316.74 303.26 316.74"/><polygon class="cls-5" points="303.26 316.74 303.68 316.74 304.1 316.81 304.53 316.92 304.88 317.06 305.27 317.24 305.59 317.45 305.94 317.7 306.22 317.94 306.5 318.26 306.72 318.58 306.93 318.93 307.11 319.28 307.25 319.67 307.35 320.06 307.42 320.49 307.46 320.91 307.42 321.33 307.35 321.75 307.25 322.14 307.11 322.53 306.93 322.92 306.72 323.24 306.5 323.56 306.22 323.87 305.94 324.12 305.59 324.37 305.27 324.58 304.88 324.76 304.53 324.9 304.1 325 303.68 325.07 303.26 325.07 302.83 325.07 302.41 325 302.02 324.9 301.63 324.76 301.28 324.58 300.93 324.37 300.61 324.12 300.33 323.87 300.04 323.56 299.8 323.24 299.59 322.92 299.41 322.53 299.27 322.14 299.16 321.75 299.13 321.33 299.09 320.91 299.13 320.49 299.16 320.06 299.27 319.67 299.41 319.28 299.59 318.93 299.8 318.58 300.04 318.26 300.33 317.94 300.61 317.7 300.93 317.45 301.28 317.24 301.63 317.06 302.02 316.92 302.41 316.81 302.83 316.74 303.26 316.74 303.26 316.74"/><polygon class="cls-4" points="253.16 308.13 253.55 308.13 253.97 308.2 254.33 308.31 254.68 308.41 255.03 308.59 255.35 308.76 255.67 309.01 255.95 309.26 256.2 309.54 256.41 309.82 256.62 310.18 256.76 310.49 256.9 310.88 257.01 311.24 257.08 311.62 257.08 312.05 257.08 312.44 257.01 312.82 256.9 313.21 256.76 313.56 256.62 313.88 256.41 314.24 256.2 314.52 255.95 314.8 255.67 315.05 255.35 315.3 255.03 315.47 254.68 315.65 254.33 315.79 253.97 315.86 253.55 315.93 253.16 315.97 252.77 315.93 252.39 315.86 252 315.79 251.65 315.65 251.29 315.47 250.97 315.3 250.69 315.05 250.41 314.8 250.13 314.52 249.91 314.24 249.74 313.88 249.56 313.56 249.42 313.21 249.31 312.82 249.28 312.44 249.24 312.05 249.28 311.62 249.31 311.24 249.42 310.88 249.56 310.49 249.74 310.18 249.91 309.82 250.13 309.54 250.41 309.26 250.69 309.01 250.97 308.76 251.29 308.59 251.65 308.41 252 308.31 252.39 308.2 252.77 308.13 253.16 308.13 253.16 308.13"/><polygon class="cls-5" points="253.16 308.13 253.55 308.13 253.97 308.2 254.33 308.31 254.68 308.41 255.03 308.59 255.35 308.76 255.67 309.01 255.95 309.26 256.2 309.54 256.41 309.82 256.62 310.18 256.76 310.49 256.9 310.88 257.01 311.24 257.08 311.62 257.08 312.05 257.08 312.44 257.01 312.82 256.9 313.21 256.76 313.56 256.62 313.88 256.41 314.24 256.2 314.52 255.95 314.8 255.67 315.05 255.35 315.3 255.03 315.47 254.68 315.65 254.33 315.79 253.97 315.86 253.55 315.93 253.16 315.97 252.77 315.93 252.39 315.86 252 315.79 251.65 315.65 251.29 315.47 250.97 315.3 250.69 315.05 250.41 314.8 250.13 314.52 249.91 314.24 249.74 313.88 249.56 313.56 249.42 313.21 249.31 312.82 249.28 312.44 249.24 312.05 249.28 311.62 249.31 311.24 249.42 310.88 249.56 310.49 249.74 310.18 249.91 309.82 250.13 309.54 250.41 309.26 250.69 309.01 250.97 308.76 251.29 308.59 251.65 308.41 252 308.31 252.39 308.2 252.77 308.13 253.16 308.13 253.16 308.13"/><polygon class="cls-4" points="254.82 322.32 255.1 322.32 255.35 322.36 255.63 322.43 255.88 322.53 256.09 322.64 256.34 322.78 256.55 322.92 256.73 323.1 256.9 323.27 257.05 323.49 257.19 323.73 257.29 323.94 257.4 324.19 257.47 324.47 257.5 324.72 257.5 325 257.5 325.29 257.47 325.53 257.4 325.81 257.29 326.06 257.19 326.27 257.05 326.52 256.9 326.73 256.73 326.91 256.55 327.09 256.34 327.23 256.09 327.37 255.88 327.47 255.63 327.58 255.35 327.65 255.1 327.69 254.82 327.69 254.54 327.69 254.29 327.65 254.01 327.58 253.76 327.47 253.55 327.37 253.3 327.23 253.09 327.09 252.92 326.91 252.74 326.73 252.6 326.52 252.46 326.27 252.35 326.06 252.25 325.81 252.17 325.53 252.14 325.29 252.14 325 252.14 324.72 252.17 324.47 252.25 324.19 252.35 323.94 252.46 323.73 252.6 323.49 252.74 323.27 252.92 323.1 253.09 322.92 253.3 322.78 253.55 322.64 253.76 322.53 254.01 322.43 254.29 322.36 254.54 322.32 254.82 322.32 254.82 322.32"/><polygon class="cls-5" points="254.82 322.32 255.1 322.32 255.35 322.36 255.63 322.43 255.88 322.53 256.09 322.64 256.34 322.78 256.55 322.92 256.73 323.1 256.9 323.27 257.05 323.49 257.19 323.73 257.29 323.94 257.4 324.19 257.47 324.47 257.5 324.72 257.5 325 257.5 325.29 257.47 325.53 257.4 325.81 257.29 326.06 257.19 326.27 257.05 326.52 256.9 326.73 256.73 326.91 256.55 327.09 256.34 327.23 256.09 327.37 255.88 327.47 255.63 327.58 255.35 327.65 255.1 327.69 254.82 327.69 254.54 327.69 254.29 327.65 254.01 327.58 253.76 327.47 253.55 327.37 253.3 327.23 253.09 327.09 252.92 326.91 252.74 326.73 252.6 326.52 252.46 326.27 252.35 326.06 252.25 325.81 252.17 325.53 252.14 325.29 252.14 325 252.14 324.72 252.17 324.47 252.25 324.19 252.35 323.94 252.46 323.73 252.6 323.49 252.74 323.27 252.92 323.1 253.09 322.92 253.3 322.78 253.55 322.64 253.76 322.53 254.01 322.43 254.29 322.36 254.54 322.32 254.82 322.32 254.82 322.32"/><polygon class="cls-4" points="260.47 323.34 260.86 323.38 261.25 323.42 261.63 323.52 261.99 323.66 262.34 323.84 262.66 324.01 262.98 324.26 263.26 324.51 263.51 324.79 263.72 325.07 263.93 325.39 264.07 325.75 264.21 326.1 264.32 326.49 264.39 326.87 264.39 327.26 264.39 327.69 264.32 328.07 264.21 328.43 264.07 328.78 263.93 329.13 263.72 329.45 263.51 329.77 263.26 330.05 262.98 330.3 262.66 330.51 262.34 330.72 261.99 330.86 261.63 331 261.25 331.11 260.86 331.18 260.47 331.18 260.08 331.18 259.69 331.11 259.31 331 258.95 330.86 258.6 330.72 258.28 330.51 258 330.3 257.72 330.05 257.43 329.77 257.22 329.45 257.05 329.13 256.87 328.78 256.73 328.43 256.62 328.07 256.59 327.69 256.55 327.26 256.59 326.87 256.62 326.49 256.73 326.1 256.87 325.75 257.05 325.39 257.22 325.07 257.43 324.79 257.72 324.51 258 324.26 258.28 324.01 258.6 323.84 258.95 323.66 259.31 323.52 259.69 323.42 260.08 323.38 260.47 323.34 260.47 323.34"/><polygon class="cls-5" points="260.47 323.34 260.86 323.38 261.25 323.42 261.63 323.52 261.99 323.66 262.34 323.84 262.66 324.01 262.98 324.26 263.26 324.51 263.51 324.79 263.72 325.07 263.93 325.39 264.07 325.75 264.21 326.1 264.32 326.49 264.39 326.87 264.39 327.26 264.39 327.69 264.32 328.07 264.21 328.43 264.07 328.78 263.93 329.13 263.72 329.45 263.51 329.77 263.26 330.05 262.98 330.3 262.66 330.51 262.34 330.72 261.99 330.86 261.63 331 261.25 331.11 260.86 331.18 260.47 331.18 260.08 331.18 259.69 331.11 259.31 331 258.95 330.86 258.6 330.72 258.28 330.51 258 330.3 257.72 330.05 257.43 329.77 257.22 329.45 257.05 329.13 256.87 328.78 256.73 328.43 256.62 328.07 256.59 327.69 256.55 327.26 256.59 326.87 256.62 326.49 256.73 326.1 256.87 325.75 257.05 325.39 257.22 325.07 257.43 324.79 257.72 324.51 258 324.26 258.28 324.01 258.6 323.84 258.95 323.66 259.31 323.52 259.69 323.42 260.08 323.38 260.47 323.34 260.47 323.34"/><polygon class="cls-4" points="309.61 342.41 310.04 342.44 310.42 342.51 310.78 342.58 311.13 342.73 311.48 342.9 311.8 343.08 312.12 343.32 312.4 343.57 312.65 343.86 312.86 344.14 313.07 344.45 313.21 344.81 313.35 345.16 313.46 345.55 313.53 345.94 313.53 346.33 313.53 346.75 313.46 347.14 313.35 347.49 313.21 347.88 313.07 348.2 312.86 348.51 312.65 348.83 312.4 349.12 312.12 349.36 311.8 349.57 311.48 349.79 311.13 349.96 310.78 350.07 310.42 350.17 310.04 350.25 309.61 350.25 309.22 350.25 308.83 350.17 308.45 350.07 308.09 349.96 307.74 349.79 307.42 349.57 307.14 349.36 306.86 349.12 306.61 348.83 306.36 348.51 306.19 348.2 306.01 347.88 305.87 347.49 305.76 347.14 305.73 346.75 305.69 346.33 305.73 345.94 305.76 345.55 305.87 345.16 306.01 344.81 306.19 344.45 306.36 344.14 306.61 343.86 306.86 343.57 307.14 343.32 307.42 343.08 307.74 342.9 308.09 342.73 308.45 342.58 308.83 342.51 309.22 342.44 309.61 342.41 309.61 342.41"/><polygon class="cls-5" points="309.61 342.41 310.04 342.44 310.42 342.51 310.78 342.58 311.13 342.73 311.48 342.9 311.8 343.08 312.12 343.32 312.4 343.57 312.65 343.86 312.86 344.14 313.07 344.45 313.21 344.81 313.35 345.16 313.46 345.55 313.53 345.94 313.53 346.33 313.53 346.75 313.46 347.14 313.35 347.49 313.21 347.88 313.07 348.2 312.86 348.51 312.65 348.83 312.4 349.12 312.12 349.36 311.8 349.57 311.48 349.79 311.13 349.96 310.78 350.07 310.42 350.17 310.04 350.25 309.61 350.25 309.22 350.25 308.83 350.17 308.45 350.07 308.09 349.96 307.74 349.79 307.42 349.57 307.14 349.36 306.86 349.12 306.61 348.83 306.36 348.51 306.19 348.2 306.01 347.88 305.87 347.49 305.76 347.14 305.73 346.75 305.69 346.33 305.73 345.94 305.76 345.55 305.87 345.16 306.01 344.81 306.19 344.45 306.36 344.14 306.61 343.86 306.86 343.57 307.14 343.32 307.42 343.08 307.74 342.9 308.09 342.73 308.45 342.58 308.83 342.51 309.22 342.44 309.61 342.41 309.61 342.41"/><polygon class="cls-4" points="306.05 348.44 306.33 348.44 306.61 348.48 306.86 348.55 307.11 348.66 307.35 348.76 307.56 348.9 307.78 349.04 307.95 349.22 308.13 349.4 308.27 349.61 308.41 349.86 308.55 350.07 308.62 350.31 308.69 350.6 308.73 350.85 308.76 351.13 308.73 351.41 308.69 351.66 308.62 351.94 308.55 352.19 308.41 352.4 308.27 352.64 308.13 352.86 307.95 353.03 307.78 353.21 307.56 353.35 307.35 353.49 307.11 353.6 306.86 353.7 306.61 353.77 306.33 353.81 306.05 353.81 305.76 353.81 305.52 353.77 305.23 353.7 304.99 353.6 304.77 353.49 304.53 353.35 304.35 353.21 304.14 353.03 303.96 352.86 303.82 352.64 303.68 352.4 303.57 352.19 303.47 351.94 303.4 351.66 303.36 351.41 303.36 351.13 303.36 350.85 303.4 350.6 303.47 350.31 303.57 350.07 303.68 349.86 303.82 349.61 303.96 349.4 304.14 349.22 304.35 349.04 304.53 348.9 304.77 348.76 304.99 348.66 305.23 348.55 305.52 348.48 305.76 348.44 306.05 348.44 306.05 348.44"/><polygon class="cls-5" points="306.05 348.44 306.33 348.44 306.61 348.48 306.86 348.55 307.11 348.66 307.35 348.76 307.56 348.9 307.78 349.04 307.95 349.22 308.13 349.4 308.27 349.61 308.41 349.86 308.55 350.07 308.62 350.31 308.69 350.6 308.73 350.85 308.76 351.13 308.73 351.41 308.69 351.66 308.62 351.94 308.55 352.19 308.41 352.4 308.27 352.64 308.13 352.86 307.95 353.03 307.78 353.21 307.56 353.35 307.35 353.49 307.11 353.6 306.86 353.7 306.61 353.77 306.33 353.81 306.05 353.81 305.76 353.81 305.52 353.77 305.23 353.7 304.99 353.6 304.77 353.49 304.53 353.35 304.35 353.21 304.14 353.03 303.96 352.86 303.82 352.64 303.68 352.4 303.57 352.19 303.47 351.94 303.4 351.66 303.36 351.41 303.36 351.13 303.36 350.85 303.4 350.6 303.47 350.31 303.57 350.07 303.68 349.86 303.82 349.61 303.96 349.4 304.14 349.22 304.35 349.04 304.53 348.9 304.77 348.76 304.99 348.66 305.23 348.55 305.52 348.48 305.76 348.44 306.05 348.44 306.05 348.44"/><polygon class="cls-4" points="276.92 347.46 277.31 347.49 277.7 347.56 278.09 347.63 278.44 347.77 278.79 347.95 279.11 348.13 279.39 348.37 279.68 348.62 279.92 348.9 280.17 349.19 280.35 349.54 280.52 349.86 280.66 350.21 280.73 350.6 280.81 350.99 280.84 351.37 280.81 351.8 280.73 352.19 280.66 352.54 280.52 352.93 280.35 353.25 280.17 353.56 279.92 353.88 279.68 354.16 279.39 354.41 279.11 354.62 278.79 354.83 278.44 355.01 278.09 355.12 277.7 355.22 277.31 355.29 276.92 355.29 276.5 355.29 276.11 355.22 275.76 355.12 275.4 355.01 275.05 354.83 274.73 354.62 274.42 354.41 274.13 354.16 273.88 353.88 273.67 353.56 273.46 353.25 273.29 352.93 273.18 352.54 273.07 352.19 273 351.8 273 351.37 273 350.99 273.07 350.6 273.18 350.21 273.29 349.86 273.46 349.54 273.67 349.19 273.88 348.9 274.13 348.62 274.42 348.37 274.73 348.13 275.05 347.95 275.4 347.77 275.76 347.63 276.11 347.56 276.5 347.49 276.92 347.46 276.92 347.46"/><polygon class="cls-5" points="276.92 347.46 277.31 347.49 277.7 347.56 278.09 347.63 278.44 347.77 278.79 347.95 279.11 348.13 279.39 348.37 279.68 348.62 279.92 348.9 280.17 349.19 280.35 349.54 280.52 349.86 280.66 350.21 280.73 350.6 280.81 350.99 280.84 351.37 280.81 351.8 280.73 352.19 280.66 352.54 280.52 352.93 280.35 353.25 280.17 353.56 279.92 353.88 279.68 354.16 279.39 354.41 279.11 354.62 278.79 354.83 278.44 355.01 278.09 355.12 277.7 355.22 277.31 355.29 276.92 355.29 276.5 355.29 276.11 355.22 275.76 355.12 275.4 355.01 275.05 354.83 274.73 354.62 274.42 354.41 274.13 354.16 273.88 353.88 273.67 353.56 273.46 353.25 273.29 352.93 273.18 352.54 273.07 352.19 273 351.8 273 351.37 273 350.99 273.07 350.6 273.18 350.21 273.29 349.86 273.46 349.54 273.67 349.19 273.88 348.9 274.13 348.62 274.42 348.37 274.73 348.13 275.05 347.95 275.4 347.77 275.76 347.63 276.11 347.56 276.5 347.49 276.92 347.46 276.92 347.46"/><polygon class="cls-4" points="283.59 375.24 283.88 375.27 284.16 375.31 284.4 375.38 284.65 375.45 284.9 375.59 285.11 375.7 285.32 375.87 285.5 376.05 285.68 376.23 285.85 376.44 285.99 376.65 286.1 376.9 286.17 377.14 286.24 377.39 286.28 377.68 286.31 377.96 286.28 378.24 286.24 378.49 286.17 378.73 286.1 378.98 285.99 379.23 285.85 379.44 285.68 379.65 285.5 379.86 285.32 380.04 285.11 380.18 284.9 380.32 284.65 380.43 284.4 380.53 284.16 380.61 283.88 380.64 283.59 380.64 283.35 380.64 283.06 380.61 282.82 380.53 282.57 380.43 282.32 380.32 282.11 380.18 281.9 380.04 281.69 379.86 281.55 379.65 281.37 379.44 281.23 379.23 281.12 378.98 281.05 378.73 280.98 378.49 280.95 378.24 280.91 377.96 280.95 377.68 280.98 377.39 281.05 377.14 281.12 376.9 281.23 376.65 281.37 376.44 281.55 376.23 281.69 376.05 281.9 375.87 282.11 375.7 282.32 375.59 282.57 375.45 282.82 375.38 283.06 375.31 283.35 375.27 283.59 375.24 283.59 375.24"/><polygon class="cls-5" points="283.59 375.24 283.88 375.27 284.16 375.31 284.4 375.38 284.65 375.45 284.9 375.59 285.11 375.7 285.32 375.87 285.5 376.05 285.68 376.23 285.85 376.44 285.99 376.65 286.1 376.9 286.17 377.14 286.24 377.39 286.28 377.68 286.31 377.96 286.28 378.24 286.24 378.49 286.17 378.73 286.1 378.98 285.99 379.23 285.85 379.44 285.68 379.65 285.5 379.86 285.32 380.04 285.11 380.18 284.9 380.32 284.65 380.43 284.4 380.53 284.16 380.61 283.88 380.64 283.59 380.64 283.35 380.64 283.06 380.61 282.82 380.53 282.57 380.43 282.32 380.32 282.11 380.18 281.9 380.04 281.69 379.86 281.55 379.65 281.37 379.44 281.23 379.23 281.12 378.98 281.05 378.73 280.98 378.49 280.95 378.24 280.91 377.96 280.95 377.68 280.98 377.39 281.05 377.14 281.12 376.9 281.23 376.65 281.37 376.44 281.55 376.23 281.69 376.05 281.9 375.87 282.11 375.7 282.32 375.59 282.57 375.45 282.82 375.38 283.06 375.31 283.35 375.27 283.59 375.24 283.59 375.24"/><polygon class="cls-4" points="284.76 379.69 285.15 379.72 285.54 379.76 285.92 379.86 286.28 380 286.59 380.15 286.95 380.36 287.23 380.57 287.51 380.85 287.76 381.1 288.01 381.42 288.18 381.73 288.36 382.09 288.5 382.44 288.57 382.83 288.64 383.22 288.64 383.61 288.64 383.99 288.57 384.38 288.5 384.77 288.36 385.12 288.18 385.48 288.01 385.79 287.76 386.11 287.51 386.39 287.23 386.64 286.95 386.85 286.59 387.06 286.28 387.21 285.92 387.35 285.54 387.45 285.15 387.49 284.76 387.52 284.33 387.49 283.95 387.45 283.59 387.35 283.2 387.21 282.89 387.06 282.53 386.85 282.25 386.64 281.97 386.39 281.72 386.11 281.48 385.79 281.3 385.48 281.12 385.12 280.98 384.77 280.91 384.38 280.84 383.99 280.84 383.61 280.84 383.22 280.91 382.83 280.98 382.44 281.12 382.09 281.3 381.73 281.48 381.42 281.72 381.1 281.97 380.85 282.25 380.57 282.53 380.36 282.89 380.15 283.2 380 283.59 379.86 283.95 379.76 284.33 379.72 284.76 379.69 284.76 379.69"/><polygon class="cls-5" points="284.76 379.69 285.15 379.72 285.54 379.76 285.92 379.86 286.28 380 286.59 380.15 286.95 380.36 287.23 380.57 287.51 380.85 287.76 381.1 288.01 381.42 288.18 381.73 288.36 382.09 288.5 382.44 288.57 382.83 288.64 383.22 288.64 383.61 288.64 383.99 288.57 384.38 288.5 384.77 288.36 385.12 288.18 385.48 288.01 385.79 287.76 386.11 287.51 386.39 287.23 386.64 286.95 386.85 286.59 387.06 286.28 387.21 285.92 387.35 285.54 387.45 285.15 387.49 284.76 387.52 284.33 387.49 283.95 387.45 283.59 387.35 283.2 387.21 282.89 387.06 282.53 386.85 282.25 386.64 281.97 386.39 281.72 386.11 281.48 385.79 281.3 385.48 281.12 385.12 280.98 384.77 280.91 384.38 280.84 383.99 280.84 383.61 280.84 383.22 280.91 382.83 280.98 382.44 281.12 382.09 281.3 381.73 281.48 381.42 281.72 381.1 281.97 380.85 282.25 380.57 282.53 380.36 282.89 380.15 283.2 380 283.59 379.86 283.95 379.76 284.33 379.72 284.76 379.69 284.76 379.69"/></svg>