<svg id="Ebene_1" data-name="Ebene 1" xmlns="http://www.w3.org/2000/svg" viewBox="0 0 564.82 564.79"><defs><style>.cls-1{fill:#fff;}.cls-1,.cls-2,.cls-4{fill-rule:evenodd;}.cls-2{fill:#da251d;}.cls-3,.cls-5{fill:none;stroke-linecap:square;stroke-miterlimit:10;stroke-width:0.21px;}.cls-3{stroke:#242729;}.cls-5{stroke:#000;}</style></defs><polygon class="cls-1" points="0.01 282.43 282.25 0.18 564.53 282.43 282.25 564.67 0.01 282.43 0.01 282.43"/><path class="cls-2" d="M20.69,421.32l276.56-276.6,276.6,276.6L297.25,697.88,20.69,421.32Zm44.84,0L297.25,189.59,529,421.32,297.25,653,65.53,421.32Z" transform="translate(-15 -138.89)"/><polyline class="cls-3" points="0.15 282.22 282.25 0.15 564.67 282.22 282.25 564.64 0.15 282.22"/><polygon class="cls-4" points="303.19 381.56 304.14 380.99 305.06 380.43 306.05 379.86 306.96 379.26 307.88 378.66 308.83 378.03 309.75 377.43 310.63 376.79 311.55 376.16 312.47 375.52 313.39 374.89 314.27 374.21 315.19 373.58 316.07 372.94 316.99 372.27 317.87 371.6 318.82 370.69 319.74 369.77 320.73 368.85 321.65 367.93 322.6 366.98 323.52 366.06 324.47 365.14 325.43 364.22 326.35 363.31 327.33 362.42 328.25 361.51 329.2 360.59 330.16 359.63 331.11 358.72 332.03 357.8 332.98 356.88 333.69 355.54 334.39 354.23 335.1 352.89 335.81 351.55 336.51 350.21 337.22 348.87 337.92 347.56 338.63 346.22 339.34 344.91 340.04 343.57 340.75 342.23 341.45 340.89 342.16 339.55 342.87 338.24 343.57 336.9 344.28 335.56 342.9 336.44 341.49 337.29 340.15 338.14 338.81 338.95 337.46 339.72 336.16 340.47 335.49 340.82 334.82 341.17 334.15 341.49 333.48 341.81 332.81 342.13 332.1 342.44 331.43 342.73 330.76 342.97 330.05 343.25 329.35 343.5 328.6 343.71 327.9 343.93 327.16 344.14 326.38 344.31 325.64 344.45 324.86 344.6 324.09 344.7 323.27 344.81 322.46 344.91 321.65 344.99 320.94 344.95 320.27 344.95 319.6 344.95 318.9 344.91 318.26 344.91 317.56 344.91 316.88 344.88 316.21 344.88 315.82 344.84 315.4 344.81 315.01 344.81 314.59 344.77 314.2 344.77 313.78 344.74 313.39 344.7 312.96 344.7 313.85 343.78 314.69 342.87 315.51 341.98 316.32 341.1 317.13 340.18 317.91 339.3 318.68 338.38 319.43 337.46 320.17 336.55 320.91 335.63 321.65 334.68 322.39 333.72 323.1 332.77 323.84 331.78 324.54 330.76 325.29 329.73 325.6 328.82 325.92 327.9 326.2 326.94 326.52 326.03 326.84 325.07 327.16 324.16 327.48 323.24 327.79 322.32 328.11 321.37 328.39 320.45 328.71 319.53 329.03 318.61 329.35 317.66 329.66 316.74 329.98 315.82 330.3 314.87 330.26 311.34 330.26 308.2 330.26 305.52 330.23 303.22 330.23 301.25 330.23 299.62 330.19 298.31 330.19 297.26 330.19 296.44 330.16 295.84 330.16 295.42 330.12 295.14 330.12 295 330.09 294.96 330.05 295 330.02 295.03 329.49 296.27 328.92 297.54 328.36 298.77 327.79 300.01 327.23 301.28 326.7 302.52 326.13 303.79 325.57 305.02 324.69 305.62 323.8 306.19 322.88 306.79 322 307.39 321.12 307.99 320.24 308.55 319.36 309.15 318.44 309.75 317.56 310.35 316.67 310.92 315.79 311.52 314.87 312.12 313.99 312.68 313.11 313.28 312.22 313.88 311.34 314.48 310.32 315.51 309.33 316.53 308.31 317.55 307.28 318.58 306.29 319.6 305.27 320.63 304.28 321.69 303.26 322.71 303.26 322.18 303.26 321.65 303.26 321.15 303.26 320.66 303.26 319.71 303.26 318.79 303.29 317.87 303.29 316.95 303.29 316 303.29 315.08 303.29 314.17 303.29 313.25 303.29 312.33 303.33 311.41 303.33 310.46 303.33 309.54 303.33 308.62 303.33 307.7 303.33 306.79 303.36 305.83 303.33 305.02 303.33 304.25 303.33 303.43 303.33 302.62 303.33 301.81 303.33 301 303.29 300.19 303.29 299.37 303.29 298.56 303.29 297.75 303.29 296.94 303.29 296.13 303.29 295.35 303.26 294.54 303.26 293.73 303.26 292.91 302.55 289.95 301.92 287.34 301.39 285.04 300.89 283.06 300.5 281.37 300.15 279.96 299.87 278.72 299.62 277.7 299.41 276.85 299.2 276.11 299.02 275.47 298.88 274.91 298.74 274.38 298.6 273.88 298.42 273.39 298.24 272.79 297.64 271.91 297.04 270.99 296.41 270.11 295.81 269.19 295.17 268.27 294.57 267.39 293.97 266.47 293.34 265.59 292.74 264.67 292.14 263.79 291.54 262.87 290.9 261.99 290.3 261.07 289.7 260.15 289.06 259.27 288.46 258.35 287.34 257.26 286.24 256.16 285.11 255.07 283.98 253.97 282.85 252.88 281.76 251.79 280.63 250.69 279.5 249.6 279.5 249.56 279.46 249.56 279.43 249.63 279.39 249.77 279.39 250.06 279.36 250.48 279.36 251.04 279.32 251.86 279.32 252.88 279.29 254.19 279.29 255.78 279.25 257.68 279.22 259.94 279.22 262.55 279.18 265.59 279.14 269.05 278.51 270.81 277.91 272.58 277.31 274.31 276.67 276.07 276.07 277.8 275.44 279.57 274.84 281.33 274.24 283.06 273.64 284.83 273 286.59 272.4 288.36 271.8 290.09 271.2 291.85 270.6 293.62 269.97 295.35 269.37 297.11 269.33 298.1 269.26 298.95 269.26 299.76 269.23 300.75 269.26 301.95 269.26 303.57 269.33 305.76 269.37 308.59 269.47 309.19 269.61 309.86 269.79 310.67 270 311.52 270.18 312.47 270.39 313.46 270.64 314.48 270.85 315.54 271.03 316.57 271.24 317.59 271.38 318.58 271.52 319.5 271.56 319.95 271.59 320.38 271.63 320.77 271.66 321.15 271.66 321.51 271.66 321.86 271.63 322.14 271.59 322.39 270.53 321.86 269.51 321.26 268.52 320.7 267.5 320.13 266.44 319.57 265.41 319 264.39 318.44 263.37 317.91 262.34 317.34 261.32 316.78 260.29 316.21 259.27 315.65 258.25 315.08 257.22 314.52 256.2 313.95 255.18 313.39 254.4 312.37 253.76 311.55 253.23 310.78 252.67 310.04 252.07 309.15 251.33 308.09 250.37 306.72 249.17 304.92 248.68 303.68 248.19 302.44 247.73 301.21 247.23 299.97 246.77 298.74 246.28 297.5 245.78 296.27 245.33 295.03 245.29 295.21 245.22 295.42 245.18 295.88 245.08 296.62 245.01 297.79 244.9 299.55 244.8 301.95 244.62 305.16 244.34 306.4 244.06 307.6 243.81 308.83 243.53 310.07 243.24 311.31 243 312.54 242.71 313.78 242.47 315.01 243.03 316.71 243.53 318.05 243.91 319.18 244.27 320.24 244.66 321.26 245.11 322.46 245.68 323.98 246.42 325.89 247.13 327.09 247.87 328.29 248.61 329.49 249.35 330.65 250.13 331.82 250.9 332.95 251.72 334.11 252.53 335.28 253.34 336.41 254.19 337.57 255.03 338.7 255.88 339.83 256.73 341 257.61 342.13 258.49 343.32 259.41 344.49 259.24 344.53 258.99 344.56 258.67 344.6 258.32 344.6 257.93 344.6 257.5 344.56 257.01 344.56 256.48 344.53 255.35 344.42 254.12 344.28 252.81 344.1 251.47 343.93 250.16 343.75 248.82 343.57 247.55 343.36 246.42 343.18 245.36 343.04 244.48 342.9 243.74 342.8 243.24 342.73 242.18 342.34 241.13 341.98 240.07 341.63 239.01 341.24 237.95 340.85 236.89 340.5 235.83 340.11 234.77 339.72 233.68 338.95 232.55 338.14 231.45 337.32 230.32 336.51 229.19 335.74 228.1 334.92 226.97 334.11 225.87 333.33 226.01 333.9 226.19 334.5 226.37 335.1 226.58 335.7 227 336.94 227.46 338.21 227.99 339.48 228.52 340.78 229.09 342.05 229.69 343.36 230.29 344.67 230.89 345.97 231.52 347.28 232.12 348.55 232.72 349.86 233.29 351.09 233.85 352.33 234.38 353.53 236.92 356.56 239.11 359.18 241.05 361.47 242.68 363.41 244.09 365.07 245.25 366.48 246.24 367.61 247.02 368.57 247.66 369.31 248.15 369.87 248.54 370.3 248.82 370.61 249.03 370.83 249.21 371 249.35 371.11 249.49 371.25 250.34 371.67 251.22 372.1 252.07 372.49 252.92 372.94 253.76 373.33 254.65 373.76 255.49 374.18 256.34 374.6 257.19 375.03 258.04 375.45 258.92 375.84 259.76 376.26 260.61 376.69 261.49 377.11 262.34 377.53 263.22 377.96 263.65 378.03 264.35 378.13 265.27 378.27 266.4 378.45 267.67 378.7 269.05 378.91 270.46 379.16 271.94 379.44 273.39 379.69 274.8 379.93 276.11 380.22 277.27 380.46 278.3 380.71 279.11 380.96 279.39 381.03 279.68 381.17 279.82 381.24 279.92 381.35 277.66 381.2 275.4 381.03 273.14 380.89 270.88 380.78 268.63 380.64 266.37 380.5 264.14 380.36 261.88 380.18 259.62 380.07 257.36 379.93 255.14 379.79 252.88 379.65 250.62 379.51 248.36 379.37 246.1 379.23 243.84 379.09 241.94 378.35 240.24 377.64 238.72 377.07 237.35 376.51 236.11 375.98 234.91 375.52 233.75 375.03 232.58 374.57 231.42 374.07 230.15 373.54 228.77 372.98 227.25 372.31 225.52 371.6 223.58 370.79 221.43 369.84 218.92 368.81 217.9 368.07 216.87 367.33 215.85 366.59 214.82 365.85 213.76 365.11 212.74 364.37 211.72 363.62 210.69 362.92 209.63 362.18 208.61 361.44 207.59 360.69 206.56 359.95 205.54 359.21 204.52 358.5 203.49 357.76 202.47 357.02 201.83 355.86 201.16 354.73 200.53 353.56 199.86 352.43 199.22 351.27 198.59 350.14 197.91 348.97 197.28 347.81 196.61 346.68 195.97 345.51 195.34 344.38 194.7 343.25 194.03 342.09 193.4 340.96 192.76 339.8 192.09 338.67 191.21 335.45 190.29 332.24 189.37 329.06 188.45 325.85 187.5 322.64 186.58 319.46 185.66 316.25 184.75 313.07 183.86 309.86 182.95 306.65 182.03 303.47 181.11 300.26 180.16 297.04 179.24 293.83 178.32 290.65 177.44 287.48 177.33 286.91 177.26 286.24 177.19 285.46 177.09 284.58 176.98 283.63 176.84 282.64 176.7 281.62 176.56 280.59 176.41 279.57 176.27 278.58 176.13 277.66 175.96 276.78 175.78 276.04 175.6 275.4 175.53 275.12 175.43 274.87 175.36 274.7 175.25 274.56 175.25 274.13 175.25 273.74 175.25 273.39 175.25 272.97 176.27 273.96 177.3 274.94 178.29 275.93 179.28 276.92 180.26 277.94 181.25 278.97 182.17 279.99 183.12 281.05 184.04 282.11 184.96 283.2 185.88 284.3 186.79 285.43 187.68 286.56 188.52 287.72 189.37 288.89 190.25 290.12 191.42 291.01 192.62 291.89 193.78 292.81 194.98 293.69 196.19 294.57 197.35 295.49 198.55 296.37 199.75 297.29 200.77 297.43 201.8 297.57 202.82 297.71 203.88 297.86 204.9 298.03 205.93 298.17 206.95 298.31 207.98 298.46 209.03 298.63 210.06 298.77 211.08 298.92 212.11 299.09 213.16 299.23 214.19 299.37 215.25 299.51 216.27 299.69 216.34 299.55 216.41 299.41 215.6 297.61 214.75 295.84 213.98 294.08 213.16 292.31 212.39 290.55 211.61 288.78 210.87 287.05 210.13 285.29 209.39 283.56 208.65 281.79 207.94 280.06 207.23 278.3 206.56 276.5 205.86 274.73 205.19 272.93 204.52 271.13 204.41 270.25 204.27 269.33 204.16 268.41 204.06 267.5 203.92 266.58 203.81 265.69 203.7 264.78 203.6 263.86 203.49 262.98 203.35 262.06 203.25 261.14 203.14 260.26 203 259.34 202.89 258.42 202.79 257.5 202.68 256.62 202.68 255.6 202.65 254.57 202.65 253.55 202.61 252.56 202.61 251.54 202.57 250.55 202.57 249.53 202.57 248.5 202.54 247.48 202.54 246.49 202.54 245.47 202.5 244.44 202.5 243.46 202.5 242.43 202.47 241.44 202.47 240.42 202.12 236.78 201.83 233.57 201.59 230.78 201.34 228.42 201.16 226.37 201.02 224.67 200.88 223.33 200.81 222.2 200.7 221.32 200.67 220.65 200.63 220.16 200.63 219.8 200.63 219.56 200.63 219.41 200.63 219.34 200.67 219.27 201.97 220.54 203.25 221.85 204.52 223.16 205.82 224.46 207.09 225.77 208.36 227.07 209.63 228.38 210.94 229.65 211.68 230.75 212.42 231.81 213.16 232.83 213.91 233.92 214.65 234.98 215.39 236.01 216.13 237.06 216.87 238.16 217.61 239.22 218.35 240.24 219.13 241.34 219.87 242.4 220.61 243.42 221.35 244.48 222.13 245.57 222.84 246.63 223.86 247.27 224.88 247.94 225.87 248.57 226.9 249.24 227.89 249.91 228.91 250.55 229.9 251.22 230.92 251.86 230.92 251.72 230.92 251.54 230.92 251.33 230.89 251.04 230.75 250.44 230.57 249.7 230.32 248.89 230.04 247.97 229.76 247.06 229.4 246.1 228.73 244.2 228.1 242.47 227.57 241.09 227.29 240.21 227.25 237.95 227.25 235.72 227.25 233.5 227.29 231.31 227.36 229.12 227.46 226.93 227.57 224.74 227.67 222.59 227.85 220.4 228.03 218.25 228.24 216.09 228.45 213.91 228.7 211.75 228.98 209.56 229.26 207.38 229.58 205.22 229.86 203.84 230.15 202.47 230.43 201.09 230.71 199.72 230.96 198.34 231.28 197 231.56 195.62 231.81 194.24 231.52 192.69 231.24 191.14 230.92 189.62 230.64 188.06 230.36 186.51 230.04 184.96 229.76 183.44 229.47 181.89 232.48 182.59 234.77 183.12 236.39 183.51 237.52 183.79 238.26 183.97 238.69 184.11 238.97 184.22 239.15 184.29 239.96 185.13 240.81 185.95 241.69 186.83 242.57 187.71 243.03 188.17 243.46 188.63 243.88 189.12 244.27 189.58 244.66 190.08 245.04 190.57 245.4 191.07 245.71 191.59 246.21 192.83 246.67 194.07 247.16 195.3 247.62 196.5 248.12 197.74 248.57 198.94 249.03 200.17 249.53 201.41 249.67 202.29 249.81 203.17 249.95 204.06 250.09 204.94 250.23 205.82 250.37 206.71 250.51 207.62 250.66 208.5 250.8 209.39 250.97 210.27 251.12 211.15 251.26 212.03 251.4 212.92 251.54 213.8 251.68 214.72 251.82 215.6 253.09 218.14 254.22 220.4 255.21 222.31 256.02 224 256.76 225.41 257.33 226.58 257.82 227.53 258.21 228.31 258.53 228.91 258.74 229.37 258.92 229.69 259.06 229.9 259.13 230.04 259.2 230.11 259.24 230.11 259.27 230.11 259.62 229.3 260.01 228.45 260.36 227.6 260.75 226.76 261.14 225.94 261.49 225.1 261.88 224.25 262.24 223.44 262.62 222.59 262.98 221.74 263.37 220.9 263.75 220.08 264.14 219.24 264.5 218.39 264.88 217.54 265.27 216.73 265.73 215.25 266.15 213.8 266.54 212.32 266.93 210.87 267.32 209.42 267.64 207.94 267.95 206.46 268.27 204.97 268.56 203.53 268.8 202.04 269.05 200.56 269.26 199.08 269.47 197.6 269.68 196.15 269.86 194.67 270.04 193.15 270.18 191.67 270.28 190.18 270.43 188.7 270.53 187.22 270.64 185.74 270.74 184.25 270.81 182.73 270.88 181.25 270.99 178.29 271.06 175.28 271.1 172.32 271.13 169.32 271.13 168.47 271.13 167.59 271.13 166.71 271.13 165.86 271.17 164.98 271.17 164.13 271.17 163.25 271.17 162.4 271.17 161.52 271.17 160.63 271.17 159.79 271.2 158.91 271.2 158.06 271.2 157.18 271.2 156.33 271.2 155.44 271.31 154.56 271.45 153.65 271.59 152.76 271.73 151.88 271.87 151 272.05 150.12 272.23 149.23 272.44 148.31 272.61 147.43 272.83 146.58 273.07 145.7 273.32 144.82 273.78 143.09 274.31 141.4 274.87 139.66 275.4 137.97 276 136.24 276.36 135.18 276.75 134.12 277.1 133.06 277.49 132 277.84 130.94 278.23 129.89 278.58 128.83 278.97 127.77 279.5 130.88 280.03 133.91 280.59 136.98 281.16 140.05 281.83 143.13 282.53 146.23 282.92 147.78 283.35 149.34 283.81 150.89 284.26 152.48 286.56 157.35 288.18 160.25 289.77 163.03 291.36 165.72 292.91 168.4 294.47 171.08 295.95 173.84 296.69 175.25 297.43 176.66 298.14 178.15 298.81 179.66 299.9 182.63 300.54 184.39 301.14 186.12 301.74 187.89 302.37 189.65 302.98 191.38 303.61 193.15 304.21 194.88 304.81 196.64 305.41 198.37 306.05 200.17 306.65 201.9 307.25 203.67 307.88 205.4 308.48 207.16 309.08 208.93 309.29 210.41 309.51 211.93 309.72 213.45 309.89 214.97 310.14 216.48 310.32 218 310.53 219.52 310.74 221.04 310.67 221.6 310.53 222.31 310.39 223.19 310.21 224.18 310.04 225.27 309.79 226.4 309.58 227.6 309.4 228.8 309.19 230 309.01 231.17 308.87 232.33 308.76 233.36 308.69 233.82 308.66 234.28 308.66 234.7 308.66 235.09 308.66 235.44 308.66 235.76 308.69 236.01 308.76 236.22 309.65 235.87 310.56 235.55 311.45 235.19 312.33 234.84 313.25 234.49 314.17 234.17 315.05 233.82 315.97 233.46 316.88 232.58 317.91 231.63 318.93 230.68 319.95 229.65 320.45 229.16 320.94 228.63 321.4 228.13 321.86 227.6 322.29 227.04 322.67 226.51 322.85 226.23 323.03 225.94 323.17 225.66 323.34 225.38 323.59 224.39 323.87 223.4 324.16 222.45 324.44 221.43 324.72 220.47 325 219.48 325.29 218.5 325.57 217.51 325.85 216.52 326.13 215.57 326.42 214.58 326.7 213.59 326.98 212.63 327.26 211.61 327.55 210.66 327.83 209.67 328 208.08 328.18 206.53 328.36 204.94 328.53 203.39 328.71 201.8 328.89 200.24 329.06 198.66 329.24 197.1 329.42 195.51 329.59 193.93 329.77 192.37 329.95 190.78 330.12 189.23 330.3 187.64 330.48 186.09 330.65 184.5 331.29 185.74 331.92 187.01 332.56 188.21 333.19 189.48 333.79 190.68 334.43 191.91 335.06 193.15 335.7 194.38 336.33 195.62 336.97 196.85 337.61 198.09 338.24 199.33 338.88 200.56 339.51 201.8 340.15 203.03 340.78 204.27 340.96 205.72 341.1 207.2 341.31 208.68 341.49 210.13 341.67 211.61 341.84 213.09 341.98 214.58 342.2 216.06 342.34 217.54 342.51 218.99 342.65 220.51 342.8 221.99 342.94 223.47 343.08 224.99 343.18 226.47 343.25 227.96 343.22 228.63 343.22 229.26 343.18 229.9 343.18 230.53 343.15 231.17 343.11 231.84 343.11 232.47 343.08 233.11 343.08 233.75 343.08 234.38 343.08 235.02 343.08 235.69 343.08 236.29 343.08 236.96 343.08 237.59 343.08 238.26 343.08 238.87 343.08 239.5 343.08 240.1 343.08 240.74 343.08 241.37 343.08 242.01 343.08 242.64 343.08 243.28 343.08 243.67 343.04 244.06 343.04 244.44 343.04 244.87 343.04 245.25 343.04 245.64 343.01 246.07 343.01 246.46 342.8 246.95 342.51 247.66 342.13 248.54 341.67 249.56 341.17 250.66 340.68 251.86 340.11 253.13 339.55 254.43 339.05 255.67 338.52 256.94 338.06 258.11 337.68 259.16 337.5 259.69 337.36 260.12 337.22 260.58 337.08 260.93 337.01 261.28 336.97 261.56 336.94 261.81 336.94 261.99 338.24 261.25 339.55 260.51 340.85 259.8 342.2 259.06 343.47 258.32 344.81 257.58 346.11 256.83 347.42 256.13 348.69 254.86 349.93 253.59 351.2 252.31 352.47 251.04 353.74 249.77 354.98 248.5 356.25 247.27 357.52 245.96 358.82 243.42 359.95 241.19 360.98 239.25 361.82 237.59 362.53 236.15 363.13 234.98 363.66 234.03 364.05 233.25 364.4 232.62 364.65 232.12 364.82 231.81 364.97 231.56 365.07 231.38 365.18 231.28 365.21 231.21 365.28 231.13 365.6 232.33 365.95 233.5 366.27 234.66 366.59 235.83 366.94 236.99 367.26 238.19 367.61 239.36 367.93 240.52 368.25 241.69 368.6 242.85 368.92 244.06 369.27 245.22 369.59 246.38 369.91 247.55 370.26 248.75 370.58 249.91 370.72 250.76 370.86 251.61 371 252.46 371.11 253.3 371.25 254.15 371.39 255 371.53 255.85 371.67 256.69 371.78 257.54 371.92 258.39 372.06 259.24 372.2 260.08 372.31 260.93 372.49 261.78 372.63 262.66 372.38 265.59 371.96 267.81 371.5 269.9 371 271.94 370.47 273.92 369.94 275.9 369.38 277.91 368.81 279.96 368.25 282.15 367.61 283.45 366.98 284.76 366.34 286.1 365.67 287.41 365.04 288.75 364.4 290.05 363.76 291.36 363.1 292.7 362.81 293.16 362.35 293.8 361.79 294.57 361.12 295.49 360.41 296.55 359.63 297.64 358.82 298.77 358.01 299.94 357.2 301.1 356.46 302.23 355.75 303.29 355.12 304.28 354.62 305.16 354.2 305.87 354.06 306.19 353.95 306.47 353.88 306.65 353.85 306.82 354.9 306.5 356.7 305.98 358.54 305.45 360.34 304.92 362.18 304.39 363.98 303.86 365.81 303.33 367.61 302.8 369.45 302.27 370.47 301.95 373.33 299.97 375.49 298.49 377.04 297.4 378.1 296.62 378.8 296.13 379.26 295.77 379.55 295.53 379.76 295.28 380.07 293.94 380.36 292.6 380.68 291.25 380.99 289.95 381.28 288.61 381.59 287.26 381.88 285.96 382.19 284.62 382.05 286.7 381.91 288.75 381.81 290.83 381.66 292.91 381.49 295.49 381.35 298.1 381.17 300.68 381.03 303.29 380.85 305.87 380.68 308.48 380.5 311.06 380.32 313.67 380.22 315.72 380.07 317.8 379.62 319.32 379.16 320.87 378.52 322.99 377.92 325.07 377.29 327.19 376.65 329.27 376.01 331.39 375.38 333.51 374.75 335.59 374.11 337.71 373.65 339.23 373.19 340.78 372.73 342.3 371.96 343.54 371.21 344.74 370.44 345.97 369.66 347.17 368.88 348.41 368.11 349.61 367.37 350.85 366.59 352.05 365.81 353.28 365.07 354.48 364.3 355.72 363.55 356.92 362.78 358.15 362 359.39 361.26 360.59 360.48 361.82 359.6 362.42 358.72 363.02 357.87 363.62 356.99 364.26 356.11 364.86 355.26 365.46 354.38 366.06 353.49 366.66 352.61 367.3 351.76 367.86 350.88 368.5 350 369.1 349.15 369.7 348.27 370.3 347.38 370.9 346.54 371.53 345.55 371.99 344.56 372.49 343.54 372.94 342.55 373.44 341.56 373.9 340.57 374.39 339.58 374.85 338.6 375.35 337.61 375.8 336.62 376.3 335.63 376.79 334.64 377.25 333.65 377.75 332.66 378.24 331.68 378.7 330.69 379.19 329.8 379.33 328.92 379.51 328.04 379.65 327.16 379.79 326.27 379.97 325.39 380.11 324.51 380.29 323.63 380.43 322.74 380.57 321.86 380.71 320.98 380.89 320.1 381.03 319.21 381.2 318.37 381.35 317.48 381.52 316.6 381.66 315.75 381.66 314.91 381.66 314.06 381.63 313.21 381.63 312.4 381.63 311.55 381.63 310.71 381.63 309.86 381.63 309.05 381.63 308.2 381.59 307.35 381.59 306.5 381.59 305.69 381.59 304.85 381.59 304 381.59 303.19 381.56 303.19 381.56"/><polygon class="cls-5" points="303.19 381.56 304.14 380.99 305.06 380.43 306.05 379.86 306.96 379.26 307.88 378.66 308.83 378.03 309.75 377.43 310.63 376.79 311.55 376.16 312.47 375.52 313.39 374.89 314.27 374.21 315.19 373.58 316.07 372.94 316.99 372.27 317.87 371.6 318.82 370.69 319.74 369.77 320.73 368.85 321.65 367.93 322.6 366.98 323.52 366.06 324.47 365.14 325.43 364.22 326.35 363.31 327.33 362.42 328.25 361.51 329.2 360.59 330.16 359.63 331.11 358.72 332.03 357.8 332.98 356.88 333.69 355.54 334.39 354.23 335.1 352.89 335.81 351.55 336.51 350.21 337.22 348.87 337.92 347.56 338.63 346.22 339.34 344.91 340.04 343.57 340.75 342.23 341.45 340.89 342.16 339.55 342.87 338.24 343.57 336.9 344.28 335.56 342.9 336.44 341.49 337.29 340.15 338.14 338.81 338.95 337.46 339.72 336.16 340.47 335.49 340.82 334.82 341.17 334.15 341.49 333.48 341.81 332.81 342.13 332.1 342.44 331.43 342.73 330.76 342.97 330.05 343.25 329.35 343.5 328.6 343.71 327.9 343.93 327.16 344.14 326.38 344.31 325.64 344.45 324.86 344.6 324.09 344.7 323.27 344.81 322.46 344.91 321.65 344.99 320.94 344.95 320.27 344.95 319.6 344.95 318.9 344.91 318.26 344.91 317.56 344.91 316.88 344.88 316.21 344.88 315.82 344.84 315.4 344.81 315.01 344.81 314.59 344.77 314.2 344.77 313.78 344.74 313.39 344.7 312.96 344.7 313.85 343.78 314.69 342.87 315.51 341.98 316.32 341.1 317.13 340.18 317.91 339.3 318.68 338.38 319.43 337.46 320.17 336.55 320.91 335.63 321.65 334.68 322.39 333.72 323.1 332.77 323.84 331.78 324.54 330.76 325.29 329.73 325.6 328.82 325.92 327.9 326.2 326.94 326.52 326.03 326.84 325.07 327.16 324.16 327.48 323.24 327.79 322.32 328.11 321.37 328.39 320.45 328.71 319.53 329.03 318.61 329.35 317.66 329.66 316.74 329.98 315.82 330.3 314.87 330.26 311.34 330.26 308.2 330.26 305.52 330.23 303.22 330.23 301.25 330.23 299.62 330.19 298.31 330.19 297.26 330.19 296.44 330.16 295.84 330.16 295.42 330.12 295.14 330.12 295 330.09 294.96 330.05 295 330.02 295.03 329.49 296.27 328.92 297.54 328.36 298.77 327.79 300.01 327.23 301.28 326.7 302.52 326.13 303.79 325.57 305.02 324.69 305.62 323.8 306.19 322.88 306.79 322 307.39 321.12 307.99 320.24 308.55 319.36 309.15 318.44 309.75 317.56 310.35 316.67 310.92 315.79 311.52 314.87 312.12 313.99 312.68 313.11 313.28 312.22 313.88 311.34 314.48 310.32 315.51 309.33 316.53 308.31 317.55 307.28 318.58 306.29 319.6 305.27 320.63 304.28 321.69 303.26 322.71 303.26 322.18 303.26 321.65 303.26 321.15 303.26 320.66 303.26 319.71 303.26 318.79 303.29 317.87 303.29 316.95 303.29 316 303.29 315.08 303.29 314.17 303.29 313.25 303.29 312.33 303.33 311.41 303.33 310.46 303.33 309.54 303.33 308.62 303.33 307.7 303.33 306.79 303.36 305.83 303.33 305.02 303.33 304.25 303.33 303.43 303.33 302.62 303.33 301.81 303.33 301 303.29 300.19 303.29 299.37 303.29 298.56 303.29 297.75 303.29 296.94 303.29 296.13 303.29 295.35 303.26 294.54 303.26 293.73 303.26 292.91 302.55 289.95 301.92 287.34 301.39 285.04 300.89 283.06 300.5 281.37 300.15 279.96 299.87 278.72 299.62 277.7 299.41 276.85 299.2 276.11 299.02 275.47 298.88 274.91 298.74 274.38 298.6 273.88 298.42 273.39 298.24 272.79 297.64 271.91 297.04 270.99 296.41 270.11 295.81 269.19 295.17 268.27 294.57 267.39 293.97 266.47 293.34 265.59 292.74 264.67 292.14 263.79 291.54 262.87 290.9 261.99 290.3 261.07 289.7 260.15 289.06 259.27 288.46 258.35 287.34 257.26 286.24 256.16 285.11 255.07 283.98 253.97 282.85 252.88 281.76 251.79 280.63 250.69 279.5 249.6 279.5 249.56 279.46 249.56 279.43 249.63 279.39 249.77 279.39 250.06 279.36 250.48 279.36 251.04 279.32 251.86 279.32 252.88 279.29 254.19 279.29 255.78 279.25 257.68 279.22 259.94 279.22 262.55 279.18 265.59 279.14 269.05 278.51 270.81 277.91 272.58 277.31 274.31 276.67 276.07 276.07 277.8 275.44 279.57 274.84 281.33 274.24 283.06 273.64 284.83 273 286.59 272.4 288.36 271.8 290.09 271.2 291.85 270.6 293.62 269.97 295.35 269.37 297.11 269.33 298.1 269.26 298.95 269.26 299.76 269.23 300.75 269.26 301.95 269.26 303.57 269.33 305.76 269.37 308.59 269.47 309.19 269.61 309.86 269.79 310.67 270 311.52 270.18 312.47 270.39 313.46 270.64 314.48 270.85 315.54 271.03 316.57 271.24 317.59 271.38 318.58 271.52 319.5 271.56 319.95 271.59 320.38 271.63 320.77 271.66 321.15 271.66 321.51 271.66 321.86 271.63 322.14 271.59 322.39 270.53 321.86 269.51 321.26 268.52 320.7 267.5 320.13 266.44 319.57 265.41 319 264.39 318.44 263.37 317.91 262.34 317.34 261.32 316.78 260.29 316.21 259.27 315.65 258.25 315.08 257.22 314.52 256.2 313.95 255.18 313.39 254.4 312.37 253.76 311.55 253.23 310.78 252.67 310.04 252.07 309.15 251.33 308.09 250.37 306.72 249.17 304.92 248.68 303.68 248.19 302.44 247.73 301.21 247.23 299.97 246.77 298.74 246.28 297.5 245.78 296.27 245.33 295.03 245.29 295.21 245.22 295.42 245.18 295.88 245.08 296.62 245.01 297.79 244.9 299.55 244.8 301.95 244.62 305.16 244.34 306.4 244.06 307.6 243.81 308.83 243.53 310.07 243.24 311.31 243 312.54 242.71 313.78 242.47 315.01 243.03 316.71 243.53 318.05 243.91 319.18 244.27 320.24 244.66 321.26 245.11 322.46 245.68 323.98 246.42 325.89 247.13 327.09 247.87 328.29 248.61 329.49 249.35 330.65 250.13 331.82 250.9 332.95 251.72 334.11 252.53 335.28 253.34 336.41 254.19 337.57 255.03 338.7 255.88 339.83 256.73 341 257.61 342.13 258.49 343.32 259.41 344.49 259.24 344.53 258.99 344.56 258.67 344.6 258.32 344.6 257.93 344.6 257.5 344.56 257.01 344.56 256.48 344.53 255.35 344.42 254.12 344.28 252.81 344.1 251.47 343.93 250.16 343.75 248.82 343.57 247.55 343.36 246.42 343.18 245.36 343.04 244.48 342.9 243.74 342.8 243.24 342.73 242.18 342.34 241.13 341.98 240.07 341.63 239.01 341.24 237.95 340.85 236.89 340.5 235.83 340.11 234.77 339.72 233.68 338.95 232.55 338.14 231.45 337.32 230.32 336.51 229.19 335.74 228.1 334.92 226.97 334.11 225.87 333.33 226.01 333.9 226.19 334.5 226.37 335.1 226.58 335.7 227 336.94 227.46 338.21 227.99 339.48 228.52 340.78 229.09 342.05 229.69 343.36 230.29 344.67 230.89 345.97 231.52 347.28 232.12 348.55 232.72 349.86 233.29 351.09 233.85 352.33 234.38 353.53 236.92 356.56 239.11 359.18 241.05 361.47 242.68 363.41 244.09 365.07 245.25 366.48 246.24 367.61 247.02 368.57 247.66 369.31 248.15 369.87 248.54 370.3 248.82 370.61 249.03 370.83 249.21 371 249.35 371.11 249.49 371.25 250.34 371.67 251.22 372.1 252.07 372.49 252.92 372.94 253.76 373.33 254.65 373.76 255.49 374.18 256.34 374.6 257.19 375.03 258.04 375.45 258.92 375.84 259.76 376.26 260.61 376.69 261.49 377.11 262.34 377.53 263.22 377.96 263.65 378.03 264.35 378.13 265.27 378.27 266.4 378.45 267.67 378.7 269.05 378.91 270.46 379.16 271.94 379.44 273.39 379.69 274.8 379.93 276.11 380.22 277.27 380.46 278.3 380.71 279.11 380.96 279.39 381.03 279.68 381.17 279.82 381.24 279.92 381.35 277.66 381.2 275.4 381.03 273.14 380.89 270.88 380.78 268.63 380.64 266.37 380.5 264.14 380.36 261.88 380.18 259.62 380.07 257.36 379.93 255.14 379.79 252.88 379.65 250.62 379.51 248.36 379.37 246.1 379.23 243.84 379.09 241.94 378.35 240.24 377.64 238.72 377.07 237.35 376.51 236.11 375.98 234.91 375.52 233.75 375.03 232.58 374.57 231.42 374.07 230.15 373.54 228.77 372.98 227.25 372.31 225.52 371.6 223.58 370.79 221.43 369.84 218.92 368.81 217.9 368.07 216.87 367.33 215.85 366.59 214.82 365.85 213.76 365.11 212.74 364.37 211.72 363.62 210.69 362.92 209.63 362.18 208.61 361.44 207.59 360.69 206.56 359.95 205.54 359.21 204.52 358.5 203.49 357.76 202.47 357.02 201.83 355.86 201.16 354.73 200.53 353.56 199.86 352.43 199.22 351.27 198.59 350.14 197.91 348.97 197.28 347.81 196.61 346.68 195.97 345.51 195.34 344.38 194.7 343.25 194.03 342.09 193.4 340.96 192.76 339.8 192.09 338.67 191.21 335.45 190.29 332.24 189.37 329.06 188.45 325.85 187.5 322.64 186.58 319.46 185.66 316.25 184.75 313.07 183.86 309.86 182.95 306.65 182.03 303.47 181.11 300.26 180.16 297.04 179.24 293.83 178.32 290.65 177.44 287.48 177.33 286.91 177.26 286.24 177.19 285.46 177.09 284.58 176.98 283.63 176.84 282.64 176.7 281.62 176.56 280.59 176.41 279.57 176.27 278.58 176.13 277.66 175.96 276.78 175.78 276.04 175.6 275.4 175.53 275.12 175.43 274.87 175.36 274.7 175.25 274.56 175.25 274.13 175.25 273.74 175.25 273.39 175.25 272.97 176.27 273.96 177.3 274.94 178.29 275.93 179.28 276.92 180.26 277.94 181.25 278.97 182.17 279.99 183.12 281.05 184.04 282.11 184.96 283.2 185.88 284.3 186.79 285.43 187.68 286.56 188.52 287.72 189.37 288.89 190.25 290.12 191.42 291.01 192.62 291.89 193.78 292.81 194.98 293.69 196.19 294.57 197.35 295.49 198.55 296.37 199.75 297.29 200.77 297.43 201.8 297.57 202.82 297.71 203.88 297.86 204.9 298.03 205.93 298.17 206.95 298.31 207.98 298.46 209.03 298.63 210.06 298.77 211.08 298.92 212.11 299.09 213.16 299.23 214.19 299.37 215.25 299.51 216.27 299.69 216.34 299.55 216.41 299.41 215.6 297.61 214.75 295.84 213.98 294.08 213.16 292.31 212.39 290.55 211.61 288.78 210.87 287.05 210.13 285.29 209.39 283.56 208.65 281.79 207.94 280.06 207.23 278.3 206.56 276.5 205.86 274.73 205.19 272.93 204.52 271.13 204.41 270.25 204.27 269.33 204.16 268.41 204.06 267.5 203.92 266.58 203.81 265.69 203.7 264.78 203.6 263.86 203.49 262.98 203.35 262.06 203.25 261.14 203.14 260.26 203 259.34 202.89 258.42 202.79 257.5 202.68 256.62 202.68 255.6 202.65 254.57 202.65 253.55 202.61 252.56 202.61 251.54 202.57 250.55 202.57 249.53 202.57 248.5 202.54 247.48 202.54 246.49 202.54 245.47 202.5 244.44 202.5 243.46 202.5 242.43 202.47 241.44 202.47 240.42 202.12 236.78 201.83 233.57 201.59 230.78 201.34 228.42 201.16 226.37 201.02 224.67 200.88 223.33 200.81 222.2 200.7 221.32 200.67 220.65 200.63 220.16 200.63 219.8 200.63 219.56 200.63 219.41 200.63 219.34 200.67 219.27 201.97 220.54 203.25 221.85 204.52 223.16 205.82 224.46 207.09 225.77 208.36 227.07 209.63 228.38 210.94 229.65 211.68 230.75 212.42 231.81 213.16 232.83 213.91 233.92 214.65 234.98 215.39 236.01 216.13 237.06 216.87 238.16 217.61 239.22 218.35 240.24 219.13 241.34 219.87 242.4 220.61 243.42 221.35 244.48 222.13 245.57 222.84 246.63 223.86 247.27 224.88 247.94 225.87 248.57 226.9 249.24 227.89 249.91 228.91 250.55 229.9 251.22 230.92 251.86 230.92 251.72 230.92 251.54 230.92 251.33 230.89 251.04 230.75 250.44 230.57 249.7 230.32 248.89 230.04 247.97 229.76 247.06 229.4 246.1 228.73 244.2 228.1 242.47 227.57 241.09 227.29 240.21 227.25 237.95 227.25 235.72 227.25 233.5 227.29 231.31 227.36 229.12 227.46 226.93 227.57 224.74 227.67 222.59 227.85 220.4 228.03 218.25 228.24 216.09 228.45 213.91 228.7 211.75 228.98 209.56 229.26 207.38 229.58 205.22 229.86 203.84 230.15 202.47 230.43 201.09 230.71 199.72 230.96 198.34 231.28 197 231.56 195.62 231.81 194.24 231.52 192.69 231.24 191.14 230.92 189.62 230.64 188.06 230.36 186.51 230.04 184.96 229.76 183.44 229.47 181.89 232.48 182.59 234.77 183.12 236.39 183.51 237.52 183.79 238.26 183.97 238.69 184.11 238.97 184.22 239.15 184.29 239.96 185.13 240.81 185.95 241.69 186.83 242.57 187.71 243.03 188.17 243.46 188.63 243.88 189.12 244.27 189.58 244.66 190.08 245.04 190.57 245.4 191.07 245.71 191.59 246.21 192.83 246.67 194.07 247.16 195.3 247.62 196.5 248.12 197.74 248.57 198.94 249.03 200.17 249.53 201.41 249.67 202.29 249.81 203.17 249.95 204.06 250.09 204.94 250.23 205.82 250.37 206.71 250.51 207.62 250.66 208.5 250.8 209.39 250.97 210.27 251.12 211.15 251.26 212.03 251.4 212.92 251.54 213.8 251.68 214.72 251.82 215.6 253.09 218.14 254.22 220.4 255.21 222.31 256.02 224 256.76 225.41 257.33 226.58 257.82 227.53 258.21 228.31 258.53 228.91 258.74 229.37 258.92 229.69 259.06 229.9 259.13 230.04 259.2 230.11 259.24 230.11 259.27 230.11 259.62 229.3 260.01 228.45 260.36 227.6 260.75 226.76 261.14 225.94 261.49 225.1 261.88 224.25 262.24 223.44 262.62 222.59 262.98 221.74 263.37 220.9 263.75 220.08 264.14 219.24 264.5 218.39 264.88 217.54 265.27 216.73 265.73 215.25 266.15 213.8 266.54 212.32 266.93 210.87 267.32 209.42 267.64 207.94 267.95 206.46 268.27 204.97 268.56 203.53 268.8 202.04 269.05 200.56 269.26 199.08 269.47 197.6 269.68 196.15 269.86 194.67 270.04 193.15 270.18 191.67 270.28 190.18 270.43 188.7 270.53 187.22 270.64 185.74 270.74 184.25 270.81 182.73 270.88 181.25 270.99 178.29 271.06 175.28 271.1 172.32 271.13 169.32 271.13 168.47 271.13 167.59 271.13 166.71 271.13 165.86 271.17 164.98 271.17 164.13 271.17 163.25 271.17 162.4 271.17 161.52 271.17 160.63 271.17 159.79 271.2 158.91 271.2 158.06 271.2 157.18 271.2 156.33 271.2 155.44 271.31 154.56 271.45 153.65 271.59 152.76 271.73 151.88 271.87 151 272.05 150.12 272.23 149.23 272.44 148.31 272.61 147.43 272.83 146.58 273.07 145.7 273.32 144.82 273.78 143.09 274.31 141.4 274.87 139.66 275.4 137.97 276 136.24 276.36 135.18 276.75 134.12 277.1 133.06 277.49 132 277.84 130.94 278.23 129.89 278.58 128.83 278.97 127.77 279.5 130.88 280.03 133.91 280.59 136.98 281.16 140.05 281.83 143.13 282.53 146.23 282.92 147.78 283.35 149.34 283.81 150.89 284.26 152.48 286.56 157.35 288.18 160.25 289.77 163.03 291.36 165.72 292.91 168.4 294.47 171.08 295.95 173.84 296.69 175.25 297.43 176.66 298.14 178.15 298.81 179.66 299.9 182.63 300.54 184.39 301.14 186.12 301.74 187.89 302.37 189.65 302.98 191.38 303.61 193.15 304.21 194.88 304.81 196.64 305.41 198.37 306.05 200.17 306.65 201.9 307.25 203.67 307.88 205.4 308.48 207.16 309.08 208.93 309.29 210.41 309.51 211.93 309.72 213.45 309.89 214.97 310.14 216.48 310.32 218 310.53 219.52 310.74 221.04 310.67 221.6 310.53 222.31 310.39 223.19 310.21 224.18 310.04 225.27 309.79 226.4 309.58 227.6 309.4 228.8 309.19 230 309.01 231.17 308.87 232.33 308.76 233.36 308.69 233.82 308.66 234.28 308.66 234.7 308.66 235.09 308.66 235.44 308.66 235.76 308.69 236.01 308.76 236.22 309.65 235.87 310.56 235.55 311.45 235.19 312.33 234.84 313.25 234.49 314.17 234.17 315.05 233.82 315.97 233.46 316.88 232.58 317.91 231.63 318.93 230.68 319.95 229.65 320.45 229.16 320.94 228.63 321.4 228.13 321.86 227.6 322.29 227.04 322.67 226.51 322.85 226.23 323.03 225.94 323.17 225.66 323.34 225.38 323.59 224.39 323.87 223.4 324.16 222.45 324.44 221.43 324.72 220.47 325 219.48 325.29 218.5 325.57 217.51 325.85 216.52 326.13 215.57 326.42 214.58 326.7 213.59 326.98 212.63 327.26 211.61 327.55 210.66 327.83 209.67 328 208.08 328.18 206.53 328.36 204.94 328.53 203.39 328.71 201.8 328.89 200.24 329.06 198.66 329.24 197.1 329.42 195.51 329.59 193.93 329.77 192.37 329.95 190.78 330.12 189.23 330.3 187.64 330.48 186.09 330.65 184.5 331.29 185.74 331.92 187.01 332.56 188.21 333.19 189.48 333.79 190.68 334.43 191.91 335.06 193.15 335.7 194.38 336.33 195.62 336.97 196.85 337.61 198.09 338.24 199.33 338.88 200.56 339.51 201.8 340.15 203.03 340.78 204.27 340.96 205.72 341.1 207.2 341.31 208.68 341.49 210.13 341.67 211.61 341.84 213.09 341.98 214.58 342.2 216.06 342.34 217.54 342.51 218.99 342.65 220.51 342.8 221.99 342.94 223.47 343.08 224.99 343.18 226.47 343.25 227.96 343.22 228.63 343.22 229.26 343.18 229.9 343.18 230.53 343.15 231.17 343.11 231.84 343.11 232.47 343.08 233.11 343.08 233.75 343.08 234.38 343.08 235.02 343.08 235.69 343.08 236.29 343.08 236.96 343.08 237.59 343.08 238.26 343.08 238.87 343.08 239.5 343.08 240.1 343.08 240.74 343.08 241.37 343.08 242.01 343.08 242.64 343.08 243.28 343.08 243.67 343.04 244.06 343.04 244.44 343.04 244.87 343.04 245.25 343.04 245.64 343.01 246.07 343.01 246.46 342.8 246.95 342.51 247.66 342.13 248.54 341.67 249.56 341.17 250.66 340.68 251.86 340.11 253.13 339.55 254.43 339.05 255.67 338.52 256.94 338.06 258.11 337.68 259.16 337.5 259.69 337.36 260.12 337.22 260.58 337.08 260.93 337.01 261.28 336.97 261.56 336.94 261.81 336.94 261.99 338.24 261.25 339.55 260.51 340.85 259.8 342.2 259.06 343.47 258.32 344.81 257.58 346.11 256.83 347.42 256.13 348.69 254.86 349.93 253.59 351.2 252.31 352.47 251.04 353.74 249.77 354.98 248.5 356.25 247.27 357.52 245.96 358.82 243.42 359.95 241.19 360.98 239.25 361.82 237.59 362.53 236.15 363.13 234.98 363.66 234.03 364.05 233.25 364.4 232.62 364.65 232.12 364.82 231.81 364.97 231.56 365.07 231.38 365.18 231.28 365.21 231.21 365.28 231.13 365.6 232.33 365.95 233.5 366.27 234.66 366.59 235.83 366.94 236.99 367.26 238.19 367.61 239.36 367.93 240.52 368.25 241.69 368.6 242.85 368.92 244.06 369.27 245.22 369.59 246.38 369.91 247.55 370.26 248.75 370.58 249.91 370.72 250.76 370.86 251.61 371 252.46 371.11 253.3 371.25 254.15 371.39 255 371.53 255.85 371.67 256.69 371.78 257.54 371.92 258.39 372.06 259.24 372.2 260.08 372.31 260.93 372.49 261.78 372.63 262.66 372.38 265.59 371.96 267.81 371.5 269.9 371 271.94 370.47 273.92 369.94 275.9 369.38 277.91 368.81 279.96 368.25 282.15 367.61 283.45 366.98 284.76 366.34 286.1 365.67 287.41 365.04 288.75 364.4 290.05 363.76 291.36 363.1 292.7 362.81 293.16 362.35 293.8 361.79 294.57 361.12 295.49 360.41 296.55 359.63 297.64 358.82 298.77 358.01 299.94 357.2 301.1 356.46 302.23 355.75 303.29 355.12 304.28 354.62 305.16 354.2 305.87 354.06 306.19 353.95 306.47 353.88 306.65 353.85 306.82 354.9 306.5 356.7 305.98 358.54 305.45 360.34 304.92 362.18 304.39 363.98 303.86 365.81 303.33 367.61 302.8 369.45 302.27 370.47 301.95 373.33 299.97 375.49 298.49 377.04 297.4 378.1 296.62 378.8 296.13 379.26 295.77 379.55 295.53 379.76 295.28 380.07 293.94 380.36 292.6 380.68 291.25 380.99 289.95 381.28 288.61 381.59 287.26 381.88 285.96 382.19 284.62 382.05 286.7 381.91 288.75 381.81 290.83 381.66 292.91 381.49 295.49 381.35 298.1 381.17 300.68 381.03 303.29 380.85 305.87 380.68 308.48 380.5 311.06 380.32 313.67 380.22 315.72 380.07 317.8 379.62 319.32 379.16 320.87 378.52 322.99 377.92 325.07 377.29 327.19 376.65 329.27 376.01 331.39 375.38 333.51 374.75 335.59 374.11 337.71 373.65 339.23 373.19 340.78 372.73 342.3 371.96 343.54 371.21 344.74 370.44 345.97 369.66 347.17 368.88 348.41 368.11 349.61 367.37 350.85 366.59 352.05 365.81 353.28 365.07 354.48 364.3 355.72 363.55 356.92 362.78 358.15 362 359.39 361.26 360.59 360.48 361.82 359.6 362.42 358.72 363.02 357.87 363.62 356.99 364.26 356.11 364.86 355.26 365.46 354.38 366.06 353.49 366.66 352.61 367.3 351.76 367.86 350.88 368.5 350 369.1 349.15 369.7 348.27 370.3 347.38 370.9 346.54 371.53 345.55 371.99 344.56 372.49 343.54 372.94 342.55 373.44 341.56 373.9 340.57 374.39 339.58 374.85 338.6 375.35 337.61 375.8 336.62 376.3 335.63 376.79 334.64 377.25 333.65 377.75 332.66 378.24 331.68 378.7 330.69 379.19 329.8 379.33 328.92 379.51 328.04 379.65 327.16 379.79 326.27 379.97 325.39 380.11 324.51 380.29 323.63 380.43 322.74 380.57 321.86 380.71 320.98 380.89 320.1 381.03 319.21 381.2 318.37 381.35 317.48 381.52 316.6 381.66 315.75 381.66 314.91 381.66 314.06 381.63 313.21 381.63 312.4 381.63 311.55 381.63 310.71 381.63 309.86 381.63 309.05 381.63 308.2 381.59 307.35 381.59 306.5 381.59 305.69 381.59 304.85 381.59 304 381.59 303.19 381.56 303.19 381.56"/><polygon class="cls-4" points="199.68 398.54 367.79 398.54 367.79 415.66 199.68 415.66 199.68 398.54 199.68 398.54"/><polygon class="cls-5" points="199.68 398.54 367.79 398.54 367.79 415.66 199.68 415.66 199.68 398.54 199.68 398.54"/></svg>