<svg id="Ebene_1" data-name="Ebene 1" xmlns="http://www.w3.org/2000/svg" viewBox="0 0 564.82 564.79"><defs><style>.cls-1{fill:#fff;}.cls-1,.cls-2,.cls-3{fill-rule:evenodd;}.cls-2{fill:#da251d;}.cls-4{fill:none;stroke:#242729;stroke-linecap:square;stroke-miterlimit:10;stroke-width:0.21px;}</style></defs><polygon class="cls-1" points="0.01 282.43 282.25 0.18 564.53 282.43 282.25 564.67 0.01 282.43 0.01 282.43"/><path class="cls-2" d="M20.69,421.32l276.56-276.6,276.6,276.6L297.25,697.88,20.69,421.32Zm44.84,0L297.25,189.59,529,421.32,297.25,653,65.53,421.32Z" transform="translate(-15 -138.89)"/><polygon class="cls-3" points="249.28 281.72 238.05 289.63 224.11 286.49 224.36 287.72 224.6 288.92 224.92 290.16 225.27 291.36 225.66 292.56 226.12 293.73 226.58 294.89 227.11 296.02 227.64 297.15 228.24 298.28 228.88 299.37 229.54 300.43 230.25 301.46 230.99 302.48 231.77 303.43 232.58 304.39 233.43 305.31 234.31 306.19 235.23 307.03 236.18 307.85 237.17 308.62 238.16 309.33 239.22 310 240.28 310.63 241.37 311.24 242.5 311.76 243.67 312.26 244.87 312.68 246.07 313.07 247.3 313.39 248.57 313.64 249.84 313.85 251.5 314.02 253.13 314.17 254.75 314.2 256.34 314.2 257.89 314.13 259.41 314.02 260.93 313.85 262.41 313.6 263.86 313.28 265.31 312.93 266.72 312.51 268.1 312.01 269.44 311.48 270.74 310.88 272.01 310.21 273.29 309.5 274.49 308.73 275.69 307.88 276.81 307 277.94 306.05 279 305.06 280.06 304 281.05 302.87 282.04 301.7 282.96 300.47 283.84 299.2 284.69 297.86 285.5 296.48 286.24 295.03 286.95 293.55 287.62 292 288.25 290.41 282.53 287.51 274.27 279.78 273.21 286.91 262.73 293.37 249.28 281.72 249.28 281.72"/><polygon class="cls-3" points="263.65 273.53 260.61 264.21 270.99 265.66 272.9 259.38 284.94 259.31 284.19 258.32 283.42 257.36 282.61 256.48 281.76 255.6 280.88 254.75 279.96 253.94 279.04 253.13 278.05 252.39 277.1 251.68 276.07 250.97 275.05 250.34 274.03 249.7 272.97 249.14 271.91 248.57 270.85 248.04 269.75 247.55 268.66 247.09 267.6 246.67 266.51 246.28 265.41 245.93 264.32 245.61 263.26 245.33 262.17 245.08 261.11 244.87 260.08 244.66 259.02 244.51 258.04 244.41 257.01 244.3 256.06 244.27 255.1 244.27 254.15 244.27 253.27 244.34 252.14 244.44 251.04 244.62 249.91 244.8 248.82 245.04 247.69 245.33 246.56 245.68 245.43 246.03 244.34 246.46 243.24 246.91 242.15 247.44 241.05 248.01 240 248.61 238.94 249.24 237.88 249.91 236.85 250.66 235.87 251.47 234.91 252.28 233.96 253.16 233.04 254.12 232.12 255.07 231.28 256.09 230.43 257.19 229.65 258.32 228.91 259.48 228.17 260.72 227.5 261.99 226.86 263.3 226.3 264.67 225.73 266.12 225.27 267.57 224.81 269.12 224.43 270.71 229.86 276.32 241.69 274.8 255.1 281.51 263.65 273.53 263.65 273.53"/><polygon class="cls-3" points="164.41 336.83 158.8 329.06 160.46 321.79 161.94 321.93 166.39 325.25 168.22 323.45 172.85 325.43 171.69 328.89 169.53 331.22 165.9 331.22 164.41 336.83 164.41 336.83"/><polygon class="cls-3" points="216.98 325.43 212.67 320.45 217.15 316.14 224.92 316.32 228.06 318.15 226.23 324.44 222.1 326.24 220.61 323.94 216.98 325.43 216.98 325.43"/><polygon class="cls-3" points="181.29 307.7 190.54 307.7 191.03 311.34 187.22 313.18 181.29 307.7 181.29 307.7"/><polygon class="cls-3" points="162.26 289.84 172.5 297.11 161.94 295.95 156.96 296.13 156.96 293.48 162.26 289.84 162.26 289.84"/><polygon class="cls-3" points="197.31 294.15 190.85 292.67 185.42 288.18 188.38 283.24 196.15 282.57 198.13 285.89 203.1 284.37 203.25 291.01 199.29 289.84 197.31 294.15 197.31 294.15"/><polygon class="cls-3" points="268.06 180.3 272.01 182.63 273.67 176.98 277.49 176.98 281.12 187.92 272.01 198.34 270.04 191.56 266.23 189.41 268.06 180.3 268.06 180.3"/><polygon class="cls-3" points="308.73 205.79 310.85 203.63 312.68 208.61 312.68 213.24 309.05 217.86 306.22 217.86 303.26 213.38 304.92 206.46 307.39 203.46 308.73 205.79 308.73 205.79"/><polygon class="cls-3" points="314.17 233.57 309.36 244.51 296.8 255.25 294.68 249.31 287.55 253.62 286.06 249.14 290.69 246.49 294.15 242.01 303.93 242.36 314.17 233.57 314.17 233.57"/><polygon class="cls-3" points="390.03 223.65 382.94 219.84 384.59 212.25 386.22 209.92 395.33 210.24 399.14 200 406.73 213.24 406.06 225.13 395.15 217.86 390.03 223.65 390.03 223.65"/><polygon class="cls-3" points="354.66 233.75 365.57 244.66 355.65 243.35 348.87 242.68 351.69 239.22 351.02 236.71 354.66 233.75 354.66 233.75"/><polygon class="cls-3" points="340.96 273.64 359.95 282.39 359.63 284.23 352.68 290.65 342.09 290.16 338.81 286.52 329.88 289.17 328.22 280.42 335.81 279.43 340.96 273.64 340.96 273.64"/><polygon class="cls-3" points="302.09 300.26 309.36 302.59 311.52 298.95 322.74 304.25 327.55 309.19 326.73 313.67 315.65 310.85 308.55 309.86 300.12 304.42 302.09 300.26 302.09 300.26"/><polygon class="cls-3" points="211.61 259.34 213.27 262.34 239.08 280.06 211.61 259.34 211.61 259.34"/><polygon class="cls-3" points="205.61 267.46 205.19 265.06 234.88 281.12 205.61 267.46 205.61 267.46"/><polygon class="cls-3" points="192.44 273.6 233.22 282.92 189.44 276.32 192.44 273.6 192.44 273.6"/><polygon class="cls-3" points="144.43 280.38 233.53 286.38 146.83 283.98 144.43 280.38 144.43 280.38"/><polygon class="cls-3" points="117.14 303.33 232.33 289.98 115.94 306.5 117.14 303.33 117.14 303.33"/><polygon class="cls-3" points="144.75 312.51 231.28 292.98 144.57 315.65 144.75 312.51 144.75 312.51"/><polygon class="cls-3" points="199.33 306.5 199.93 303.19 234.88 294.04 199.33 306.5 199.33 306.5"/><polygon class="cls-3" points="183.58 324.05 230.22 296.44 183.26 321.37 183.58 324.05 183.58 324.05"/><polygon class="cls-3" points="180.12 344.91 241.16 295.07 183.72 348.69 180.12 344.91 180.12 344.91"/><polygon class="cls-3" points="285.71 171.51 289.91 173.91 264.88 252.6 285.71 171.51 285.71 171.51"/><polygon class="cls-3" points="307 134.44 314.52 139.06 271.03 259.06 270.11 258.74 263.68 256.48 307 134.44 307 134.44"/><polygon class="cls-3" points="305.06 189.37 309.26 192.09 270.57 256.34 305.06 189.37 305.06 189.37"/><polygon class="cls-3" points="262.31 275.86 360.27 169.57 364.44 174.23 262.31 275.86 262.31 275.86"/><polygon class="cls-3" points="273.25 272.4 363.69 208.29 363.69 216.55 273.25 272.4 273.25 272.4"/><polygon class="cls-3" points="282.25 270.6 335.67 245.22 335.52 249.88 282.25 270.6 282.25 270.6"/><polygon class="cls-3" points="270 275.62 428.79 234.74 431.02 240 270 275.62 270 275.62"/><polygon class="cls-3" points="275.83 280.38 450.01 250.9 450.33 257.33 275.83 280.38 275.83 280.38"/><polygon class="cls-3" points="276.43 286.06 427.27 291.15 431.33 294.32 276.43 286.06 276.43 286.06"/><polygon class="cls-3" points="277.63 291.32 349.75 301.95 347.67 310.46 277.63 291.32 277.63 291.32"/><polygon class="cls-3" points="276.14 292.95 322.96 319.6 325.07 324.08 276.14 292.95 276.14 292.95"/><polygon class="cls-3" points="262.38 285.78 328.96 334.11 325.81 336.37 262.38 285.78 262.38 285.78"/><polygon class="cls-3" points="312.19 327.97 314.59 332.91 269.54 296.87 312.19 327.97 312.19 327.97"/><polyline class="cls-4" points="0.15 282.22 282.25 0.15 564.67 282.22 282.25 564.64 0.15 282.22"/></svg>