<svg id="Ebene_1" data-name="Ebene 1" xmlns="http://www.w3.org/2000/svg" viewBox="0 0 564.82 564.79"><defs><style>.cls-1{fill:#fff;}.cls-1,.cls-2,.cls-4{fill-rule:evenodd;}.cls-2{fill:#da251d;}.cls-3,.cls-5{fill:none;stroke-linecap:square;stroke-miterlimit:10;stroke-width:0.21px;}.cls-3{stroke:#242729;}.cls-5{stroke:#000;}</style></defs><polygon class="cls-1" points="0.01 282.43 282.25 0.18 564.53 282.43 282.25 564.67 0.01 282.43 0.01 282.43"/><path class="cls-2" d="M20.69,421.32l276.56-276.6,276.6,276.6L297.25,697.88,20.69,421.32Zm44.84,0L297.25,189.59,529,421.32,297.25,653,65.53,421.32Z" transform="translate(-15 -138.89)"/><polyline class="cls-3" points="0.15 282.22 282.25 0.15 564.67 282.22 282.25 564.64 0.15 282.22"/><polygon class="cls-4" points="176.63 363.98 175.07 363.62 173.94 363.27 172.88 362.92 171.86 362.53 170.91 362.07 170.06 361.65 169.21 361.19 168.47 360.69 167.77 360.2 167.09 359.67 166.5 359.11 165.93 358.5 165.4 357.87 164.94 357.23 164.48 356.56 164.06 355.89 163.67 355.15 163.32 354.38 163 353.6 162.68 352.79 162.4 351.94 162.15 351.06 161.91 350.17 161.62 349.22 161.41 348.27 161.16 347.28 160.95 346.22 160.49 344.1 160 341.81 158.13 340.71 156.26 339.69 154.39 338.63 152.59 337.57 151.7 337.04 150.86 336.48 150.04 335.95 149.2 335.38 148.46 334.78 147.71 334.18 147.01 333.58 146.34 332.95 145.74 332.28 145.17 331.61 144.64 330.9 144.22 330.16 143.8 329.38 143.48 328.6 143.2 327.79 142.98 326.91 142.84 326.03 142.77 325.07 142.81 324.12 142.91 323.1 143.09 322.04 143.37 320.91 143.72 319.78 144.29 318.54 145.17 317.48 146.16 316.46 147.19 315.54 148.17 314.66 149.2 313.88 150.26 313.18 151.35 312.54 152.41 311.98 153.5 311.48 154.6 311.06 155.73 310.71 156.86 310.39 157.99 310.14 159.15 309.93 160.28 309.79 161.48 309.72 162.65 309.68 163.85 309.72 165.05 309.75 166.28 309.86 167.48 310 168.75 310.18 169.96 310.42 171.23 310.67 172.5 310.95 173.77 311.27 175.04 311.62 176.34 312.01 177.62 312.4 178.92 312.82 180.26 313.25 181.57 313.71 182.56 313.71 183.55 313.71 184.53 313.71 185.52 313.71 186.55 313.71 187.53 313.71 188.52 313.71 189.55 313.71 192.19 312.44 194.84 311.2 197.53 309.93 200.17 308.66 202.86 307.42 205.5 306.15 208.15 304.88 210.84 303.64 213.48 302.41 216.13 301.14 218.81 299.9 221.5 298.63 224.14 297.36 226.79 296.13 229.47 294.89 232.12 293.62 231.81 292.95 231.49 292.24 231.17 291.57 230.85 290.9 230.57 290.19 230.25 289.52 229.93 288.85 229.62 288.18 221.46 284.02 214.33 280.38 208.12 277.27 202.79 274.56 198.23 272.26 194.46 270.36 191.31 268.8 188.77 267.53 186.72 266.51 185.13 265.77 183.94 265.2 183.05 264.78 182.35 264.5 181.82 264.32 181.39 264.18 181 264.11 179.59 264.11 178.32 264.14 177.12 264.18 176.06 264.25 175.04 264.35 174.12 264.5 173.66 264.6 173.24 264.67 172.78 264.78 172.35 264.88 171.47 265.13 170.63 265.41 169.74 265.73 168.79 266.12 167.84 266.51 166.81 266.97 165.68 267.5 164.45 268.06 162.54 268.52 160.78 268.87 159.08 269.15 157.46 269.26 155.94 269.33 154.49 269.26 153.12 269.08 151.84 268.84 150.68 268.52 149.55 268.06 148.56 267.57 147.61 266.97 146.76 266.3 145.98 265.52 145.28 264.67 144.68 263.75 144.11 262.8 143.69 261.78 143.3 260.65 142.98 259.45 142.77 258.25 142.63 256.94 142.56 255.6 142.56 254.22 142.67 252.77 142.81 251.29 143.05 249.77 143.34 248.22 143.72 246.6 144.18 244.94 144.71 243.28 145.31 241.58 145.88 240.81 146.41 240.1 146.9 239.47 147.4 238.87 148.28 237.88 149.09 236.99 149.8 236.22 150.43 235.55 150.75 235.19 151.03 234.88 151.31 234.52 151.6 234.17 152.02 232.19 152.51 230.36 153.04 228.66 153.65 227.15 154.28 225.7 154.99 224.43 155.73 223.26 156.5 222.24 157.35 221.32 158.23 220.51 159.15 219.84 160.1 219.27 161.09 218.81 162.12 218.46 163.18 218.25 164.27 218.11 165.4 218.07 166.57 218.11 167.77 218.28 168.97 218.53 170.2 218.88 171.44 219.31 172.71 219.84 173.98 220.4 175.28 221.11 176.59 221.85 177.93 222.66 179.28 223.58 180.62 224.53 181.96 225.59 183.33 226.69 184.92 228.42 186.76 230.89 188.35 233.22 189.62 235.02 190.61 236.39 191.03 236.99 191.45 237.56 191.91 238.09 192.34 238.62 193.29 239.78 194.49 241.13 195.2 241.51 196.11 242.01 197.21 242.61 198.44 243.31 199.82 244.09 201.3 244.87 202.86 245.68 204.41 246.53 205.96 247.3 207.52 248.04 208.26 248.36 208.96 248.68 209.67 249 210.38 249.24 211.01 249.49 211.61 249.7 212.18 249.84 212.74 249.99 213.24 250.09 213.66 250.13 214.01 250.13 214.37 250.09 213.31 248.78 212.28 247.51 211.33 246.28 210.38 245.04 209.92 244.44 209.49 243.81 209.1 243.21 208.72 242.57 208.36 241.9 208.26 241.58 208.05 241.05 207.94 240.74 207.87 240.38 207.8 240 207.76 239.57 207.69 238.83 207.66 238.09 207.66 237.31 207.62 236.61 207.69 235.02 207.76 233.39 207.83 231.81 207.91 230.18 207.98 228.59 208.05 226.97 208.12 225.38 208.19 223.79 208.26 222.17 208.33 220.58 208.4 218.99 208.5 217.37 208.54 215.78 208.61 214.15 208.01 213.02 207.38 211.89 206.74 210.76 206.1 209.6 205.5 208.47 204.87 207.34 204.23 206.21 203.63 205.04 203 203.92 202.36 202.79 201.76 201.66 201.13 200.49 200.49 199.36 199.89 198.23 199.29 197.1 198.69 196.08 198.13 195.09 197.6 194.07 197.07 193.01 196.71 192.09 196.36 191.17 196.04 190.29 195.73 189.37 195.44 188.49 195.2 187.64 194.98 186.76 194.77 185.95 194.6 185.1 194.46 184.25 194.38 183.41 194.28 182.59 194.24 181.75 194.21 180.93 194.21 180.12 194.24 179.31 194.35 178.5 194.46 177.69 194.6 176.84 194.74 176.03 194.95 175.22 195.2 174.37 195.48 173.56 195.76 172.67 196.11 171.83 196.47 170.98 196.89 170.1 197.35 169.21 197.81 168.33 197.99 168.05 198.23 167.69 198.51 167.34 198.73 167.09 200.63 165.26 202.89 163.14 205.19 160.99 207.45 158.83 209.74 156.72 212.03 154.56 214.33 152.41 216.59 150.29 218.88 148.14 221.18 145.98 223.44 143.83 225.73 141.71 227.99 139.56 230.29 137.41 232.58 135.29 234.88 133.17 236.36 132.25 237.81 131.44 239.29 130.59 240.74 129.78 242.18 129 243.67 128.26 245.11 127.56 246.56 126.85 248.01 126.18 249.46 125.58 250.94 124.94 252.39 124.34 253.83 123.81 255.32 123.28 256.8 122.79 258.28 122.3 259.8 121.87 261.32 121.45 262.84 121.06 264.35 120.71 265.91 120.36 267.46 120.07 269.05 119.79 270.64 119.54 272.26 119.33 273.92 119.12 275.55 118.98 277.24 118.87 278.93 118.73 280.66 118.7 282.43 118.63 284.23 118.63 286.28 118.98 288.29 119.3 290.3 119.68 292.28 120.04 294.25 120.46 296.23 120.92 298.14 121.38 300.08 121.87 301.03 122.12 302.02 122.44 302.98 122.72 303.96 123 304.92 123.32 305.87 123.64 306.82 123.99 307.81 124.34 308.76 124.7 309.75 125.08 310.71 125.47 311.69 125.9 312.68 126.36 313.64 126.78 314.66 127.24 315.65 127.73 317.06 128.83 318.51 129.96 319.95 131.09 321.37 132.22 324.23 134.55 327.12 136.91 329.95 139.31 332.81 141.75 335.67 144.22 338.49 146.69 341.31 149.2 344.14 151.7 346.96 154.25 349.79 156.75 352.57 159.29 355.4 161.8 358.15 164.31 360.94 166.81 361.96 168.33 362.85 169.85 363.59 171.4 364.22 172.92 364.72 174.44 365.11 175.96 365.39 177.47 365.53 178.99 365.6 180.47 365.57 181.99 365.43 183.48 365.21 184.96 364.93 186.44 364.58 187.96 364.15 189.44 363.62 190.92 363.06 192.41 362.46 193.85 361.82 195.34 361.12 196.78 360.38 198.27 359.6 199.72 358.79 201.16 357.98 202.65 356.28 205.54 354.55 208.43 353.7 209.85 352.86 211.29 352.05 212.74 351.23 214.15 351.3 215.28 351.37 216.45 351.48 217.68 351.59 218.92 351.83 221.5 352.05 224.22 352.19 225.59 352.26 226.97 352.33 228.42 352.43 229.79 352.47 231.24 352.47 232.62 352.43 234.06 352.4 235.44 352.29 236.82 352.15 238.23 351.94 239.57 351.69 240.88 351.41 242.18 351.06 243.46 350.63 244.69 350.14 245.85 349.57 247.02 348.94 248.11 348.23 249.17 347.38 250.16 346.5 251.12 345.51 251.96 344.45 252.77 343.25 253.52 343.64 253.59 344.1 253.59 344.7 253.52 345.34 253.38 346.08 253.16 346.89 252.92 347.77 252.6 348.69 252.25 349.68 251.82 350.74 251.36 351.83 250.87 352.96 250.34 354.09 249.77 355.26 249.17 356.46 248.57 357.66 247.9 358.89 247.27 360.06 246.6 361.29 245.93 362.46 245.22 363.62 244.51 364.75 243.81 365.88 243.14 366.94 242.47 367.97 241.79 368.92 241.13 369.84 240.49 370.72 239.89 371.5 239.29 372.2 238.72 372.8 238.19 373.44 237.45 374.11 236.53 374.81 235.37 375.52 234.24 376.23 233.15 376.97 232.12 377.68 231.1 378.35 230.15 379.09 229.23 379.79 228.34 380.53 227.5 381.28 226.69 382.02 225.91 382.76 225.17 383.54 224.5 384.35 223.83 385.16 223.19 386.01 222.63 386.89 222.1 387.77 221.6 388.69 221.11 389.64 220.68 390.63 220.3 391.65 219.94 392.75 219.63 393.81 219.38 394.97 219.13 396.17 218.92 397.41 218.78 398.71 218.64 400.02 218.53 401.43 218.46 402.7 218.6 403.69 218.96 404.47 219.45 405.14 219.94 405.77 220.4 406.38 220.86 406.9 221.32 407.36 221.81 407.82 222.27 408.25 222.77 408.6 223.23 408.95 223.69 409.24 224.18 409.52 224.64 409.8 225.13 410.01 225.63 410.22 226.12 410.47 226.65 410.65 227.15 410.86 227.71 411.04 228.24 411.42 229.37 411.81 230.53 412.02 231.13 412.24 231.77 412.48 232.44 412.76 233.11 413.05 233.78 413.37 234.49 413.72 235.23 414.11 235.97 414.88 236.5 415.63 237.06 416.3 237.63 416.93 238.26 417.5 238.94 418.02 239.64 418.52 240.38 418.94 241.16 419.37 241.97 419.72 242.78 420.07 243.67 420.32 244.51 420.57 245.43 420.78 246.35 420.99 247.27 421.13 248.22 421.27 249.17 421.34 250.13 421.41 251.08 421.45 252.07 421.45 253.02 421.45 254.01 421.41 255 421.34 255.95 421.27 256.9 421.17 257.86 421.06 258.81 420.92 259.73 420.78 260.65 420.64 261.53 420.46 262.41 420.07 263.3 419.51 264.25 418.7 265.13 417.88 265.94 417.07 266.65 416.23 267.28 415.41 267.81 414.57 268.31 413.72 268.7 412.87 269.01 412.02 269.3 411.14 269.51 410.26 269.61 409.38 269.72 408.49 269.75 407.58 269.72 406.69 269.61 405.77 269.51 404.86 269.33 403.94 269.12 402.99 268.87 402.07 268.59 401.12 268.27 400.2 267.95 399.24 267.57 398.29 267.18 397.34 266.79 396.35 266.37 395.4 265.94 393.45 265.02 391.48 264.32 389.82 264.11 388.26 264.11 387.49 264.11 386.75 264.14 386.01 264.18 385.3 264.21 384.59 264.28 383.89 264.35 383.18 264.42 382.44 264.53 381.73 264.67 380.99 264.85 380.29 265.02 379.51 265.2 376.37 266.79 373.23 268.38 370.12 269.97 366.94 271.56 363.8 273.14 360.69 274.73 357.55 276.32 354.41 277.91 351.27 279.5 348.13 281.09 344.99 282.68 341.84 284.26 338.7 285.85 335.56 287.44 332.42 289.03 329.38 290.73 328.18 291.54 329.7 292.45 332.52 293.76 335.35 295.1 338.17 296.41 341 297.75 343.82 299.09 346.68 300.4 349.5 301.74 352.33 303.08 355.15 304.39 357.98 305.73 360.8 307.07 363.62 308.38 366.45 309.72 369.31 311.06 372.13 312.37 374.11 313.21 375.87 313.56 377.04 313.67 380.18 313.74 381.91 313.64 383.36 313.46 385.33 312.89 387.67 312.15 388.76 311.8 389.85 311.48 390.95 311.2 392.01 310.92 393.07 310.67 394.09 310.42 395.11 310.25 396.14 310.07 397.16 309.93 398.15 309.82 399.17 309.75 400.16 309.72 401.15 309.68 402.18 309.72 403.16 309.79 404.15 309.89 405.18 310.04 406.2 310.21 407.22 310.46 408.25 310.71 409.31 311.02 410.37 311.38 411.46 311.8 412.55 312.26 413.68 312.75 414.81 313.32 415.98 313.92 417.04 314.62 417.99 315.47 418.73 316.43 419.47 317.45 419.93 318.23 420.32 318.79 420.67 319.39 420.96 319.99 421.17 320.66 421.38 321.3 421.52 321.97 421.63 322.6 421.7 323.31 421.7 323.98 421.7 324.69 421.63 325.39 421.52 326.06 421.38 326.77 421.2 327.47 420.99 328.14 420.74 328.85 420.46 329.52 420.14 330.16 419.79 330.83 419.4 331.46 419.01 332.1 418.59 332.7 418.1 333.3 417.64 333.86 417.11 334.39 416.58 334.89 415.84 335.38 414.57 336.19 413.15 336.97 411.67 337.78 410.22 338.6 408.81 339.37 407.33 340.18 405.88 341 404.47 341.81 404.15 343.18 403.87 344.53 403.59 345.83 403.27 347.1 402.95 348.34 402.6 349.54 402.25 350.7 401.86 351.8 401.47 352.89 401.05 353.92 400.59 354.9 400.13 355.82 399.6 356.74 399.03 357.59 398.47 358.36 397.83 359.11 397.16 359.78 396.46 360.41 395.68 361.01 394.9 361.51 394.06 361.96 393.14 362.35 392.18 362.71 391.16 362.99 390.07 363.2 388.94 363.34 387.74 363.41 386.43 363.45 385.09 363.38 383.71 363.24 382.19 363.06 380.78 362.67 379.48 362.14 378.42 361.58 377.46 360.98 376.55 360.41 375.7 359.85 374.92 359.28 374.21 358.75 373.58 358.19 372.98 357.62 372.45 357.06 371.99 356.53 371.53 355.96 371.11 355.36 370.75 354.8 370.4 354.2 370.12 353.56 369.84 352.96 369.56 352.33 369.31 351.66 369.06 350.95 368.6 349.5 368.11 347.95 367.61 346.25 367.01 344.42 366.7 343.47 366.34 342.41 365.95 341.38 364.54 339.12 363.84 338.24 363.48 337.78 363.1 337.25 362.67 336.72 362.14 336.09 359.42 334.29 356.46 332.84 353.49 331.46 350.53 330.05 347.56 328.64 344.6 327.23 341.67 325.81 338.7 324.4 335.74 322.99 332.81 321.58 329.84 320.17 326.87 318.79 323.94 317.34 320.98 315.97 318.01 314.55 315.08 313.14 313.71 312.44 312.47 313.39 310.74 314.48 309.01 315.47 307.25 316.5 305.55 317.45 303.82 318.37 302.09 319.21 300.36 320.1 298.63 320.91 296.87 321.69 295.14 322.46 293.37 323.24 291.57 324.01 289.77 324.72 287.94 325.43 286.17 325.99 284.16 326.49 282.04 326.73 279.68 326.52 278.55 326.38 277.38 326.17 276.21 325.92 275.05 325.67 273.88 325.39 272.72 325.04 271.56 324.72 270.36 324.33 269.23 323.94 268.02 323.52 266.86 323.1 265.73 322.64 264.56 322.18 263.44 321.69 262.31 321.23 261.18 320.7 260.05 320.17 258.95 319.67 257.89 319.14 256.8 318.61 254.72 317.52 252.67 316.43 250.73 315.33 248.89 314.27 247.97 313.78 247.16 314.27 244.34 315.61 241.51 316.92 238.69 318.26 235.87 319.6 233.04 320.94 230.22 322.29 227.43 323.63 224.6 324.97 221.78 326.31 218.96 327.65 216.13 328.99 213.34 330.33 210.52 331.68 207.73 333.02 204.9 334.36 202.96 335.31 201.73 336.26 200.67 337.71 200.1 338.81 199.75 339.41 199.43 340.01 199.12 340.64 198.8 341.24 198.48 341.84 198.16 342.51 197.88 343.15 197.28 344.53 196.71 345.87 196.43 347.07 196.22 348.13 195.97 349.15 195.69 350.1 195.41 351.02 195.09 351.87 194.77 352.72 194.42 353.49 194.03 354.23 193.61 354.94 193.22 355.61 192.72 356.28 192.27 356.88 191.77 357.45 191.24 358.01 190.68 358.54 190.08 359 189.48 359.49 188.84 359.92 188.17 360.34 187.47 360.73 186.72 361.12 185.98 361.51 185.17 361.82 184.36 362.18 183.48 362.5 182.59 362.81 181.64 363.1 180.69 363.38 179.31 363.84 177.97 364.01 176.63 363.98 176.63 363.98"/><polygon class="cls-1" points="175.32 355.26 173.52 354.16 173.17 353.88 172.85 353.63 172.5 353.35 172.21 353.1 171.93 352.79 171.65 352.5 171.4 352.15 171.16 351.8 170.91 351.41 170.66 350.99 170.41 350.53 170.1 348.94 169.81 347.31 169.53 345.69 169.21 344.1 168.93 342.48 168.61 340.89 168.33 339.3 168.01 337.68 167.69 336.09 167.41 334.46 167.09 332.84 166.81 331.25 166.5 329.66 166.21 328.04 165.9 326.45 165.47 325.07 164.73 324.4 164.34 324.19 163.95 324.05 163.6 323.91 163.25 323.84 162.89 323.77 162.58 323.7 162.22 323.7 161.91 323.66 161.55 323.66 161.06 323.63 160.03 323.66 159.19 324.08 158.84 324.47 158.55 324.83 158.27 325.18 158.06 325.57 157.88 325.92 157.74 326.27 157.63 326.66 157.53 327.05 157.46 327.47 157.42 327.9 157.42 328.36 157.42 328.85 157.46 329.38 157.49 329.95 157.6 330.58 156.54 329.98 155.59 329.38 154.74 328.82 153.96 328.29 153.29 327.76 152.69 327.23 152.2 326.73 151.77 326.24 151.46 325.78 151.17 325.29 151 324.86 150.89 324.4 150.89 324.01 150.93 323.56 151.07 323.17 151.24 322.78 151.49 322.39 151.81 322.04 152.2 321.69 152.66 321.33 153.15 320.98 153.72 320.66 154.35 320.31 155.02 319.99 155.76 319.71 156.54 319.39 157.39 319.07 158.23 318.79 159.15 318.54 160.1 318.23 161.59 317.84 163.28 317.7 164.34 317.77 165.4 317.87 166.43 317.98 167.41 318.12 168.4 318.3 169.35 318.47 170.27 318.68 171.23 318.93 172.14 319.14 173.03 319.39 173.91 319.64 175.71 320.17 177.47 320.66 178.36 320.87 179.24 321.08 180.16 321.3 181.04 321.47 181.99 321.65 182.91 321.79 183.86 321.9 184.85 321.97 185.84 322.04 186.87 322.04 187.89 322 188.95 321.9 190.04 321.79 191.17 321.61 192.34 321.4 193.54 321.12 196.22 319.88 198.87 318.65 201.55 317.45 204.2 316.21 206.88 314.98 209.56 313.74 212.25 312.54 214.9 311.31 217.58 310.07 220.26 308.83 222.91 307.63 225.59 306.4 228.28 305.16 230.96 303.93 233.64 302.69 236.29 301.46 236.75 302.27 237.21 303.12 237.66 303.93 238.16 304.74 238.62 305.55 239.08 306.36 239.54 307.18 240.03 308.02 238.83 308.94 237.59 309.79 236.29 310.63 234.98 311.45 233.64 312.22 232.3 312.96 230.89 313.67 229.47 314.34 228.03 315.01 226.58 315.65 225.1 316.32 223.62 316.92 220.61 318.19 217.61 319.39 216.09 319.99 214.58 320.63 213.06 321.26 211.58 321.9 210.09 322.57 208.61 323.24 207.13 323.91 205.68 324.65 204.23 325.39 202.82 326.17 201.44 326.98 200.07 327.83 198.73 328.75 197.42 329.66 196.15 330.65 195.23 331.43 194.49 332.28 194.07 332.91 193.68 333.51 193.29 334.15 192.94 334.71 192.58 335.35 192.27 335.95 191.95 336.51 191.63 337.11 191.35 337.68 191.07 338.28 190.82 338.84 190.29 340.01 189.83 341.21 189.41 342.41 188.98 343.61 188.59 344.84 188.21 346.11 187.85 347.42 187.47 348.8 187.08 350.17 186.62 351.13 186.02 351.9 185.17 352.47 184.53 352.89 183.86 353.35 183.16 353.85 182.77 354.09 182.38 354.34 181.99 354.55 181.57 354.8 180.86 354.98 179.34 355.22 178.15 355.36 176.49 355.5 175.32 355.26 175.32 355.26"/><polygon class="cls-1" points="383.46 354.76 382.69 354.3 381.98 353.85 381.31 353.39 380.68 352.89 380.11 352.4 379.58 351.87 379.09 351.37 378.63 350.81 378.24 350.28 377.85 349.71 377.5 349.12 377.14 348.55 376.83 347.92 376.58 347.31 376.3 346.68 376.05 346.04 375.8 345.41 375.56 344.7 375.1 343.36 374.67 341.95 374.18 340.47 373.65 338.91 373.37 338.14 373.05 337.32 372.7 336.51 370.83 333.9 369.94 332.95 369.03 331.99 368.6 331.5 368.18 331.04 367.51 330.33 367.01 329.8 366.63 329.42 366.27 329.13 365.88 328.82 365.35 328.46 364.65 327.97 363.66 327.3 360.8 325.92 357.98 324.51 355.12 323.13 352.26 321.75 349.43 320.38 346.57 319 343.75 317.63 340.89 316.21 338.06 314.84 335.21 313.46 332.38 312.08 329.52 310.71 326.66 309.33 323.84 307.92 321.01 306.54 321.86 305.16 322.5 304.07 323.06 303.19 323.52 302.52 323.94 301.95 324.4 301.31 324.97 300.68 325.67 299.87 328.53 301.21 331.36 302.52 334.18 303.86 337.01 305.16 339.83 306.5 342.65 307.85 345.48 309.15 348.34 310.49 351.16 311.8 353.99 313.14 356.81 314.45 359.63 315.79 362.46 317.13 365.32 318.44 368.14 319.78 370.51 320.8 372.45 321.47 373.93 321.72 375.35 321.86 376.72 321.97 378.06 322 379.37 321.97 380.64 321.86 381.91 321.69 383.15 321.51 384.35 321.3 385.51 321.05 386.71 320.77 389.04 320.17 391.41 319.57 392.54 319.32 393.74 319.04 394.9 318.82 396.1 318.61 397.3 318.47 398.54 318.37 399.77 318.3 401.08 318.3 402.39 318.4 403.73 318.54 405.11 318.75 406.52 319.07 407.96 319.53 409.45 320.06 411 320.66 412.17 321.44 412.59 322.32 412.94 323.59 412.98 324.05 413.01 324.44 413.05 324.83 413.05 325.18 413.05 325.53 413.01 325.81 412.98 326.13 412.91 326.38 412.84 326.63 412.73 326.87 412.62 327.09 412.48 327.3 412.34 327.47 412.13 327.69 411.92 327.86 411.71 328.04 411.46 328.22 411.14 328.39 410.86 328.57 410.54 328.75 408.95 329.56 406.87 330.58 406.76 329.35 406.66 328.29 406.55 327.33 406.45 326.56 406.38 326.2 406.31 325.85 406.23 325.57 406.13 325.29 406.02 325.04 405.92 324.83 405.77 324.62 405.63 324.44 405.46 324.26 405.28 324.12 405.07 324.01 404.86 323.91 404.61 323.84 404.36 323.77 404.05 323.73 403.73 323.7 403.38 323.66 402.99 323.63 402.6 323.63 402.18 323.63 401.15 323.66 400.02 323.73 399.17 323.87 398.89 324.86 398.15 328.85 397.48 332.38 396.92 335.45 396.38 338.1 395.96 340.36 395.61 342.3 395.29 343.93 395.01 345.3 394.76 346.47 394.55 347.46 394.37 348.27 394.2 348.97 394.06 349.68 393.88 350.28 393.7 350.95 393.49 351.66 393.24 351.97 393 352.26 392.78 352.57 392.54 352.82 392.29 353.07 392.08 353.28 391.87 353.49 391.65 353.67 391.44 353.85 391.2 354.02 390.98 354.16 390.74 354.3 390.52 354.41 390.31 354.52 390.07 354.62 389.82 354.73 389.36 354.87 388.94 355.12 388.16 355.26 386.96 355.4 385.33 355.29 383.46 354.76 383.46 354.76"/><polygon class="cls-1" points="276.29 317.24 272.54 315.93 270.78 315.3 269.05 314.69 267.35 314.1 265.73 313.46 264.14 312.82 262.62 312.19 261.14 311.52 259.69 310.85 258.28 310.14 256.94 309.4 255.63 308.66 254.36 307.85 253.13 307 251.93 306.12 250.76 305.2 249.63 304.21 248.54 303.15 247.48 302.06 246.46 300.86 245.43 299.62 244.44 298.31 243.49 296.9 242.57 295.42 241.69 293.87 240.81 292.21 239.92 290.44 239.11 288.61 238.3 286.67 238.3 285.39 238.26 284.12 238.23 282.89 238.23 281.65 238.19 280.38 238.19 279.14 238.19 277.91 238.16 276.67 238.16 275.4 238.12 274.17 238.12 272.93 238.09 271.66 238.09 270.43 238.09 269.19 238.05 267.92 238.02 266.68 239.92 267.71 241.58 268.63 242.32 269.01 243 269.4 243.63 269.79 244.2 270.14 244.72 270.5 245.18 270.85 245.57 271.2 245.96 271.52 246.31 271.87 246.63 272.23 246.88 272.61 247.09 273 247.3 273.39 247.48 273.85 247.62 274.27 247.73 274.77 247.8 275.3 247.9 275.86 247.94 276.46 247.97 277.1 248.01 278.55 248.01 280.2 248.01 282.15 248.01 284.33 248.68 285.39 249.35 286.38 250.09 287.34 250.9 288.29 251.72 289.21 252.6 290.09 253.52 290.9 254.43 291.71 255.42 292.49 256.45 293.23 257.47 293.94 258.53 294.61 259.62 295.24 260.75 295.84 261.92 296.41 263.05 296.97 264.25 297.47 265.45 297.96 266.65 298.38 267.92 298.81 269.12 299.2 270.39 299.55 271.66 299.83 272.93 300.12 274.2 300.36 275.47 300.57 276.75 300.75 278.02 300.86 279.29 300.96 280.56 301.07 281.86 301.14 282.78 301.07 283.7 301 284.19 300.96 284.69 300.93 285.18 300.82 285.71 300.71 286.63 300.54 287.51 300.33 288.36 300.15 289.14 299.97 289.91 299.76 290.65 299.51 291.36 299.27 292.07 298.95 295.07 297.75 296.13 297.43 297.19 297.04 298.21 296.69 299.23 296.27 300.22 295.84 301.21 295.38 302.16 294.93 303.15 294.43 304.03 293.9 304.95 293.34 305.83 292.74 306.68 292.07 307.53 291.43 308.34 290.69 309.08 289.95 309.82 289.14 310.56 288.29 311.2 287.37 311.87 286.42 312.47 285.39 313.04 284.33 313 282.39 313 280.66 312.96 279.14 312.96 277.8 312.96 277.17 312.96 276.6 313 276.11 313.07 275.58 313.14 275.12 313.25 274.66 313.35 274.24 313.53 273.85 313.67 273.46 313.88 273.04 314.13 272.69 314.41 272.33 314.73 271.98 315.08 271.63 315.47 271.24 315.93 270.88 316.43 270.5 316.99 270.11 317.56 269.72 318.23 269.3 319.71 268.41 321.44 267.39 321.44 268.7 321.47 270 321.47 271.31 321.47 272.61 321.47 273.92 321.47 275.23 321.51 276.53 321.51 277.87 321.51 279.18 321.51 280.49 321.54 281.79 321.54 283.1 321.54 284.4 321.54 285.71 321.54 287.02 321.58 288.32 320.84 289.91 320.06 291.47 319.25 292.98 318.37 294.43 317.48 295.84 316.53 297.22 315.54 298.56 314.52 299.83 313.46 301.07 312.33 302.27 311.2 303.4 310.04 304.53 308.8 305.59 307.56 306.61 306.29 307.6 304.95 308.55 303.61 309.47 302.23 310.32 300.82 311.17 299.41 311.94 297.93 312.72 296.44 313.39 294.93 314.1 293.41 314.73 291.96 315.44 291.15 315.86 290.3 316.21 289.42 316.53 288.57 316.88 287.8 317.17 287.02 317.45 286.21 317.73 285.39 317.98 284.58 318.23 283.74 318.4 283.31 318.44 282.89 318.51 282.46 318.54 282 318.54 281.23 318.51 280.49 318.44 279.78 318.3 279.07 318.12 278.4 317.94 277.7 317.7 276.99 317.48 276.29 317.24 276.29 317.24"/><polygon class="cls-1" points="277.17 292.52 272.47 291.15 270.74 290.65 269.05 290.12 268.17 289.81 267.32 289.52 266.44 289.21 265.63 288.89 264.78 288.54 263.96 288.18 263.19 287.83 262.41 287.44 261.67 287.02 260.93 286.59 260.22 286.17 259.59 285.68 258.95 285.22 258.39 284.69 257.89 284.19 257.4 283.66 256.98 283.06 256.59 282.46 256.27 281.86 255.99 281.23 255.99 280.1 255.99 279 255.99 277.91 255.99 276.78 255.99 275.69 255.99 274.59 255.99 273.5 255.99 272.37 255.78 271.84 255.53 271.31 255.28 270.78 255 270.28 254.47 269.33 253.94 268.41 253.41 267.57 252.95 266.79 252.74 266.44 252.56 266.12 252.42 265.8 252.32 265.52 250.48 264.39 248.68 263.3 246.84 262.17 245.01 261.04 243.21 259.9 241.37 258.78 239.54 257.68 237.74 256.55 235.9 255.42 234.1 254.29 232.3 253.16 230.46 252.03 228.66 250.94 226.83 249.81 225.03 248.68 223.19 247.55 222.56 246.88 221.92 246.14 221.39 245.4 220.86 244.62 220.4 243.81 219.98 243 219.59 242.18 219.24 241.34 218.96 240.45 218.67 239.57 218.43 238.69 218.25 237.77 218.11 236.85 217.97 235.94 217.82 234.98 217.75 234.06 217.72 233.11 217.68 232.16 217.68 231.21 217.72 230.25 217.72 229.3 217.79 228.34 217.86 227.39 217.93 226.47 218.04 225.56 218.14 224.6 218.25 223.69 218.35 222.8 218.64 221.04 218.92 219.34 219.48 217.82 219.87 216.66 220.19 215.78 220.4 215.07 220.44 214.79 220.51 214.51 220.54 214.26 220.58 213.98 220.61 213.41 220.61 212.74 220.19 210.91 219.7 208.72 219.13 206.25 218.57 203.53 218.28 202.08 218 200.6 217.75 199.12 217.54 197.6 217.29 196.04 217.15 194.53 217.01 192.97 216.91 191.42 216.87 189.9 216.87 188.42 216.98 186.94 217.08 185.49 217.29 184.11 217.58 182.77 217.93 181.46 218.35 180.23 218.88 179.1 219.48 178.04 220.23 177.05 221.04 176.17 221.99 175.39 223.05 174.69 224.22 174.12 225.49 173.7 225.66 173.03 225.8 172.46 225.91 172 225.94 171.51 226.01 170.94 226.01 170.24 226.01 169.39 226.01 168.22 225.13 167.52 224.46 166.99 224.18 166.78 223.9 166.6 223.65 166.43 223.44 166.32 223.19 166.25 222.91 166.18 222.66 166.14 222.34 166.14 221.57 166.18 220.61 166.25 219.52 167.17 218.53 168.08 217.58 168.97 216.69 169.85 215.85 170.7 215.07 171.51 214.37 172.32 213.69 173.17 213.06 173.94 212.49 174.76 211.97 175.57 211.47 176.38 211.01 177.16 210.62 177.97 210.27 178.82 209.92 179.63 209.63 180.47 209.35 181.32 209.14 182.21 208.93 183.12 208.75 184 208.61 184.96 208.47 185.95 208.36 186.97 208.29 188.03 208.22 189.09 208.15 190.22 208.12 191.38 208.08 193.85 208.05 196.54 207.27 194.95 206.53 193.5 205.82 192.05 205.15 190.68 204.83 190.01 204.55 189.34 204.27 188.66 204.02 187.99 203.78 187.32 203.53 186.65 203.32 186.02 203.14 185.35 202.96 184.68 202.86 184 202.72 183.37 202.65 182.66 202.57 181.99 202.54 181.32 202.54 180.62 202.57 179.91 202.65 179.2 202.75 178.46 202.89 177.72 203.03 176.94 203.25 176.17 203.49 175.36 203.78 174.54 204.06 173.7 204.38 173.38 204.69 173.03 205.08 172.64 205.57 172.11 206.25 171.44 207.09 170.56 208.22 169.43 209.71 168.01 211.51 166.25 213.76 164.13 216.48 161.52 219.7 158.48 223.51 154.92 227.92 150.75 233.04 145.98 238.87 140.58 240.35 139.63 241.83 138.71 243.31 137.87 244.8 137.02 246.31 136.21 247.8 135.43 249.31 134.69 250.8 133.98 252.32 133.28 253.83 132.64 255.35 132.04 256.87 131.44 258.42 130.91 259.98 130.38 261.53 129.92 263.08 129.46 264.67 129.07 266.26 128.72 267.88 128.37 269.47 128.09 271.1 127.84 272.72 127.63 274.38 127.45 276.04 127.34 277.73 127.24 279.43 127.17 281.12 127.17 282.85 127.2 284.62 127.24 286.38 127.38 288.15 127.52 289.95 127.73 291.15 128.01 292.35 128.3 293.58 128.58 294.78 128.86 295.99 129.15 297.19 129.43 298.38 129.75 299.62 130.03 301.67 130.91 303.72 131.83 305.66 132.78 307.6 133.77 309.47 134.83 311.34 135.85 313.18 136.98 314.94 138.11 316.71 139.28 318.44 140.48 320.17 141.71 321.86 142.95 323.52 144.25 325.14 145.53 326.8 146.87 328.43 148.24 330.05 149.59 331.64 151 333.23 152.41 334.85 153.82 338.03 156.75 341.24 159.68 344.45 162.68 347.74 165.68 349.4 167.2 351.09 168.75 352.79 170.27 354.52 171.79 354.94 172.57 355.33 173.27 355.65 173.98 355.96 174.69 356.25 175.36 356.49 176.03 356.7 176.7 356.92 177.33 357.02 177.97 357.16 178.6 357.27 179.2 357.34 179.8 357.38 180.4 357.38 181 357.38 181.6 357.34 182.21 357.31 182.81 357.2 183.41 357.09 184 356.95 184.64 356.81 185.24 356.63 185.84 356.42 186.51 356.21 187.15 355.96 187.78 355.72 188.45 355.43 189.12 355.15 189.83 354.52 191.28 353.77 192.79 353.56 191.03 353.32 189.23 353.18 188.35 353 187.47 352.86 186.55 352.68 185.63 352.47 184.75 352.29 183.83 352.08 182.95 351.83 182.06 351.59 181.18 351.3 180.3 351.02 179.45 350.7 178.6 350.39 177.76 350.03 176.94 349.64 176.13 349.22 175.32 348.8 174.54 348.34 173.8 347.81 173.06 347.31 172.35 346.75 171.69 346.19 171.01 345.55 170.38 344.88 169.78 344.17 169.21 343.43 168.65 342.69 168.15 341.88 167.69 341.6 167.73 341.31 167.8 341.07 167.87 340.78 167.98 340.54 168.08 340.29 168.19 340.04 168.3 339.8 168.44 339.58 168.61 339.37 168.75 339.12 168.9 338.91 169.07 338.7 169.28 338.49 169.46 338.31 169.64 338.1 169.85 337.92 170.06 337.75 170.31 337.61 170.52 337.43 170.73 337.29 170.94 337.15 171.23 337.04 171.44 336.94 171.69 336.83 171.93 336.72 172.18 336.62 172.43 336.58 172.67 336.51 172.96 336.44 173.2 336.41 173.45 336.41 173.7 337.54 174.86 338.56 176.03 339.51 177.16 340.36 178.29 341.1 179.42 341.77 180.51 342.37 181.6 342.87 182.66 343.32 183.76 343.68 184.85 343.96 185.91 344.21 187.01 344.38 188.1 344.49 189.19 344.53 190.29 344.53 191.42 344.49 192.55 344.42 193.71 344.28 194.88 344.1 196.04 343.93 197.28 343.68 198.48 343.43 199.75 343.15 201.06 342.51 203.74 341.84 206.56 341.45 208.05 341.1 209.56 340.75 211.12 340.39 212.74 341 215.18 341.63 217.54 341.88 218.71 342.13 219.87 342.41 221.04 342.62 222.17 342.8 223.33 342.97 224.46 343.15 225.56 343.25 226.69 343.36 227.78 343.43 228.88 343.43 229.97 343.43 231.06 343.4 232.12 343.32 233.22 343.22 234.28 343.04 235.34 342.83 236.39 342.58 237.45 342.27 238.51 341.91 239.54 341.52 240.59 341.07 241.65 340.54 242.68 339.94 243.74 339.3 244.76 338.63 245.78 337.85 246.81 337.01 247.87 335.24 249 333.44 250.13 331.68 251.26 329.88 252.35 328.11 253.48 326.35 254.61 324.54 255.74 322.78 256.87 321.01 258 319.25 259.13 317.48 260.26 315.68 261.39 313.92 262.52 312.15 263.65 310.39 264.78 308.62 265.91 307.92 267.07 307.32 268.1 307.03 268.59 306.79 269.05 306.57 269.51 306.36 269.93 306.19 270.36 306.01 270.74 305.87 271.13 305.73 271.52 305.62 271.91 305.48 272.33 305.41 272.72 305.34 273.11 305.27 273.5 305.2 273.88 305.16 274.27 305.13 274.7 305.06 275.58 305.06 276.5 305.02 277.52 305.06 278.62 305.06 279.85 305.06 281.23 304.6 281.97 304.14 282.71 303.57 283.38 303.01 284.05 302.37 284.69 301.7 285.29 301 285.85 300.26 286.38 299.48 286.91 298.67 287.37 297.82 287.87 296.94 288.29 296.06 288.68 295.14 289.06 294.22 289.42 293.3 289.77 292.35 290.09 291.18 290.48 290.05 290.9 289.45 291.11 288.89 291.32 288.29 291.5 287.72 291.64 287.05 291.82 286.38 292.03 285.71 292.21 285.04 292.38 284.33 292.52 283.63 292.67 282.85 292.77 282.08 292.88 281.3 292.91 280.59 292.88 279.99 292.84 279.39 292.77 278.33 292.63 277.17 292.52 277.17 292.52"/><polygon class="cls-1" points="330.44 280.91 330.44 279.43 330.44 277.91 330.44 276.43 330.44 274.91 330.44 273.43 330.44 271.94 330.44 270.46 330.44 268.94 333.19 267.71 335.98 266.47 338.81 265.27 341.67 264.04 344.49 262.8 347.35 261.56 350.25 260.33 353.1 259.06 355.96 257.75 358.79 256.41 360.2 255.78 361.61 255.07 362.99 254.36 364.37 253.66 365.71 252.95 367.08 252.21 368.43 251.47 369.77 250.73 371.11 249.95 372.42 249.17 373.69 248.4 374.78 247.55 375.45 246.99 376.05 246.28 376.72 245.47 377.46 244.55 379.12 242.47 380.99 240.14 382.02 238.94 383.08 237.7 384.13 236.47 385.26 235.23 386.39 234.03 387.52 232.86 388.69 231.73 389.82 230.71 390.98 229.72 392.11 228.84 393.28 228.06 394.37 227.39 395.47 226.83 396.56 226.44 397.58 226.23 398.57 226.19 399.53 226.33 400.37 226.65 401.22 227.18 402 227.96 402.67 228.98 403.3 230.25 403.87 231.77 404.33 233.6 404.33 236.32 404.33 238.69 404.33 240.74 404.33 242.54 404.33 244.06 404.36 245.36 404.36 246.42 404.4 247.34 404.43 248.11 404.47 248.72 404.5 249.24 404.54 249.7 404.65 250.09 404.68 250.48 404.79 250.87 404.89 251.26 405.25 251.61 405.56 251.96 405.92 252.21 406.23 252.46 406.59 252.63 406.9 252.81 407.22 252.92 407.5 252.99 407.82 253.02 408.11 253.02 408.42 253.02 408.71 252.95 408.99 252.88 409.27 252.77 409.52 252.63 409.8 252.46 410.05 252.28 410.29 252.07 410.51 251.86 410.75 251.61 410.96 251.36 411.21 251.08 411.39 250.8 411.6 250.51 411.78 250.2 411.99 249.88 412.13 249.56 412.31 249.21 412.59 248.54 412.87 247.87 412.87 248.68 412.91 249.49 412.94 250.27 412.98 251.01 413.12 252.42 413.22 253.73 413.33 254.93 413.37 256.02 413.37 256.52 413.37 257.01 413.33 257.47 413.26 257.89 413.15 258.28 413.01 258.67 412.87 259.02 412.66 259.34 412.45 259.66 412.17 259.94 411.85 260.19 411.46 260.4 411.04 260.58 410.54 260.75 410.01 260.89 409.41 261.04 408.74 261.11 408 261.18 407.05 261.11 405.77 260.89 404.12 260.26 402.03 259.34 401.05 258.92 400.09 258.53 399.17 258.14 398.26 257.79 397.34 257.47 396.46 257.15 395.61 256.87 394.76 256.62 393.95 256.38 393.1 256.16 392.25 255.99 391.44 255.85 390.6 255.74 389.78 255.63 388.94 255.6 388.09 255.56 387.21 255.56 386.36 255.6 385.44 255.63 384.52 255.74 383.57 255.88 382.62 256.02 381.63 256.23 380.57 256.48 379.51 256.76 378.42 257.08 377.29 257.43 376.09 257.82 373.23 259.24 370.37 260.68 367.51 262.13 364.68 263.58 361.82 265.02 358.96 266.44 356.11 267.88 353.25 269.33 350.39 270.78 347.56 272.23 344.7 273.67 341.84 275.12 339.02 276.57 336.16 278.02 333.3 279.46 330.44 280.91 330.44 280.91"/><polygon class="cls-1" points="228.91 278.65 226.4 277.35 223.86 276.04 221.32 274.73 218.78 273.43 216.27 272.12 213.69 270.81 211.19 269.51 208.65 268.2 206.14 266.89 203.6 265.63 201.06 264.32 198.55 263.01 196.01 261.71 193.47 260.4 190.96 259.09 188.42 257.82 187.11 257.36 185.88 257.01 184.64 256.69 183.51 256.41 182.45 256.16 181.39 255.99 180.4 255.81 179.45 255.67 178.53 255.6 177.65 255.56 176.8 255.56 175.92 255.56 175.11 255.63 174.3 255.71 173.52 255.81 172.74 255.99 171.97 256.13 171.19 256.34 170.41 256.55 169.64 256.8 168.82 257.08 168.01 257.36 167.2 257.68 166.32 258.03 164.55 258.74 162.58 259.52 160.49 260.36 158.2 261.25 157.32 261.21 156.54 261.21 155.8 261.14 155.16 261.07 154.56 261 154.03 260.89 153.54 260.75 153.15 260.61 152.76 260.47 152.44 260.26 152.16 260.05 151.95 259.8 151.74 259.55 151.6 259.27 151.46 258.99 151.35 258.63 151.28 258.28 151.24 257.93 151.24 257.5 151.24 257.08 151.28 256.16 151.42 255.1 151.56 253.97 151.67 252.7 151.74 252.03 151.77 251.33 151.81 250.59 151.84 249.81 152.27 250.37 152.69 250.9 152.9 251.12 153.08 251.33 153.29 251.54 153.5 251.72 153.72 251.89 153.89 252.07 154.1 252.21 154.32 252.31 154.53 252.42 154.74 252.53 154.95 252.6 155.16 252.67 155.41 252.7 155.62 252.74 155.87 252.77 156.08 252.74 156.33 252.74 156.57 252.67 156.82 252.63 157.1 252.56 157.35 252.49 157.63 252.39 157.92 252.25 158.2 252.1 158.52 251.96 158.8 251.79 159.33 251.29 159.68 250.66 159.89 249.91 160.03 249.17 160.18 248.4 160.25 247.66 160.32 246.88 160.39 246.1 160.39 245.33 160.39 244.55 160.39 243.77 160.35 243 160.32 242.22 160.25 240.63 160.14 239.04 160.1 238.26 160.07 237.49 160.07 236.71 160.07 235.97 160.1 235.19 160.14 234.42 160.25 233.68 160.32 232.9 160.46 232.16 160.63 231.42 160.85 230.68 161.09 229.93 161.38 229.23 161.73 228.52 162.12 227.82 162.58 227.15 163.14 226.86 163.71 226.62 164.27 226.47 164.84 226.37 165.4 226.3 165.97 226.3 166.5 226.33 167.06 226.4 167.59 226.54 168.12 226.72 168.65 226.9 169.18 227.11 169.71 227.36 170.24 227.64 170.73 227.96 171.23 228.27 172.25 228.94 173.27 229.69 174.26 230.43 175.28 231.17 175.74 231.52 176.27 231.88 176.77 232.23 177.26 232.55 179.91 235.23 181.22 237.13 182.28 238.79 183.41 240.35 184.57 241.87 185.77 243.28 187.04 244.66 188.38 245.93 189.72 247.16 191.17 248.33 192.62 249.42 194.1 250.51 195.66 251.54 197.21 252.53 198.8 253.44 200.46 254.36 202.12 255.25 203.81 256.06 205.5 256.9 207.27 257.72 209 258.49 210.8 259.27 212.56 260.01 214.4 260.79 218.04 262.27 221.71 263.82 223.54 264.64 225.38 265.41 227.22 266.23 229.05 267.07 229.05 268.52 229.02 269.97 229.02 271.41 228.98 272.9 228.98 274.31 228.94 275.76 228.94 277.24 228.91 278.65 228.91 278.65"/><polygon class="cls-4" points="282.04 245.61 282.82 245.64 283.56 245.75 284.26 245.93 284.94 246.21 285.57 246.53 286.17 246.91 286.7 247.34 287.23 247.83 287.72 248.4 288.22 249 288.64 249.67 289.1 250.37 289.49 251.12 289.88 251.89 290.27 252.7 290.65 253.55 292.1 257.19 293.65 261.11 294.04 262.09 294.47 263.12 294.93 264.11 295.38 265.1 295.91 266.08 296.41 267.04 296.97 267.99 297.57 268.94 297.89 269.44 298.14 269.93 298.35 270.39 298.49 270.81 298.6 271.24 298.67 271.63 298.7 272.01 298.67 272.37 298.63 272.72 298.56 273.04 298.42 273.36 298.28 273.64 298.14 273.92 297.93 274.17 297.71 274.42 297.47 274.63 297.22 274.84 296.97 275.05 296.69 275.23 296.37 275.37 295.77 275.65 295.17 275.9 294.57 276.04 293.97 276.18 293.44 276.25 292.98 276.25 292.6 276.25 292.21 276.21 291.85 276.18 291.5 276.11 290.8 275.93 290.13 275.72 289.45 275.44 288.78 275.16 288.15 274.84 287.51 274.49 286.84 274.17 286.21 273.85 285.54 273.53 284.86 273.29 284.19 273.04 283.49 272.86 283.13 272.79 282.78 272.76 282.39 272.72 282.04 272.72 281.62 272.72 281.23 272.76 280.84 272.79 280.49 272.86 279.71 273.04 279 273.29 278.26 273.53 277.56 273.85 276.89 274.17 276.18 274.49 275.47 274.84 274.77 275.16 274.06 275.44 273.36 275.72 272.61 275.93 271.87 276.11 271.52 276.18 271.13 276.21 270.74 276.25 270.32 276.25 269.86 276.21 269.33 276.14 268.77 275.97 268.2 275.76 267.6 275.47 267.04 275.12 266.75 274.94 266.51 274.73 266.23 274.52 266.01 274.31 265.77 274.06 265.55 273.78 265.38 273.53 265.24 273.25 265.1 272.93 264.99 272.65 264.88 272.33 264.85 271.98 264.85 271.66 264.85 271.31 264.92 270.92 265.02 270.57 265.17 270.18 265.34 269.75 265.59 269.37 265.87 268.94 266.58 267.95 267.25 266.93 267.88 265.91 268.48 264.92 269.01 263.89 269.54 262.87 270.07 261.85 270.53 260.82 272.26 256.9 273.81 253.3 274.2 252.49 274.63 251.68 275.01 250.9 275.4 250.2 275.83 249.53 276.25 248.89 276.71 248.29 277.2 247.76 277.7 247.27 278.19 246.84 278.76 246.49 279.32 246.17 279.96 245.93 280.59 245.75 281.3 245.64 282.04 245.61 282.04 245.61"/><polygon class="cls-5" points="282.04 245.61 282.82 245.64 283.56 245.75 284.26 245.93 284.94 246.21 285.57 246.53 286.17 246.91 286.7 247.34 287.23 247.83 287.72 248.4 288.22 249 288.64 249.67 289.1 250.37 289.49 251.12 289.88 251.89 290.27 252.7 290.65 253.55 292.1 257.19 293.65 261.11 294.04 262.09 294.47 263.12 294.93 264.11 295.38 265.1 295.91 266.08 296.41 267.04 296.97 267.99 297.57 268.94 297.89 269.44 298.14 269.93 298.35 270.39 298.49 270.81 298.6 271.24 298.67 271.63 298.7 272.01 298.67 272.37 298.63 272.72 298.56 273.04 298.42 273.36 298.28 273.64 298.14 273.92 297.93 274.17 297.71 274.42 297.47 274.63 297.22 274.84 296.97 275.05 296.69 275.23 296.37 275.37 295.77 275.65 295.17 275.9 294.57 276.04 293.97 276.18 293.44 276.25 292.98 276.25 292.6 276.25 292.21 276.21 291.85 276.18 291.5 276.11 290.8 275.93 290.13 275.72 289.45 275.44 288.78 275.16 288.15 274.84 287.51 274.49 286.84 274.17 286.21 273.85 285.54 273.53 284.86 273.29 284.19 273.04 283.49 272.86 283.13 272.79 282.78 272.76 282.39 272.72 282.04 272.72 281.62 272.72 281.23 272.76 280.84 272.79 280.49 272.86 279.71 273.04 279 273.29 278.26 273.53 277.56 273.85 276.89 274.17 276.18 274.49 275.47 274.84 274.77 275.16 274.06 275.44 273.36 275.72 272.61 275.93 271.87 276.11 271.52 276.18 271.13 276.21 270.74 276.25 270.32 276.25 269.86 276.21 269.33 276.14 268.77 275.97 268.2 275.76 267.6 275.47 267.04 275.12 266.75 274.94 266.51 274.73 266.23 274.52 266.01 274.31 265.77 274.06 265.55 273.78 265.38 273.53 265.24 273.25 265.1 272.93 264.99 272.65 264.88 272.33 264.85 271.98 264.85 271.66 264.85 271.31 264.92 270.92 265.02 270.57 265.17 270.18 265.34 269.75 265.59 269.37 265.87 268.94 266.58 267.95 267.25 266.93 267.88 265.91 268.48 264.92 269.01 263.89 269.54 262.87 270.07 261.85 270.53 260.82 272.26 256.9 273.81 253.3 274.2 252.49 274.63 251.68 275.01 250.9 275.4 250.2 275.83 249.53 276.25 248.89 276.71 248.29 277.2 247.76 277.7 247.27 278.19 246.84 278.76 246.49 279.32 246.17 279.96 245.93 280.59 245.75 281.3 245.64 282.04 245.61 282.04 245.61"/><polygon class="cls-4" points="226.58 216.06 226.76 215.95 227.15 215.88 227.75 215.78 228.49 215.71 230.46 215.57 232.97 215.42 235.9 215.35 239.18 215.28 242.64 215.21 246.21 215.21 249.81 215.21 253.27 215.25 256.52 215.32 259.45 215.39 261.99 215.53 263.96 215.67 264.71 215.74 265.27 215.85 265.69 215.95 265.87 216.06 266.44 216.84 266.86 217.65 267.18 218.46 267.39 219.34 267.46 220.22 267.5 221.11 267.39 222.03 267.21 222.98 266.93 223.93 266.61 224.88 266.19 225.84 265.69 226.79 265.17 227.75 264.53 228.7 263.86 229.65 263.15 230.6 262.38 231.52 261.6 232.44 260.75 233.32 259.87 234.21 258.99 235.05 258.07 235.9 257.15 236.68 256.2 237.45 255.25 238.16 254.29 238.87 253.34 239.5 252.42 240.1 251.47 240.67 250.59 241.19 249.67 241.65 248.82 242.04 248.5 242.18 248.19 242.29 247.83 242.36 247.51 242.43 246.81 242.54 246.1 242.54 245.36 242.5 244.66 242.4 243.98 242.25 243.31 242.04 242.4 241.69 241.44 241.27 240.45 240.77 239.5 240.24 238.51 239.64 237.56 238.97 236.61 238.3 235.62 237.56 234.7 236.75 233.75 235.94 232.86 235.09 231.98 234.21 231.13 233.32 230.32 232.37 229.54 231.45 228.8 230.46 228.13 229.51 227.5 228.52 226.93 227.53 226.44 226.54 225.98 225.59 225.59 224.6 225.31 223.65 225.06 222.7 224.92 221.78 224.88 220.86 224.88 219.98 225.03 219.13 225.24 218.28 225.59 217.51 226.01 216.77 226.58 216.06 226.58 216.06"/><polygon class="cls-5" points="226.58 216.06 226.76 215.95 227.15 215.88 227.75 215.78 228.49 215.71 230.46 215.57 232.97 215.42 235.9 215.35 239.18 215.28 242.64 215.21 246.21 215.21 249.81 215.21 253.27 215.25 256.52 215.32 259.45 215.39 261.99 215.53 263.96 215.67 264.71 215.74 265.27 215.85 265.69 215.95 265.87 216.06 266.44 216.84 266.86 217.65 267.18 218.46 267.39 219.34 267.46 220.22 267.5 221.11 267.39 222.03 267.21 222.98 266.93 223.93 266.61 224.88 266.19 225.84 265.69 226.79 265.17 227.75 264.53 228.7 263.86 229.65 263.15 230.6 262.38 231.52 261.6 232.44 260.75 233.32 259.87 234.21 258.99 235.05 258.07 235.9 257.15 236.68 256.2 237.45 255.25 238.16 254.29 238.87 253.34 239.5 252.42 240.1 251.47 240.67 250.59 241.19 249.67 241.65 248.82 242.04 248.5 242.18 248.19 242.29 247.83 242.36 247.51 242.43 246.81 242.54 246.1 242.54 245.36 242.5 244.66 242.4 243.98 242.25 243.31 242.04 242.4 241.69 241.44 241.27 240.45 240.77 239.5 240.24 238.51 239.64 237.56 238.97 236.61 238.3 235.62 237.56 234.7 236.75 233.75 235.94 232.86 235.09 231.98 234.21 231.13 233.32 230.32 232.37 229.54 231.45 228.8 230.46 228.13 229.51 227.5 228.52 226.93 227.53 226.44 226.54 225.98 225.59 225.59 224.6 225.31 223.65 225.06 222.7 224.92 221.78 224.88 220.86 224.88 219.98 225.03 219.13 225.24 218.28 225.59 217.51 226.01 216.77 226.58 216.06 226.58 216.06"/><polygon class="cls-4" points="334.08 215.85 333.86 215.74 333.48 215.64 332.91 215.57 332.13 215.46 330.19 215.32 327.65 215.21 324.72 215.11 321.47 215.04 318.01 215 314.41 214.97 310.85 215 307.39 215.04 304.1 215.07 301.17 215.18 298.67 215.28 296.69 215.46 295.91 215.53 295.35 215.64 294.96 215.71 294.75 215.85 294.22 216.63 293.8 217.4 293.48 218.25 293.27 219.1 293.16 219.98 293.16 220.9 293.23 221.81 293.44 222.77 293.69 223.69 294.04 224.64 294.47 225.59 294.93 226.58 295.49 227.53 296.09 228.49 296.76 229.44 297.5 230.36 298.24 231.31 299.06 232.23 299.9 233.11 300.75 233.99 301.67 234.84 302.59 235.65 303.5 236.47 304.46 237.21 305.41 237.95 306.36 238.65 307.28 239.29 308.24 239.89 309.15 240.45 310.07 240.95 310.95 241.41 311.8 241.83 312.12 241.94 312.47 242.04 312.79 242.15 313.14 242.22 313.85 242.29 314.55 242.32 315.26 242.29 315.97 242.18 316.67 242.01 317.31 241.83 318.26 241.48 319.21 241.05 320.17 240.56 321.12 240 322.11 239.4 323.1 238.76 324.05 238.05 325 237.31 325.96 236.53 326.87 235.72 327.79 234.88 328.68 233.99 329.49 233.08 330.3 232.16 331.07 231.21 331.82 230.25 332.49 229.26 333.12 228.31 333.69 227.32 334.22 226.33 334.64 225.34 335.03 224.39 335.35 223.4 335.56 222.45 335.7 221.53 335.77 220.61 335.74 219.73 335.63 218.88 335.38 218.07 335.06 217.29 334.61 216.52 334.08 215.85 334.08 215.85"/><polygon class="cls-5" points="334.08 215.85 333.86 215.74 333.48 215.64 332.91 215.57 332.13 215.46 330.19 215.32 327.65 215.21 324.72 215.11 321.47 215.04 318.01 215 314.41 214.97 310.85 215 307.39 215.04 304.1 215.07 301.17 215.18 298.67 215.28 296.69 215.46 295.91 215.53 295.35 215.64 294.96 215.71 294.75 215.85 294.22 216.63 293.8 217.4 293.48 218.25 293.27 219.1 293.16 219.98 293.16 220.9 293.23 221.81 293.44 222.77 293.69 223.69 294.04 224.64 294.47 225.59 294.93 226.58 295.49 227.53 296.09 228.49 296.76 229.44 297.5 230.36 298.24 231.31 299.06 232.23 299.9 233.11 300.75 233.99 301.67 234.84 302.59 235.65 303.5 236.47 304.46 237.21 305.41 237.95 306.36 238.65 307.28 239.29 308.24 239.89 309.15 240.45 310.07 240.95 310.95 241.41 311.8 241.83 312.12 241.94 312.47 242.04 312.79 242.15 313.14 242.22 313.85 242.29 314.55 242.32 315.26 242.29 315.97 242.18 316.67 242.01 317.31 241.83 318.26 241.48 319.21 241.05 320.17 240.56 321.12 240 322.11 239.4 323.1 238.76 324.05 238.05 325 237.31 325.96 236.53 326.87 235.72 327.79 234.88 328.68 233.99 329.49 233.08 330.3 232.16 331.07 231.21 331.82 230.25 332.49 229.26 333.12 228.31 333.69 227.32 334.22 226.33 334.64 225.34 335.03 224.39 335.35 223.4 335.56 222.45 335.7 221.53 335.77 220.61 335.74 219.73 335.63 218.88 335.38 218.07 335.06 217.29 334.61 216.52 334.08 215.85 334.08 215.85"/></svg>