<svg id="Ebene_1" data-name="Ebene 1" xmlns="http://www.w3.org/2000/svg" viewBox="0 0 564.82 564.79"><defs><style>.cls-1{fill:#fff;}.cls-1,.cls-2,.cls-4{fill-rule:evenodd;}.cls-2{fill:#da251d;}.cls-3{fill:none;stroke:#242729;stroke-linecap:square;stroke-miterlimit:10;stroke-width:0.21px;}</style></defs><polygon class="cls-1" points="0.01 282.43 282.25 0.18 564.53 282.43 282.25 564.67 0.01 282.43 0.01 282.43"/><path class="cls-2" d="M20.69,421.32l276.56-276.6,276.6,276.6L297.25,697.88,20.69,421.32Zm44.84,0L297.25,189.59,529,421.32,297.25,653,65.53,421.32Z" transform="translate(-15 -138.89)"/><polyline class="cls-3" points="0.15 282.22 282.25 0.15 564.67 282.22 282.25 564.64 0.15 282.22"/><polygon class="cls-4" points="338.7 261.81 339.23 261.81 339.73 261.81 340.22 261.81 340.75 261.81 341.35 261.78 342.13 261.74 342.97 261.63 343.96 261.53 346.25 261.25 348.9 260.93 351.87 260.61 355.08 260.33 356.81 260.22 358.54 260.15 360.34 260.08 362.18 260.08 362.39 260.15 362.78 260.36 363.31 260.72 364.01 261.14 365.81 262.27 367.93 263.51 369.1 264.18 370.26 264.78 371.46 265.38 372.63 265.91 373.19 266.12 373.76 266.33 374.32 266.51 374.85 266.68 375.38 266.79 375.87 266.89 376.37 266.97 376.83 266.97 377.29 266.97 377.82 266.89 378.31 266.79 378.84 266.68 379.4 266.51 379.93 266.33 380.5 266.12 381.03 265.87 382.16 265.34 383.25 264.78 384.35 264.14 385.37 263.51 387.28 262.24 388.83 261.11 389.47 260.68 389.93 260.36 390.28 260.15 390.45 260.08 393.49 261.39 396.92 262.94 400.51 264.53 404.12 266.12 407.44 267.57 410.29 268.77 411.46 269.23 412.41 269.61 413.15 269.86 413.61 269.97 414.53 270.11 415.66 270.25 416.93 270.32 418.31 270.39 419.83 270.43 421.34 270.43 422.9 270.43 424.42 270.43 424.42 271.17 424.42 271.84 424.45 272.54 424.45 273.29 422.97 273.32 421.34 273.32 419.65 273.36 417.99 273.36 416.37 273.32 414.92 273.29 413.72 273.21 412.76 273.11 412.48 273.04 412.13 272.97 411.71 272.83 411.25 272.61 410.12 272.15 408.81 271.59 405.77 270.14 402.35 268.52 400.59 267.71 398.86 266.93 397.16 266.23 395.54 265.55 394.06 264.99 392.71 264.56 392.08 264.42 391.55 264.32 391.05 264.25 390.6 264.21 390.35 264.28 389.96 264.46 389.43 264.74 388.76 265.13 387.1 266.08 385.12 267.14 384.06 267.71 382.97 268.24 381.84 268.73 380.75 269.15 380.22 269.37 379.69 269.54 379.16 269.68 378.63 269.83 378.13 269.93 377.64 270 377.18 270.07 376.72 270.07 376.26 270.07 375.77 270 375.27 269.93 374.78 269.79 374.21 269.65 373.69 269.47 373.12 269.26 372.56 269.05 371.39 268.56 370.23 267.99 369.06 267.39 367.93 266.75 365.81 265.55 364.08 264.5 363.38 264.07 362.85 263.72 362.46 263.51 362.25 263.44 360.91 263.47 359.56 263.54 358.22 263.61 356.88 263.72 354.2 264 351.52 264.28 348.83 264.6 346.15 264.85 344.81 264.95 343.47 265.02 342.16 265.06 340.82 265.06 340.47 265.06 340.04 265.06 339.62 265.1 339.23 265.13 339.02 265.2 338.84 265.27 338.7 265.38 338.56 265.48 338.45 265.66 338.35 265.84 338.31 266.05 338.28 266.3 338.31 266.47 338.45 266.68 338.67 266.93 338.91 267.25 339.27 267.53 339.69 267.85 340.15 268.17 340.68 268.52 341.24 268.8 341.88 269.12 342.55 269.37 343.25 269.61 344 269.83 344.77 269.97 345.55 270.07 346.36 270.11 378.7 270.14 393.95 270.04 378.63 275.12 378.66 275.72 378.73 276.32 378.84 276.92 378.98 277.49 379.12 278.02 379.3 278.55 379.51 279.07 379.76 279.57 380.04 280.06 380.36 280.56 380.68 281.02 381.06 281.48 381.45 281.9 381.91 282.32 382.37 282.71 382.86 283.13 383.39 283.52 383.99 283.88 384.59 284.26 385.23 284.62 385.94 284.97 386.64 285.29 387.42 285.61 388.19 285.92 389.04 286.24 389.93 286.56 390.84 286.84 391.8 287.12 393.84 287.69 396.07 288.22 395.82 289.81 395.71 290.37 395.75 290.23 395.79 289.84 395.86 289.49 395.86 289.56 395.75 290.44 395.5 292.52 393.67 292.28 391.83 292 390 291.64 388.19 291.25 387.28 291.01 386.39 290.76 385.51 290.48 384.63 290.16 383.78 289.81 382.94 289.45 382.12 289.06 381.31 288.61 380.53 288.15 379.76 287.62 379.02 287.05 378.31 286.45 377.6 285.82 376.97 285.15 376.33 284.4 375.73 283.59 375.17 282.78 374.67 281.86 374.18 280.91 373.72 279.89 373.33 278.83 372.98 277.7 372.66 276.5 372.38 275.23 322.36 275.12 322.04 275.16 321.76 275.19 321.47 275.23 321.23 275.33 320.98 275.44 320.77 275.54 320.56 275.69 320.38 275.83 320.2 276.04 320.06 276.21 319.95 276.43 319.85 276.67 319.78 276.92 319.71 277.2 319.67 277.49 319.67 277.8 319.67 278.16 319.71 278.48 319.78 278.79 319.85 279.07 319.95 279.32 320.06 279.57 320.2 279.78 320.38 279.99 320.56 280.13 320.77 280.31 320.98 280.42 321.23 280.52 321.47 280.59 321.79 280.66 322.07 280.7 322.43 280.73 362.18 280.7 362.18 285.61 359.53 285.64 356.92 285.64 354.27 285.68 351.66 285.68 349.01 285.68 346.4 285.68 343.75 285.68 341.14 285.68 338.49 285.68 335.84 285.68 333.19 285.64 330.55 285.64 327.9 285.64 325.21 285.64 322.53 285.64 319.81 285.64 319.18 285.68 318.51 285.75 318.19 285.82 317.91 285.89 317.59 285.99 317.31 286.1 317.06 286.24 316.81 286.42 316.6 286.59 316.43 286.84 316.28 287.09 316.18 287.34 316.11 287.65 316.11 288.01 316.11 288.39 316.18 288.75 316.28 289.06 316.43 289.35 316.6 289.6 316.78 289.84 317.02 290.02 317.27 290.19 317.56 290.34 317.84 290.48 318.15 290.55 318.47 290.65 319.14 290.73 319.81 290.76 362.14 290.76 362.18 295.95 359.81 295.95 357.45 295.95 355.08 295.95 352.75 295.95 350.39 295.95 348.02 295.95 345.65 295.95 343.32 295.95 340.96 295.95 338.6 295.95 336.23 295.95 333.9 295.95 331.53 295.95 329.17 295.95 326.8 295.95 324.47 295.95 324.16 295.95 323.87 295.99 323.59 296.02 323.31 296.09 323.06 296.16 322.81 296.27 322.57 296.41 322.32 296.55 322.11 296.73 321.93 296.9 321.76 297.11 321.61 297.36 321.51 297.64 321.4 297.93 321.37 298.24 321.33 298.6 321.37 298.99 321.44 299.3 321.51 299.62 321.65 299.87 321.79 300.12 321.97 300.29 322.18 300.47 322.39 300.64 322.64 300.75 322.88 300.86 323.13 300.93 323.42 301 323.94 301.07 324.47 301.07 365.95 301.07 371.5 306.89 369.56 306.96 367.47 307.03 365.21 307.11 362.85 307.14 360.38 307.18 357.87 307.21 355.26 307.25 352.68 307.28 350.07 307.28 347.49 307.28 344.99 307.32 342.55 307.32 340.22 307.32 338.03 307.32 335.98 307.32 334.15 307.32 333.51 307.32 332.91 307.32 332.42 307.35 331.99 307.42 331.78 307.49 331.64 307.6 331.5 307.7 331.36 307.88 331.25 308.06 331.18 308.27 331.15 308.55 331.11 308.87 331.15 309.19 331.18 309.44 331.25 309.65 331.36 309.86 331.5 310.04 331.64 310.18 331.82 310.32 332.03 310.42 332.24 310.49 332.49 310.56 332.77 310.63 333.02 310.67 333.65 310.71 334.29 310.71 337.82 310.71 341.31 310.71 344.84 310.71 348.34 310.67 351.83 310.67 355.36 310.67 358.86 310.63 362.35 310.63 365.85 310.63 369.38 310.6 372.87 310.6 376.37 310.6 379.9 310.56 383.39 310.56 386.89 310.56 390.42 310.56 391.09 310.53 391.83 310.49 392.57 310.42 393.31 310.35 394.9 310.14 396.53 309.82 398.22 309.5 399.88 309.12 401.54 308.69 403.2 308.27 406.27 307.42 408.95 306.68 410.12 306.36 411.07 306.12 411.88 305.94 412.45 305.87 413.82 305.76 415.59 305.66 417.53 305.59 419.54 305.55 421.41 305.52 422.97 305.55 423.57 305.55 424.03 305.59 424.31 305.62 424.42 305.69 424.45 308.87 423.04 308.8 421.66 308.76 420.32 308.76 418.98 308.83 417.6 308.94 416.15 309.05 414.64 309.26 412.94 309.47 412.41 309.58 411.71 309.75 410.86 310 409.83 310.35 407.36 311.17 404.47 312.12 402.88 312.58 401.22 313.04 399.49 313.5 397.73 313.88 395.93 314.24 394.09 314.52 393.14 314.66 392.22 314.73 391.3 314.8 390.38 314.87 334.08 314.91 333.33 314.87 332.63 314.8 331.99 314.66 331.39 314.45 330.9 314.24 330.4 313.95 329.98 313.67 329.63 313.32 329.31 312.93 329.03 312.54 328.78 312.12 328.6 311.66 328.46 311.2 328.36 310.71 328.32 310.25 328.29 309.72 328.29 309.22 328.32 308.76 328.36 308.27 328.43 307.85 328.5 307.39 328.6 307 328.75 306.61 328.92 306.22 329.13 305.9 329.38 305.62 329.63 305.34 329.95 305.13 330.3 304.95 330.65 304.81 331.11 304.7 331.57 304.67 324.44 304.67 324.12 304.67 323.8 304.63 323.49 304.6 323.17 304.53 322.57 304.35 322 304.1 321.44 303.82 320.91 303.47 320.41 303.12 319.99 302.69 319.57 302.23 319.18 301.77 318.86 301.28 318.58 300.79 318.37 300.29 318.19 299.8 318.08 299.3 318.05 298.81 318.08 298.42 318.12 298.03 318.23 297.64 318.33 297.26 318.47 296.9 318.65 296.51 318.86 296.16 319.07 295.84 319.36 295.53 319.67 295.24 319.99 295 320.38 294.75 320.8 294.57 321.23 294.47 321.72 294.36 322.25 294.32 319.78 294.36 319.39 294.36 318.97 294.32 318.58 294.25 318.23 294.22 317.48 294.04 316.81 293.8 316.14 293.48 315.54 293.16 315.01 292.77 314.52 292.31 314.06 291.85 313.67 291.36 313.32 290.83 313.04 290.27 312.82 289.7 312.65 289.1 312.54 288.5 312.51 287.9 312.51 287.55 312.54 287.19 312.58 286.84 312.65 286.52 312.72 286.21 312.82 285.92 312.93 285.64 313.07 285.36 313.21 285.11 313.35 284.86 313.53 284.62 313.71 284.4 314.13 283.98 314.62 283.63 315.12 283.31 315.68 283.06 316.32 282.85 316.95 282.68 317.63 282.53 318.33 282.43 319.07 282.39 319.85 282.39 319.53 282.36 319.21 282.25 318.93 282.11 318.61 281.93 318.33 281.69 318.08 281.44 317.84 281.16 317.59 280.81 317.38 280.45 317.2 280.06 317.06 279.68 316.92 279.25 316.81 278.79 316.74 278.33 316.67 277.87 316.67 277.42 316.71 276.89 316.81 276.39 316.95 275.9 317.13 275.4 317.38 274.94 317.66 274.52 317.98 274.13 318.37 273.74 318.75 273.39 319.18 273.07 319.67 272.79 320.17 272.58 320.7 272.4 321.23 272.26 321.83 272.15 322.43 272.12 324.9 272.12 327.4 272.12 329.88 272.15 332.35 272.15 334.82 272.15 337.32 272.15 339.8 272.15 342.3 272.19 341.7 272.05 341.03 271.87 340.39 271.66 339.73 271.34 339.02 271.03 338.35 270.64 337.68 270.21 337.08 269.72 336.48 269.23 335.91 268.7 335.42 268.17 334.99 267.6 334.82 267.32 334.64 267 334.5 266.72 334.39 266.4 334.29 266.12 334.22 265.8 334.18 265.52 334.15 265.2 334.18 264.85 334.25 264.5 334.32 264.14 334.43 263.82 334.57 263.54 334.71 263.26 334.92 263.01 335.17 262.76 335.45 262.55 335.77 262.38 336.12 262.24 336.55 262.09 337.01 261.99 337.5 261.88 338.1 261.85 338.7 261.81 338.7 261.81"/><polygon class="cls-4" points="107.68 280.1 107.68 307.42 256.09 307.42 256.09 280.1 252.7 280.1 249.35 280.1 245.96 280.1 242.57 280.1 239.18 280.1 235.79 280.1 232.44 280.1 229.05 280.1 225.66 280.1 222.27 280.1 218.88 280.1 215.5 280.1 212.14 280.1 208.75 280.1 205.36 280.1 201.97 280.1 201.9 280.52 201.76 280.98 201.59 281.4 201.34 281.83 201.06 282.25 200.74 282.64 200.35 283.06 199.93 283.45 199.47 283.84 198.97 284.19 198.44 284.55 197.91 284.9 197.31 285.25 196.71 285.57 196.08 285.89 195.41 286.17 194.74 286.45 194.03 286.74 193.32 286.98 192.62 287.19 191.88 287.44 191.17 287.62 190.43 287.83 189.69 287.97 188.95 288.15 188.21 288.25 187.5 288.39 186.76 288.46 186.05 288.54 185.38 288.61 184.68 288.61 184.04 288.64 183.3 288.61 182.52 288.61 181.78 288.54 181.04 288.46 180.3 288.39 179.56 288.29 178.82 288.18 178.07 288.04 177.37 287.87 176.63 287.69 175.96 287.51 175.25 287.3 174.58 287.05 173.94 286.81 173.31 286.56 172.67 286.28 172.11 285.99 171.54 285.68 171.01 285.36 170.48 285.04 170.03 284.69 169.57 284.33 169.14 283.95 168.79 283.56 168.44 283.17 168.12 282.75 167.87 282.36 167.66 281.9 167.48 281.48 167.34 281.02 167.27 280.56 167.24 280.1 107.68 280.1 107.68 280.1"/><polygon class="cls-4" points="151.1 238.72 151.91 239.75 152.76 240.77 153.65 241.79 154.49 242.82 154.92 243.35 155.3 243.88 155.69 244.41 156.08 244.94 156.4 245.5 156.72 246.07 157 246.67 157.25 247.27 157.42 247.87 157.53 248.47 157.6 249.07 157.6 249.7 157.53 250.97 157.39 252.25 157.35 252.88 157.28 253.52 157.25 254.15 157.28 254.75 157.32 255.39 157.42 255.95 157.49 256.27 157.56 256.55 157.67 256.83 157.81 257.12 157.95 257.36 158.09 257.58 158.23 257.79 158.41 258 158.8 258.39 159.22 258.74 159.72 259.06 160.18 259.38 160.71 259.66 161.24 259.94 162.26 260.51 163.25 261.11 163.71 261.42 164.09 261.81 164.48 262.24 164.8 262.66 165.01 263.12 165.19 263.58 165.29 264.07 165.37 264.56 165.37 265.63 165.33 266.68 165.33 267.21 165.29 267.74 165.29 268.27 165.33 268.77 165.4 269.26 165.54 269.75 165.68 270.21 165.93 270.67 166.25 271.1 166.6 271.52 166.95 271.91 167.38 272.26 167.8 272.61 168.26 272.93 168.72 273.21 169.18 273.5 170.17 274.06 171.16 274.63 172.14 275.19 173.06 275.79 171.72 276.43 170.41 277.06 169.11 277.73 167.77 278.37 166.81 277.63 165.75 276.92 164.73 276.25 163.67 275.58 163.18 275.23 162.68 274.87 162.19 274.49 161.76 274.1 161.31 273.67 160.92 273.21 160.56 272.72 160.25 272.23 160.14 272.01 160.03 271.84 159.96 271.63 159.93 271.41 159.86 270.95 159.86 270.5 159.89 270.04 159.93 269.54 160.03 269.08 160.1 268.59 160.21 268.1 160.28 267.6 160.32 267.14 160.35 266.68 160.35 266.23 160.28 265.77 160.21 265.55 160.14 265.34 160.07 265.17 159.96 264.95 159.79 264.71 159.61 264.46 159.4 264.25 159.19 264.04 158.73 263.65 158.23 263.33 157.71 263.01 157.14 262.69 156.57 262.41 156.01 262.17 155.44 261.88 154.88 261.6 154.32 261.28 153.82 260.96 153.36 260.61 152.94 260.19 152.73 259.98 152.55 259.76 152.41 259.52 152.27 259.24 152.13 258.99 152.06 258.74 151.95 258.46 151.91 258.21 151.84 257.65 151.84 257.08 151.91 256.52 151.99 255.92 152.09 255.35 152.23 254.75 152.48 253.55 152.69 252.39 152.73 251.82 152.73 251.22 152.73 250.94 152.66 250.66 152.62 250.41 152.55 250.13 152.34 249.56 152.09 249.03 151.84 248.54 151.53 248.04 151.21 247.55 150.86 247.09 150.5 246.63 150.12 246.17 149.3 245.29 148.49 244.37 147.71 243.49 146.97 242.57 148.03 241.58 149.06 240.63 150.08 239.68 151.1 238.72 151.1 238.72"/><polygon class="cls-4" points="162.01 247.87 161.76 249.24 161.45 250.59 161.13 251.93 160.85 253.27 160.74 253.94 160.63 254.61 160.6 255.28 160.56 255.92 160.56 256.59 160.6 257.26 160.67 257.93 160.81 258.6 160.92 258.88 160.99 259.13 161.09 259.34 161.2 259.59 161.48 260.01 161.84 260.4 162.19 260.79 162.58 261.14 163 261.46 163.42 261.81 164.27 262.48 165.05 263.19 165.4 263.58 165.75 264 166 264.46 166.25 264.92 166.43 265.52 166.53 266.08 166.6 266.68 166.64 267.25 166.6 268.41 166.53 269.54 166.43 270.71 166.39 271.84 166.43 272.44 166.5 273 166.64 273.6 166.81 274.17 167.03 274.73 167.31 275.26 167.59 275.76 167.94 276.25 168.3 276.71 168.68 277.17 169.07 277.63 169.5 278.09 170.38 278.93 171.26 279.78 172.14 280.63 172.99 281.51 173.8 280.56 174.54 279.71 175.28 278.9 176.13 277.94 175.5 277.17 174.79 276.43 174.09 275.69 173.38 274.91 173.06 274.56 172.74 274.17 172.43 273.74 172.14 273.36 171.86 272.93 171.65 272.51 171.44 272.05 171.26 271.59 171.12 271.03 171.01 270.46 170.98 269.9 170.98 269.33 171.05 268.17 171.19 267 171.3 266.4 171.33 265.84 171.4 265.24 171.4 264.67 171.4 264.11 171.33 263.54 171.23 262.98 171.05 262.45 170.87 262.02 170.59 261.6 170.27 261.25 169.92 260.89 169.14 260.29 168.3 259.69 167.84 259.41 167.45 259.09 167.06 258.78 166.67 258.46 166.35 258.11 166.07 257.75 165.97 257.54 165.86 257.33 165.79 257.12 165.72 256.87 165.58 256.31 165.54 255.74 165.54 255.18 165.58 254.61 165.65 254.04 165.75 253.44 165.86 252.88 166.04 252.31 166.39 251.15 166.74 249.99 166.92 249.42 167.06 248.86 167.2 248.26 167.34 247.69 166 247.73 164.66 247.8 163.35 247.83 162.01 247.87 162.01 247.87"/><polygon class="cls-4" points="214.72 237.59 213.91 238.65 213.06 239.68 212.18 240.7 211.33 241.72 210.91 242.25 210.52 242.75 210.13 243.31 209.78 243.84 209.42 244.41 209.1 244.97 208.82 245.57 208.58 246.17 208.4 246.74 208.29 247.37 208.26 247.97 208.22 248.61 208.29 249.84 208.44 251.15 208.47 251.79 208.54 252.42 208.58 253.06 208.58 253.66 208.5 254.26 208.4 254.86 208.33 255.18 208.26 255.46 208.15 255.74 208.01 256.02 207.87 256.27 207.73 256.48 207.59 256.69 207.41 256.9 207.02 257.29 206.6 257.65 206.14 257.96 205.65 258.28 205.12 258.56 204.62 258.85 203.56 259.41 202.57 260.01 202.15 260.33 201.73 260.72 201.34 261.11 201.02 261.56 200.81 262.02 200.63 262.48 200.53 262.98 200.49 263.47 200.46 264.5 200.49 265.59 200.49 266.12 200.53 266.65 200.53 267.18 200.49 267.67 200.42 268.17 200.31 268.66 200.14 269.12 199.89 269.54 199.4 270.32 199.04 270.85 198.8 271.13 198.55 271.34 198.27 271.52 197.88 271.73 197.31 272.05 196.57 272.58 196.64 274.49 196.64 275.54 196.68 275.93 196.68 275.93 196.68 275.79 196.68 275.76 196.68 276.11 196.71 277.03 197.21 276.67 197.74 276.32 198.3 275.97 198.94 275.65 200.21 275.01 201.48 274.38 202.12 274.03 202.72 273.67 203.32 273.32 203.88 272.93 204.38 272.54 204.83 272.08 205.04 271.87 205.26 271.63 205.43 271.38 205.61 271.13 205.72 270.92 205.79 270.71 205.86 270.5 205.89 270.28 205.96 269.86 205.96 269.4 205.96 268.94 205.89 268.45 205.82 267.95 205.72 267.5 205.65 267 205.54 266.51 205.5 266.05 205.47 265.55 205.47 265.1 205.54 264.67 205.61 264.46 205.68 264.25 205.79 264.04 205.89 263.86 206.03 263.61 206.21 263.37 206.42 263.15 206.63 262.94 207.09 262.55 207.59 262.2 208.12 261.88 208.68 261.6 209.25 261.32 209.81 261.04 210.38 260.79 210.94 260.51 211.51 260.19 212 259.87 212.49 259.52 212.92 259.09 213.09 258.88 213.27 258.67 213.45 258.42 213.59 258.14 213.69 257.89 213.8 257.61 213.87 257.36 213.91 257.08 213.98 256.55 213.98 255.99 213.94 255.42 213.84 254.82 213.73 254.26 213.59 253.66 213.34 252.46 213.13 251.29 213.09 250.69 213.09 250.13 213.13 249.84 213.16 249.56 213.2 249.28 213.27 249.03 213.48 248.47 213.73 247.94 213.98 247.44 214.29 246.95 214.61 246.46 214.97 246 215.35 245.54 215.74 245.08 216.52 244.16 217.33 243.28 218.11 242.4 218.85 241.48 217.82 240.49 216.77 239.54 215.74 238.58 214.72 237.59 214.72 237.59"/><polygon class="cls-4" points="203.32 244.48 203.6 245.85 203.92 247.2 204.23 248.54 204.48 249.88 204.62 250.51 204.69 251.19 204.76 251.86 204.8 252.53 204.8 253.2 204.76 253.87 204.66 254.54 204.52 255.21 204.44 255.46 204.38 255.71 204.27 255.95 204.13 256.16 203.84 256.59 203.53 257.01 203.17 257.36 202.79 257.72 202.36 258.07 201.94 258.39 201.09 259.09 200.28 259.8 199.93 260.19 199.61 260.61 199.33 261.04 199.12 261.53 198.94 262.09 198.8 262.69 198.73 263.26 198.69 263.86 198.73 264.99 198.83 266.15 198.94 267.28 198.97 268.45 198.94 269.01 198.87 269.61 198.73 270.18 198.55 270.78 198.3 271.31 198.06 271.84 197.74 272.37 197.42 272.86 197.07 273.32 196.68 273.78 196.25 274.24 195.87 274.66 194.98 275.54 194.1 276.39 193.22 277.24 192.37 278.09 191.56 277.17 190.78 276.32 190.04 275.47 189.23 274.56 189.87 273.78 190.54 273.04 191.24 272.26 191.95 271.52 192.3 271.13 192.62 270.74 192.94 270.36 193.22 269.97 193.47 269.54 193.71 269.08 193.93 268.66 194.1 268.2 194.24 267.64 194.35 267.07 194.38 266.51 194.38 265.94 194.28 264.78 194.14 263.61 194.07 263.01 194 262.41 193.96 261.85 193.93 261.25 193.96 260.68 194 260.12 194.1 259.59 194.28 259.02 194.49 258.6 194.74 258.21 195.06 257.86 195.41 257.5 196.22 256.87 197.07 256.31 197.49 255.99 197.91 255.71 198.3 255.39 198.66 255.07 199.01 254.72 199.26 254.33 199.4 254.15 199.5 253.94 199.57 253.73 199.64 253.48 199.75 252.92 199.82 252.35 199.82 251.79 199.78 251.22 199.72 250.62 199.61 250.06 199.47 249.49 199.33 248.89 198.97 247.76 198.62 246.6 198.44 246.03 198.27 245.43 198.13 244.87 198.02 244.3 199.36 244.34 200.67 244.37 202.01 244.44 203.32 244.48 203.32 244.48"/><polygon class="cls-4" points="343.11 215 343.93 216.06 344.77 217.08 345.65 218.07 346.5 219.1 346.93 219.63 347.31 220.16 347.7 220.68 348.09 221.21 348.41 221.78 348.73 222.34 349.01 222.94 349.26 223.54 349.43 224.14 349.54 224.74 349.61 225.34 349.61 225.98 349.54 227.25 349.43 228.52 349.36 229.16 349.29 229.79 349.29 230.43 349.29 231.03 349.33 231.66 349.43 232.26 349.5 232.55 349.57 232.83 349.68 233.11 349.82 233.39 349.96 233.64 350.1 233.85 350.25 234.1 350.42 234.31 350.81 234.66 351.23 235.02 351.73 235.34 352.19 235.65 352.72 235.94 353.25 236.22 354.27 236.78 355.26 237.38 355.72 237.74 356.11 238.09 356.49 238.51 356.81 238.97 357.02 239.4 357.2 239.85 357.31 240.35 357.38 240.84 357.38 241.9 357.34 242.96 357.34 243.49 357.31 244.02 357.31 244.55 357.34 245.04 357.41 245.57 357.55 246.03 357.69 246.49 357.94 246.95 358.44 247.73 358.79 248.22 359.11 248.54 359.35 248.75 359.67 248.89 360.06 249.1 360.62 249.42 361.37 249.95 360.69 251.75 360.34 252.6 360.27 252.74 360.24 252.77 360.24 252.74 360.24 252.63 360.27 252.53 360.31 252.46 360.34 252.42 360.31 252.49 360.17 253.13 359.81 254.65 358.82 253.9 357.8 253.23 356.74 252.53 355.68 251.86 355.19 251.5 354.69 251.15 354.2 250.76 353.77 250.37 353.32 249.95 352.93 249.49 352.57 249.03 352.26 248.5 352.15 248.33 352.05 248.11 351.97 247.9 351.94 247.69 351.87 247.23 351.87 246.77 351.9 246.31 351.94 245.82 352.05 245.36 352.12 244.87 352.22 244.37 352.29 243.88 352.33 243.42 352.36 242.96 352.36 242.5 352.29 242.04 352.22 241.83 352.15 241.62 352.08 241.44 351.97 241.23 351.8 240.98 351.62 240.77 351.41 240.52 351.2 240.31 350.74 239.96 350.25 239.61 349.71 239.29 349.15 239.01 348.58 238.72 348.02 238.44 347.46 238.16 346.89 237.88 346.36 237.56 345.83 237.24 345.37 236.89 344.95 236.5 344.74 236.25 344.56 236.04 344.42 235.79 344.28 235.55 344.14 235.26 344.07 235.02 344 234.74 343.93 234.49 343.86 233.92 343.86 233.36 343.93 232.79 344 232.23 344.1 231.63 344.24 231.03 344.49 229.86 344.7 228.66 344.74 228.1 344.74 227.53 344.74 227.25 344.67 226.97 344.63 226.69 344.56 226.4 344.35 225.84 344.1 225.31 343.86 224.81 343.54 224.32 343.22 223.83 342.87 223.37 342.51 222.91 342.13 222.45 341.31 221.57 340.5 220.68 339.73 219.77 338.98 218.85 340.04 217.9 341.07 216.91 342.09 215.95 343.11 215 343.11 215"/><polygon class="cls-4" points="355.57 219.8 355.29 221.14 354.98 222.38 354.66 223.54 354.41 224.71 354.27 225.27 354.2 225.84 354.13 226.44 354.09 227 354.09 227.6 354.13 228.24 354.23 228.88 354.38 229.54 354.45 229.79 354.52 230.04 354.62 230.29 354.76 230.5 355.05 230.92 355.36 231.31 355.72 231.7 356.11 232.05 356.53 232.41 356.95 232.72 357.8 233.39 358.61 234.13 358.96 234.52 359.28 234.91 359.56 235.37 359.78 235.87 359.95 236.43 360.09 237.03 360.17 237.59 360.2 238.19 360.17 239.32 360.06 240.49 359.95 241.62 359.92 242.78 359.95 243.35 360.02 243.95 360.17 244.51 360.34 245.11 360.59 245.64 360.83 246.17 361.15 246.7 361.47 247.16 361.82 247.66 362.21 248.11 362.64 248.57 363.02 249 363.91 249.84 364.79 250.69 365.67 251.57 366.52 252.42 367.33 251.5 368.11 250.66 368.85 249.81 369.66 248.89 369.03 248.11 368.36 247.34 367.65 246.6 366.94 245.85 366.59 245.47 366.27 245.08 365.95 244.69 365.67 244.27 365.43 243.88 365.18 243.42 364.97 243 364.79 242.5 364.65 241.97 364.54 241.41 364.51 240.84 364.51 240.28 364.61 239.11 364.75 237.91 364.82 237.35 364.89 236.75 364.93 236.18 364.97 235.58 364.93 235.02 364.89 234.45 364.79 233.92 364.61 233.36 364.4 232.93 364.15 232.55 363.84 232.19 363.48 231.84 362.67 231.21 361.82 230.64 361.4 230.32 360.98 230.04 360.59 229.72 360.24 229.4 359.88 229.05 359.63 228.66 359.49 228.49 359.39 228.27 359.32 228.03 359.25 227.82 359.14 227.25 359.07 226.69 359.07 226.12 359.11 225.52 359.18 224.96 359.28 224.39 359.42 223.83 359.56 223.23 359.92 222.1 360.27 220.93 360.45 220.33 360.62 219.77 360.76 219.2 360.87 218.64 360.2 218.67 359.53 218.81 358.89 219.03 358.22 219.2 357.55 219.41 356.88 219.63 356.21 219.77 355.57 219.8 355.57 219.8"/><polygon class="cls-4" points="420.04 210.45 419.23 211.51 418.38 212.53 417.53 213.55 416.65 214.58 416.26 215.07 415.84 215.6 415.45 216.13 415.1 216.69 414.74 217.22 414.43 217.82 414.14 218.39 413.89 219.03 413.75 219.59 413.61 220.19 413.58 220.83 413.54 221.43 413.61 222.7 413.75 223.97 413.82 224.6 413.86 225.24 413.89 225.87 413.89 226.51 413.82 227.11 413.75 227.71 413.65 227.99 413.58 228.27 413.47 228.56 413.33 228.84 413.22 229.09 413.05 229.33 412.91 229.54 412.73 229.76 412.34 230.15 411.92 230.5 411.46 230.82 410.96 231.1 410.47 231.38 409.94 231.66 408.88 232.23 407.93 232.83 407.47 233.18 407.05 233.53 406.69 233.96 406.38 234.42 406.13 234.84 405.99 235.34 405.88 235.79 405.81 236.32 405.77 237.35 405.81 238.41 405.85 238.94 405.85 239.47 405.85 240 405.81 240.52 405.74 241.02 405.63 241.51 405.46 241.97 405.21 242.4 404.72 243.17 404.29 243.74 403.98 244.09 403.66 244.37 402.81 244.87 401.43 245.75 402.1 247.2 402.49 248.04 402.63 248.5 402.7 248.68 402.7 248.75 402.77 248.89 402.99 249.24 403.38 249.99 403.83 249.63 404.36 249.24 404.86 248.93 405.39 248.57 406.45 247.94 407.47 247.27 408 246.91 408.46 246.56 408.95 246.21 409.41 245.82 409.83 245.4 410.22 244.94 410.58 244.48 410.93 243.98 411.04 243.77 411.11 243.56 411.18 243.35 411.25 243.14 411.28 242.71 411.32 242.25 411.28 241.76 411.21 241.3 411.14 240.81 411.04 240.31 410.96 239.82 410.89 239.36 410.82 238.87 410.79 238.41 410.82 237.95 410.89 237.52 410.93 237.31 411 237.1 411.11 236.89 411.21 236.71 411.35 236.47 411.56 236.22 411.74 236.01 411.95 235.79 412.41 235.41 412.91 235.05 413.44 234.74 414 234.45 414.57 234.17 415.13 233.89 415.73 233.6 416.3 233.32 416.82 233.04 417.32 232.69 417.81 232.33 418.24 231.95 418.41 231.73 418.59 231.49 418.77 231.24 418.91 230.99 419.01 230.75 419.12 230.46 419.19 230.22 419.23 229.93 419.3 229.37 419.3 228.84 419.26 228.24 419.15 227.67 419.05 227.07 418.91 226.51 418.66 225.31 418.45 224.14 418.41 223.54 418.41 222.98 418.45 222.7 418.48 222.41 418.56 222.13 418.63 221.85 418.8 221.32 419.05 220.79 419.33 220.26 419.61 219.77 419.93 219.31 420.29 218.81 420.67 218.35 421.06 217.9 421.84 217.01 422.65 216.13 423.43 215.21 424.17 214.29 423.14 213.34 422.12 212.39 421.06 211.4 420.04 210.45 420.04 210.45"/><polygon class="cls-4" points="405.07 215.04 405.35 216.38 405.67 217.75 405.99 219.06 406.27 220.4 406.38 221.07 406.45 221.74 406.52 222.41 406.55 223.09 406.55 223.76 406.52 224.43 406.41 225.1 406.27 225.77 406.2 226.01 406.13 226.26 406.02 226.51 405.88 226.72 405.6 227.15 405.28 227.53 404.93 227.92 404.54 228.27 404.12 228.63 403.69 228.94 402.85 229.62 402.03 230.36 401.68 230.75 401.36 231.13 401.08 231.59 400.87 232.09 400.69 232.65 400.59 233.25 400.48 233.82 400.48 234.38 400.48 235.55 400.59 236.71 400.69 237.84 400.73 239.01 400.69 239.57 400.62 240.17 400.48 240.74 400.3 241.3 400.09 241.87 399.81 242.4 399.49 242.89 399.17 243.38 398.82 243.88 398.43 244.34 398.04 244.8 397.62 245.22 396.74 246.07 395.86 246.91 394.97 247.76 394.13 248.64 393.31 247.73 392.57 246.88 391.8 246.03 390.98 245.11 391.62 244.34 392.32 243.56 393.03 242.82 393.7 242.08 394.06 241.69 394.37 241.3 394.69 240.91 394.97 240.49 395.22 240.06 395.47 239.64 395.68 239.18 395.86 238.72 396 238.19 396.1 237.63 396.14 237.06 396.14 236.5 396.03 235.34 395.89 234.13 395.82 233.57 395.75 232.97 395.71 232.41 395.68 231.81 395.71 231.24 395.79 230.68 395.89 230.15 396.03 229.58 396.24 229.16 396.53 228.77 396.81 228.38 397.16 228.06 397.97 227.43 398.82 226.83 399.24 226.54 399.67 226.26 400.06 225.94 400.44 225.63 400.76 225.27 401.05 224.88 401.15 224.67 401.26 224.46 401.33 224.25 401.4 224.04 401.5 223.47 401.57 222.91 401.57 222.34 401.54 221.74 401.47 221.18 401.36 220.61 401.22 220.01 401.08 219.45 400.73 218.28 400.37 217.15 400.2 216.55 400.02 215.99 399.88 215.42 399.77 214.82 401.12 214.9 402.42 214.93 403.76 214.97 405.07 215.04 405.07 215.04"/><path class="cls-4" d="M397.3,357.17l0-.38-.1-1-.07-.63-.11-.71-.14-.78-.14-.81-.21-.77-.25-.82-.28-.74-.32-.67-.18-.32-.17-.28-.21-.25-.22-.21-.24-.17-.25-.15-.25-.1-.28-.07-3.88-.6-4.8-.74-5.55-.85-6.18-1-6.56-1L360,343.16l-7-1.06L346.11,341l-6.71-1-6.35-1-5.79-.88-5.12-.78-4.27-.67-3.25-.5-2.05-.31-.74-.11-.74-.14-.71-.18-.67-.21L309,335l-.63-.28-.64-.28-.63-.35-.6-.36-.57-.39-.56-.42-.53-.42-.5-.46-.49-.5-.46-.49-.46-.53-.42-.56-.39-.57-.35-.56-.32-.6-.32-.64-.28-.64-.25-.63-.21-.67-.18-.67-.14-.67-.14-.71-.07-.67-.07-.71v-1.44l.07-.74.11-.71.1-.74.18-.71.21-.67.21-.7.25-.64.32-.64.31-.63.36-.6.35-.6.42-.57.43-.53.46-.53.46-.49.49-.46.53-.46.53-.42.56-.42.6-.36.57-.35.63-.32.6-.28.67-.25.64-.24.67-.18.67-.18.71-.14.67-.11.7-.07.71,0,.74,0,.71,0,.74.07.74.11,2.05.31,3.25.5,4.27.67,5.12.78,5.79.88,6.35,1,6.71,1.06,6.92,1.06,6.95,1.06,6.89,1.06,6.56,1,6.18.95,5.54.85,4.8.74,3.92.6h.25l.28,0,.28-.07.29-.1.28-.15.25-.17.28-.21.25-.25.53-.53.45-.64.5-.67.42-.7.39-.71.35-.7.32-.68.28-.56.39-.88.14-.36-6.88,44.87Zm-5-20.9L312.5,331.9l-.53,0-.53-.07-.49-.14-.49-.11-.46-.17-.5-.21-.42-.22-.46-.24-.42-.29-.39-.28-.39-.32-.39-.35-.35-.35-.32-.39-.32-.39-.32-.42-.28-.43-.24-.42-.25-.46-.21-.49-.22-.46-.17-.5-.14-.49-.14-.53-.11-.49-.07-.53-.07-.53,0-.53V321l0-.53.07-.53.1-.53.11-.53.14-.49.18-.5.21-.49.21-.46.21-.46.25-.46.28-.42.29-.43.31-.38.36-.39.31-.36.39-.35.36-.32.42-.31.39-.32.42-.25.42-.25.46-.24.46-.22.46-.17.5-.18.45-.14.5-.11.49-.1.53-.07.5,0,.53,0,.53,0,.49,0,.53.07,79,12.11-2.33,13.09Z" transform="translate(-15 -138.89)"/><path class="cls-4" d="M197.59,357.46l0-.36.1-1,.07-.63.11-.71.14-.77.18-.78.18-.81.24-.81.28-.75.32-.67.18-.28.21-.28.18-.28.21-.22.25-.17.24-.14.25-.11.28-.07,3.89-.6,4.8-.74,5.57-.85,6.15-.95,6.56-1,6.89-1.06,7-1.06,6.92-1.06,6.71-1,6.35-1,5.79-.88,5.12-.78L277,337l3.25-.53,2.08-.32.71-.11.74-.14.71-.17.67-.22.67-.24.63-.25.64-.32.64-.35.6-.35.56-.39.57-.39.53-.46.49-.46.49-.49.46-.5.46-.53.42-.56.39-.57.36-.56.31-.6.32-.64.28-.63.25-.64.21-.67.18-.67.14-.67.14-.71.07-.67.07-.7v-1.45l-.07-.74-.1-.71-.11-.74-.18-.71-.21-.67-.21-.7-.25-.64-.31-.63-.32-.64-.35-.6-.36-.6-.42-.56-.43-.53-.45-.53-.46-.5-.5-.46-.53-.45-.53-.43-.56-.42-.57-.36-.6-.35-.63-.32-.6-.28-.64-.25L285,308l-.67-.18-.67-.18-.71-.14-.67-.1-.7-.07-.71,0-.74,0-.71,0-.74.07-.74.11-2.05.32-3.24.49-4.28.67-5.11.78-5.79.88-6.36,1-6.71,1-6.92,1.06-6.95,1.06-6.88,1.06-6.57,1-6.18.95-5.54.85-4.8.74-3.92.6h-.53l-.28-.07-.28-.14-.25-.14-.28-.18-.29-.21-.24-.25-.5-.53-.49-.63-.46-.67-.46-.71-.39-.71-.35-.7-.32-.67-.28-.57-.39-.88-.14-.35,6.88,44.87Zm5-20.9,79.82-4.38.53,0,.53-.07.49-.1.5-.14.46-.18.49-.21.42-.21.46-.25.43-.28.38-.29.39-.31.39-.36.35-.35.32-.39.32-.39.32-.42.28-.42.25-.43.24-.46.22-.49.21-.46.17-.49.15-.5.14-.53.1-.49.07-.53.07-.53,0-.53v-1.06l0-.53-.07-.53-.1-.53-.11-.53-.14-.49-.18-.5-.17-.49-.21-.46-.25-.46-.25-.46-.28-.42-.28-.42-.32-.39-.35-.39-.32-.35-.39-.36-.35-.31-.43-.32-.39-.28-.42-.29-.42-.24-.46-.25-.46-.21-.46-.18-.46-.18-.49-.14-.5-.1-.49-.11-.53-.07-.49,0-.53,0-.5,0-.53,0-.53.07-79,12.11,2.33,13.1Z" transform="translate(-15 -138.89)"/><polygon class="cls-4" points="183.72 231.28 183.41 232.79 183.16 234.21 182.98 235.48 182.84 236.75 182.7 238.02 182.52 239.36 182.31 240.81 181.99 242.4 181.85 243 181.68 243.6 181.46 244.2 181.22 244.8 180.65 246.1 180.09 247.44 179.77 248.15 179.52 248.86 179.28 249.6 179.06 250.34 178.85 251.12 178.71 251.89 178.64 252.7 178.6 253.55 178.6 254.4 178.64 255.28 178.75 256.23 178.89 257.15 179.03 258.07 179.24 258.99 179.49 259.87 179.8 260.68 180.12 261.49 180.51 262.2 180.72 262.55 180.93 262.84 181.18 263.15 181.43 263.4 181.68 263.65 181.96 263.86 182.24 264.07 182.52 264.21 182.84 264.35 183.16 264.42 183.51 264.5 183.86 264.53 184.22 264.5 184.57 264.46 184.92 264.39 185.24 264.28 185.56 264.14 185.88 263.96 186.16 263.75 186.48 263.54 186.72 263.3 187.01 263.01 187.25 262.73 187.5 262.41 187.75 262.06 187.96 261.71 188.17 261.32 188.38 260.93 188.74 260.12 189.05 259.24 189.34 258.32 189.55 257.36 189.76 256.41 189.87 255.46 189.97 254.5 189.97 253.55 189.97 252.84 189.9 252.17 189.76 251.5 189.62 250.83 189.44 250.2 189.19 249.56 188.95 248.93 188.7 248.29 188.17 247.02 187.61 245.75 187.36 245.11 187.11 244.44 186.9 243.81 186.72 243.14 186.34 241.65 185.95 240.17 185.59 238.69 185.21 237.21 184.85 235.72 184.46 234.24 184.11 232.76 183.72 231.28 183.72 231.28"/><polygon class="cls-4" points="184.85 200.49 184.53 202.01 184.29 203.39 184.11 204.69 183.97 205.93 183.83 207.2 183.69 208.54 183.44 209.99 183.16 211.61 183.02 212.18 182.81 212.78 182.59 213.38 182.35 214.01 181.78 215.28 181.22 216.63 180.93 217.33 180.65 218.04 180.4 218.78 180.19 219.52 180.02 220.3 179.88 221.07 179.77 221.88 179.73 222.73 179.73 223.58 179.8 224.5 179.88 225.41 180.02 226.33 180.19 227.25 180.37 228.17 180.62 229.05 180.93 229.9 181.25 230.68 181.64 231.38 181.85 231.73 182.1 232.05 182.31 232.33 182.56 232.62 182.84 232.83 183.09 233.08 183.37 233.25 183.69 233.39 184 233.53 184.32 233.64 184.64 233.68 184.99 233.71 185.35 233.71 185.7 233.64 186.05 233.57 186.37 233.46 186.69 233.32 187.01 233.15 187.32 232.93 187.61 232.72 187.89 232.47 188.14 232.19 188.42 231.91 188.63 231.59 188.88 231.24 189.09 230.89 189.3 230.53 189.51 230.11 189.87 229.3 190.22 228.42 190.47 227.5 190.71 226.58 190.89 225.63 191.03 224.64 191.1 223.69 191.14 222.73 191.1 222.03 191.03 221.35 190.92 220.68 190.75 220.05 190.57 219.38 190.36 218.74 190.11 218.11 189.83 217.47 189.3 216.2 188.74 214.93 188.49 214.29 188.24 213.66 188.03 212.99 187.85 212.32 187.47 210.84 187.11 209.35 186.72 207.87 186.37 206.39 185.98 204.9 185.59 203.42 185.24 201.94 184.85 200.49 184.85 200.49"/><polygon class="cls-4" points="381.77 197.07 381.42 198.59 381.2 199.96 381.03 201.27 380.89 202.5 380.75 203.81 380.57 205.12 380.36 206.56 380.04 208.19 379.9 208.75 379.72 209.35 379.51 209.95 379.26 210.59 378.7 211.86 378.1 213.2 377.82 213.91 377.53 214.61 377.29 215.35 377.07 216.09 376.9 216.87 376.76 217.65 376.65 218.46 376.62 219.31 376.65 220.16 376.69 221.07 376.79 221.99 376.9 222.91 377.07 223.83 377.29 224.74 377.53 225.63 377.82 226.47 378.17 227.25 378.56 227.96 378.77 228.31 378.98 228.63 379.23 228.91 379.48 229.19 379.72 229.4 380 229.65 380.29 229.83 380.57 229.97 380.89 230.11 381.2 230.22 381.56 230.25 381.91 230.29 382.26 230.29 382.62 230.22 382.94 230.15 383.29 230.04 383.61 229.9 383.92 229.72 384.21 229.51 384.49 229.3 384.77 229.05 385.05 228.77 385.3 228.49 385.55 228.17 385.76 227.82 386.01 227.46 386.22 227.11 386.39 226.72 386.78 225.87 387.1 224.99 387.38 224.11 387.6 223.16 387.77 222.2 387.91 221.21 387.98 220.26 388.02 219.31 388.02 218.6 387.91 217.93 387.81 217.26 387.67 216.63 387.45 215.95 387.24 215.32 387 214.68 386.75 214.05 386.18 212.78 385.65 211.51 385.41 210.87 385.16 210.24 384.95 209.56 384.74 208.89 384.38 207.41 383.99 205.93 383.64 204.44 383.25 202.96 382.86 201.48 382.51 200 382.12 198.51 381.77 197.07 381.77 197.07"/><polygon class="cls-4" points="381.77 223.86 381.42 225.38 381.2 226.76 381.03 228.06 380.89 229.33 380.75 230.6 380.57 231.95 380.36 233.39 380.04 234.98 379.9 235.58 379.72 236.15 379.51 236.78 379.26 237.38 378.7 238.69 378.1 240.03 377.82 240.74 377.53 241.44 377.29 242.18 377.07 242.93 376.9 243.7 376.76 244.48 376.65 245.29 376.62 246.1 376.65 246.99 376.69 247.87 376.79 248.78 376.9 249.74 377.07 250.66 377.29 251.57 377.53 252.42 377.82 253.27 378.17 254.08 378.56 254.79 378.77 255.1 378.98 255.42 379.23 255.74 379.48 255.99 379.72 256.23 380 256.45 380.29 256.62 380.57 256.8 380.89 256.9 381.2 257.01 381.56 257.08 381.91 257.12 382.26 257.08 382.62 257.05 382.94 256.98 383.29 256.83 383.61 256.73 383.92 256.55 384.21 256.34 384.49 256.13 384.77 255.88 385.05 255.6 385.3 255.28 385.55 254.96 385.76 254.65 386.01 254.29 386.22 253.9 386.39 253.52 386.78 252.7 387.1 251.82 387.38 250.9 387.6 249.95 387.77 249 387.91 248.04 387.98 247.06 388.02 246.1 388.02 245.43 387.91 244.76 387.81 244.09 387.67 243.42 387.45 242.78 387.24 242.15 387 241.51 386.75 240.88 386.18 239.61 385.65 238.34 385.41 237.7 385.16 237.03 384.95 236.36 384.74 235.69 384.38 234.24 383.99 232.76 383.64 231.28 383.25 229.79 382.86 228.31 382.51 226.83 382.12 225.34 381.77 223.86 381.77 223.86"/></svg>