<svg id="Ebene_1" data-name="Ebene 1" xmlns="http://www.w3.org/2000/svg" viewBox="0 0 564.82 564.79"><defs><style>.cls-1{fill:#fff;}.cls-1,.cls-2,.cls-4,.cls-6{fill-rule:evenodd;}.cls-2{fill:#da251d;}.cls-3,.cls-5{fill:none;stroke-linecap:square;stroke-miterlimit:10;stroke-width:0.21px;}.cls-3{stroke:#242729;}.cls-4{fill:#000808;}.cls-5{stroke:#000;}</style></defs><polygon class="cls-1" points="0.01 282.43 282.25 0.18 564.53 282.43 282.25 564.67 0.01 282.43 0.01 282.43"/><path class="cls-2" d="M20.69,421.32l276.56-276.6,276.6,276.6L297.25,697.88,20.69,421.32Zm44.84,0L297.25,189.59,529,421.32,297.25,653,65.53,421.32Z" transform="translate(-15 -138.89)"/><polyline class="cls-3" points="0.15 282.22 282.25 0.15 564.67 282.22 282.25 564.64 0.15 282.22"/><polygon class="cls-4" points="212 302.41 211.61 301.92 210.8 300.89 209.95 299.87 209.14 298.84 208.33 297.86 207.52 296.83 206.71 295.81 205.86 294.78 205.15 293.41 204.48 292.07 203.78 290.73 203.07 289.35 202.36 287.97 201.66 286.63 200.95 285.25 200.24 283.91 199.93 282.15 199.57 280.38 199.26 278.62 198.9 276.89 198.59 275.16 198.23 273.39 197.91 271.63 197.56 269.86 197.24 268.13 196.89 266.37 196.57 264.6 196.22 262.87 195.9 261.11 195.55 259.38 195.23 257.61 194.91 255.85 194.88 253.8 194.88 251.79 194.84 249.74 194.84 247.69 194.84 245.68 194.81 243.63 194.81 241.58 194.81 239.57 194.81 237.52 194.77 235.51 194.77 233.46 194.77 231.42 194.77 229.4 194.74 227.36 194.74 225.34 194.74 223.3 194.6 222.03 194.49 220.75 194.35 219.48 194.21 218.21 194.07 216.94 193.93 215.67 193.82 214.4 193.68 213.13 193.54 211.82 193.4 210.55 193.29 209.28 193.15 208.01 193.01 206.74 192.87 205.47 192.72 204.2 192.62 202.93 192.48 202.65 192.34 202.36 192.34 201.76 192.34 201.16 192.34 200.56 192.34 199.96 192.58 200.03 192.83 200.14 193.11 200.28 193.4 200.42 193.75 200.63 194.07 200.84 194.46 201.09 194.81 201.34 195.62 201.9 196.5 202.54 197.38 203.25 198.3 203.95 200.21 205.43 202.04 206.92 202.89 207.59 203.7 208.22 204.48 208.79 205.15 209.28 206.6 210.13 208.01 211.01 209.42 211.86 210.84 212.71 212.25 213.59 213.66 214.44 215.11 215.32 216.52 216.17 216.31 215.11 216.13 214.05 215.95 212.99 215.74 211.93 215.53 210.87 215.35 209.81 215.14 208.72 214.97 207.69 214.79 206.6 214.61 205.54 214.47 204.48 214.33 203.42 214.22 202.36 214.12 201.34 214.05 200.28 213.94 199.26 213.98 198.06 213.98 196.89 214.01 195.69 214.01 194.53 214.01 193.32 214.05 192.16 214.05 190.96 214.05 189.79 214.05 188.59 214.01 187.43 213.98 186.26 213.94 185.06 213.94 183.9 213.91 182.73 213.91 181.57 213.87 180.37 213.84 179.03 213.8 177.72 213.69 176.41 213.59 175.07 213.45 173.8 213.31 172.5 213.13 171.19 212.95 169.92 212.78 168.65 212.6 167.38 212.39 166.07 212.18 164.8 211.97 163.49 211.72 162.22 211.51 160.95 211.33 159.68 211.51 159.82 211.72 160.03 212.07 160.39 212.67 161.06 213.59 162.12 214.86 163.67 216.69 165.79 219.06 168.61 220.05 169.99 220.9 171.12 221.64 172.14 222.38 173.2 223.26 174.51 224.39 176.13 225.84 178.25 227.71 181.04 229.02 181.68 230.29 182.35 231.59 183.02 232.9 183.72 234.17 184.39 235.48 185.06 236.78 185.77 238.09 186.41 237.91 184.99 237.7 183.58 237.52 182.17 237.38 180.76 237.21 179.34 237.03 177.9 236.82 176.49 236.68 175.07 236.5 173.66 236.32 172.25 236.15 170.84 235.97 169.43 235.79 168.01 235.62 166.6 235.48 165.15 235.26 163.74 235.62 161.06 235.97 158.69 236.22 156.65 236.47 154.88 236.68 153.33 236.82 152.06 236.99 150.96 237.13 150.04 237.24 149.3 237.31 148.67 237.42 148.14 237.49 147.64 237.56 147.22 237.63 146.87 237.7 146.44 237.81 146.02 238.48 144.71 239.18 143.37 239.89 142.07 240.56 140.76 241.27 139.45 241.97 138.15 242.68 136.84 243.35 135.53 243.28 134.86 243.14 134.19 243 133.52 242.85 132.85 242.5 131.55 242.15 130.2 241.76 128.93 241.37 127.66 241.02 126.39 240.7 125.16 240.81 125.12 240.98 125.08 241.69 125.97 242.4 126.85 243.1 127.7 243.84 128.58 244.55 129.43 245.25 130.31 245.96 131.16 246.7 132.04 247.41 132.92 248.12 133.77 248.82 134.65 249.53 135.53 250.27 136.38 250.97 137.26 251.68 138.15 252.39 138.99 252.56 139.31 252.7 139.63 252.84 140.02 252.99 140.37 253.27 141.22 253.52 142.07 253.76 142.95 253.97 143.8 254.19 144.61 254.4 145.35 254.89 146.41 255.42 147.47 255.95 148.53 256.48 149.59 257.05 150.64 257.68 151.7 258.32 152.8 259.02 153.89 260.96 156.4 262.41 158.31 263.47 159.68 264.18 160.6 264.67 161.16 264.95 161.48 265.1 161.62 265.2 161.69 266.15 159.36 267 157.32 267.71 155.48 268.34 153.96 268.87 152.62 269.33 151.49 269.68 150.54 270 149.76 270.25 149.13 270.43 148.6 270.6 148.17 270.71 147.85 270.81 147.57 270.88 147.36 270.95 147.15 271.03 146.94 271.34 145.49 271.59 144.04 271.87 142.56 272.16 141.11 272.44 139.63 272.72 138.18 273 136.74 273.29 135.29 273.57 133.81 273.85 132.36 274.13 130.91 274.42 129.46 274.7 127.98 274.98 126.53 275.26 125.08 275.55 123.64 275.55 122.54 275.55 121.45 275.58 120.32 275.58 119.26 275.58 118.13 275.58 117.04 275.58 115.98 275.58 114.85 275.58 113.75 275.62 112.69 275.62 111.56 275.62 110.5 275.62 109.41 275.62 108.32 275.62 107.22 275.62 106.13 276.18 103.69 276.64 101.54 277.06 99.67 277.45 98.04 277.77 96.63 278.05 95.4 278.3 94.34 278.51 93.38 278.72 92.57 278.9 91.83 279.04 91.16 279.18 90.52 279.32 89.89 279.46 89.22 279.6 88.51 279.75 87.73 279.82 87.67 279.89 87.56 279.96 87.42 279.99 87.28 280.13 86.92 280.27 86.53 280.52 85.55 280.73 84.45 280.98 83.36 281.16 82.33 281.26 81.88 281.37 81.45 281.44 81.13 281.55 80.89 281.86 82.3 282.25 83.71 282.57 85.12 282.96 86.53 283.28 87.98 283.66 89.39 283.98 90.81 284.37 92.22 284.69 93.63 285.08 95.08 285.39 96.49 285.78 97.9 286.13 99.31 286.49 100.76 286.84 102.17 287.19 103.59 287.9 105.25 288.57 106.9 289.28 108.53 289.98 110.19 290.65 111.81 291.36 113.47 292 115.09 292.67 116.75 293.34 118.41 293.97 120.11 294.57 121.77 295.17 123.5 295.77 125.19 296.34 126.96 296.83 128.72 297.36 130.49 297.43 130.63 297.5 130.84 297.61 131.12 297.68 131.44 297.79 131.79 297.89 132.07 298 132.29 298.07 132.43 298.7 134.69 299.2 136.45 299.59 137.72 299.87 138.64 300.08 139.31 300.22 139.81 300.33 140.23 300.43 140.58 300.43 142.1 300.43 143.62 300.43 145.1 300.43 146.62 300.43 148.1 300.43 149.59 300.43 151.1 300.43 152.59 300.43 154.1 300.43 155.62 300.43 157.1 300.43 158.62 300.43 160.1 300.43 161.62 300.43 163.14 300.43 164.62 300.61 164.55 300.79 164.45 302.06 163.81 303.29 163.21 304.56 162.58 305.8 161.98 307.03 161.34 308.31 160.74 309.58 160.14 310.81 159.5 311.48 158.16 312.15 156.82 312.82 155.48 313.5 154.14 314.17 152.76 314.84 151.42 315.51 150.08 316.21 148.74 316.53 147.15 316.88 145.56 317.2 144.01 317.56 142.42 317.87 140.83 318.23 139.24 318.58 137.69 318.9 136.1 318.93 135.39 318.97 134.65 319 133.95 319.04 133.21 319.07 132.5 319.11 131.76 319.14 131.02 319.18 130.28 320.03 132.11 320.87 133.91 321.69 135.71 322.53 137.51 323.34 139.31 324.19 141.11 325.04 142.95 325.89 144.75 326.73 146.55 327.55 148.35 328.39 150.15 329.2 151.95 330.05 153.75 330.9 155.59 331.75 157.39 332.56 159.19 332.56 160.25 332.56 161.31 332.56 162.4 332.52 163.46 332.52 164.52 332.52 165.58 332.52 166.67 332.52 167.69 332.52 168.79 332.49 169.85 332.49 170.91 332.49 171.97 332.49 173.06 332.49 174.12 332.49 175.18 332.49 176.24 332.2 177.83 331.96 179.42 331.68 180.97 331.39 182.56 331.15 184.15 330.86 185.74 330.62 187.32 330.33 188.88 333.37 187.5 335.63 186.44 337.29 185.66 338.42 185.13 339.16 184.78 339.62 184.57 339.94 184.39 340.18 184.22 340.85 183.55 341.49 182.84 342.16 182.17 342.83 181.5 343.5 180.83 344.14 180.12 344.77 179.45 345.44 178.78 345.65 178.36 345.87 177.97 346.08 177.44 346.36 176.77 346.71 175.78 347.24 174.4 347.95 172.53 348.83 170.06 349.22 171.26 349.61 172.5 349.96 173.73 350.39 175 350.81 176.27 351.2 177.54 351.59 178.85 351.97 180.16 352.36 181.46 352.75 182.77 353.07 184.04 353.42 185.38 353.7 186.69 353.99 187.96 354.23 189.23 354.45 190.5 354.16 191.53 353.85 192.51 353.53 193.57 353.21 194.56 352.93 195.58 352.61 196.61 352.29 197.63 352.01 198.66 351.69 199.68 351.37 200.7 351.06 201.73 350.77 202.75 350.46 203.78 350.14 204.8 349.86 205.82 349.54 206.85 349.01 209.28 348.55 211.44 348.16 213.31 347.81 214.9 347.53 216.24 347.28 217.4 347.1 218.32 346.93 219.06 346.82 219.66 346.71 220.08 346.68 220.44 346.64 220.68 346.61 220.83 346.61 220.97 346.61 221.04 346.61 221.07 349.54 219.73 351.8 218.67 353.42 217.93 354.55 217.37 355.36 216.98 355.93 216.66 356.39 216.41 356.81 216.13 357.87 215.18 358.89 214.19 359.92 213.24 360.94 212.28 361.96 211.29 362.99 210.34 364.05 209.39 365.07 208.43 365.11 207.76 365.11 207.09 365.14 206.46 365.18 205.82 365.18 205.15 365.21 204.52 365.25 203.84 365.25 203.25 366.63 208.89 367.82 213.84 368.85 218.14 369.77 221.81 370.51 224.92 371.14 227.53 371.67 229.69 372.1 231.38 372.42 232.72 372.7 233.75 372.87 234.49 373.01 234.98 373.12 235.34 373.19 235.55 373.23 235.62 373.3 235.69 373.3 235.76 373.3 235.87 373.26 237.7 373.26 239.57 373.26 241.41 373.23 243.24 373.23 245.08 373.23 246.91 373.23 248.78 373.19 250.62 373.19 252.49 373.19 254.33 373.16 256.16 373.16 258 373.12 259.87 373.12 261.71 373.12 263.58 373.08 265.41 372.59 266.89 372.03 268.45 371.39 270.07 370.75 271.8 370.47 272.65 370.19 273.53 369.91 274.38 369.63 275.26 369.38 276.11 369.17 276.96 368.95 277.8 368.78 278.62 368.71 278.72 368.6 278.86 368.5 279 368.43 279.18 368.28 279.53 368.11 279.96 368 280.38 367.9 280.88 367.79 281.33 367.65 281.86 367.58 282.36 367.44 282.85 367.33 283.31 367.19 283.77 367.05 284.19 366.87 284.55 366.8 284.72 366.7 284.86 366.59 285.01 366.48 285.15 366.27 285.71 366.06 286.28 365.88 286.84 365.67 287.44 365.46 288.01 365.25 288.61 365.04 289.17 364.82 289.74 363.91 291.22 362.95 292.7 362.04 294.18 361.12 295.7 360.17 297.19 359.28 298.67 358.33 300.15 357.41 301.67 356.49 303.15 355.54 304.63 354.62 306.12 353.7 307.6 352.79 309.12 351.83 310.6 350.95 312.08 351.37 310.14 351.73 308.2 352.05 306.22 352.29 304.21 352.5 302.2 352.64 300.19 352.75 298.14 352.79 296.09 352.75 294.71 352.72 293.37 352.64 292.03 352.57 290.65 352.47 289.31 352.33 288.01 352.15 286.67 351.94 285.36 351.73 284.05 351.52 282.75 351.23 281.44 350.95 280.17 350.63 278.9 350.31 277.63 349.96 276.36 349.57 275.12 349.61 275.01 349.75 273.5 349.93 271.98 350.1 270.5 350.25 269.01 350.39 267.53 350.49 266.05 350.63 264.56 350.74 263.12 350.81 261.6 350.92 260.15 350.95 258.67 351.02 257.15 351.06 255.67 351.09 254.19 351.13 252.67 351.13 251.47 351.13 250.27 351.13 249.07 351.13 247.87 351.13 246.7 351.13 245.5 351.13 244.3 351.13 243.1 351.13 242.54 351.13 242.01 351.13 241.48 351.13 240.98 351.13 240.42 351.13 239.89 351.13 239.36 351.13 238.83 350.35 239.36 349.61 239.89 348.83 240.42 348.06 240.95 347.31 241.48 346.54 242.01 345.76 242.5 345.02 243.07 343.25 244.41 341.52 245.75 339.97 246.99 338.52 248.11 337.29 249.07 336.33 249.84 335.81 250.27 334.61 248.93 333.4 247.62 332.13 246.35 330.86 245.08 329.56 243.84 328.22 242.68 326.84 241.51 325.43 240.38 325.25 239.47 324.83 237.31 324.4 235.12 323.98 232.93 323.56 230.75 323.1 228.56 322.67 226.37 322.25 224.18 321.83 221.99 321.4 219.8 320.98 217.65 320.56 215.42 320.13 213.24 319.71 211.08 319.28 208.89 318.82 206.71 318.72 206.67 318.58 206.67 317.63 208.12 316.71 209.56 315.79 211.01 314.84 212.46 313.92 213.91 313 215.35 312.05 216.8 311.17 218.25 310.21 219.73 309.29 221.18 308.38 222.63 307.42 224.07 306.5 225.52 305.59 226.97 304.63 228.45 304.21 229.09 303.33 228.8 302.44 228.52 301.56 228.27 300.64 228.03 299.76 227.78 298.84 227.57 297.93 227.36 297.04 227.15 297.01 227.07 296.69 226.01 296.37 224.96 296.02 223.9 295.7 222.84 295.38 221.78 295.07 220.72 294.75 219.66 294.61 219.56 294.5 219.41 294.4 219.24 294.29 219.06 294.11 218.67 293.97 218.25 293.83 217.82 293.73 217.33 293.62 216.84 293.51 216.34 293.3 215.35 293.06 214.44 292.91 214.05 292.77 213.69 292.7 213.52 292.63 213.41 292.52 213.27 292.42 213.16 292.42 213.09 292.42 212.99 292.38 212.88 292.35 212.67 292.28 212.35 292.21 211.89 292.1 211.29 291.96 210.55 291.75 209.56 291.54 208.33 291.25 206.88 290.97 205.15 290.58 203.07 290.16 200.67 289.67 197.91 289.14 194.77 286.98 192.19 285.11 189.97 283.49 188.03 282.08 186.37 280.88 184.96 279.89 183.76 279.07 182.81 278.4 182.03 277.88 181.39 277.49 180.9 277.13 180.54 276.92 180.3 276.75 180.12 276.64 179.98 276.53 179.91 276.43 179.8 276.39 180.26 276.39 180.69 276.36 181.07 276.36 181.5 276.32 181.92 276.32 182.42 276.29 183.02 276.29 183.69 276.25 184.46 276.21 185.42 276.21 186.55 276.18 187.89 276.14 189.41 276.14 191.21 276.11 193.22 276.07 195.55 275.4 196.82 274.77 198.09 274.13 199.33 273.5 200.6 272.83 201.87 272.19 203.1 271.56 204.38 270.88 205.65 270.25 206.92 269.61 208.19 268.98 209.42 268.31 210.69 267.67 211.97 267 213.2 266.37 214.47 265.73 215.74 265.77 217.33 265.77 218.92 265.8 220.51 265.8 222.1 265.84 223.72 265.87 225.27 265.91 226.9 265.94 227.5 264.85 227.75 263.75 228.03 262.66 228.34 261.6 228.66 260.54 229.02 259.48 229.37 258.42 229.72 257.4 230.11 256.98 229.33 256.2 227.85 255.42 226.37 254.65 224.85 253.87 223.37 253.09 221.88 252.32 220.4 251.54 218.92 251.29 217.58 251.04 216.24 250.73 214.9 250.44 213.55 250.16 212.21 249.88 210.87 249.56 209.53 249.24 208.19 248.96 206.85 248.64 205.5 248.33 204.2 248.04 202.89 247.73 201.59 247.44 200.28 247.16 198.97 246.88 197.67 246.81 197.6 246.74 197.49 246.7 197.35 246.63 197.14 246.53 196.75 246.35 196.25 246.17 197.38 246.03 198.51 245.85 199.64 245.71 200.77 245.54 201.9 245.4 203.03 245.22 204.16 245.04 205.26 244.9 206.39 244.72 207.52 244.58 208.65 244.41 209.78 244.27 210.91 244.09 212.03 243.91 213.16 243.77 214.29 243.49 215.39 243.17 216.52 242.85 217.61 242.5 218.74 242.18 219.84 241.87 220.97 241.51 222.1 241.16 223.23 240.81 224.36 240.49 225.49 240.14 226.65 239.82 227.78 239.5 228.91 239.18 230.04 238.9 231.21 238.62 232.33 238.94 233.25 239.32 234.17 239.68 235.05 240.03 235.94 240.38 236.85 240.77 237.74 241.13 238.65 241.19 238.79 240.45 239.36 239.68 239.92 238.94 240.49 238.23 241.09 237.49 241.65 236.78 242.25 236.08 242.85 235.37 243.49 235.34 243.49 234.52 243.42 233.68 243.38 232.83 243.31 232.02 243.24 231.17 243.21 230.36 243.17 229.51 243.14 228.84 242.71 228.17 242.32 227.5 241.94 226.79 241.55 226.12 241.16 225.45 240.77 224.74 240.38 224.07 240.03 222.87 238.83 221.67 237.63 220.47 236.47 219.27 235.26 218.07 234.13 216.87 233 216.27 232.47 215.67 231.95 215.07 231.42 214.51 230.92 214.75 232.51 215 234.1 215.28 235.65 215.57 237.24 215.85 238.83 216.17 240.38 216.48 241.94 216.8 243.53 217.12 245.08 217.47 246.67 217.82 248.26 218.18 249.81 218.57 251.4 218.92 253.02 219.31 254.61 219.73 256.2 219.73 257.26 219.73 258.28 219.77 259.34 219.77 260.36 219.8 261.42 219.8 262.45 219.84 263.3 218.88 265.17 218 267.04 217.15 268.94 216.38 270.88 215.67 272.86 215 274.87 214.4 276.89 213.84 278.93 213.34 281.02 212.92 283.1 212.56 285.22 212.25 287.37 212.03 289.52 211.86 291.68 211.75 293.9 211.72 296.09 211.72 296.9 211.75 297.68 211.75 298.49 211.79 299.27 211.82 300.04 211.89 300.86 211.93 301.63 212 302.41 212 302.41"/><polygon class="cls-5" points="212 302.41 211.61 301.92 210.8 300.89 209.95 299.87 209.14 298.84 208.33 297.86 207.52 296.83 206.71 295.81 205.86 294.78 205.15 293.41 204.48 292.07 203.78 290.73 203.07 289.35 202.36 287.97 201.66 286.63 200.95 285.25 200.24 283.91 199.93 282.15 199.57 280.38 199.26 278.62 198.9 276.89 198.59 275.16 198.23 273.39 197.91 271.63 197.56 269.86 197.24 268.13 196.89 266.37 196.57 264.6 196.22 262.87 195.9 261.11 195.55 259.38 195.23 257.61 194.91 255.85 194.88 253.8 194.88 251.79 194.84 249.74 194.84 247.69 194.84 245.68 194.81 243.63 194.81 241.58 194.81 239.57 194.81 237.52 194.77 235.51 194.77 233.46 194.77 231.42 194.77 229.4 194.74 227.36 194.74 225.34 194.74 223.3 194.6 222.03 194.49 220.75 194.35 219.48 194.21 218.21 194.07 216.94 193.93 215.67 193.82 214.4 193.68 213.13 193.54 211.82 193.4 210.55 193.29 209.28 193.15 208.01 193.01 206.74 192.87 205.47 192.72 204.2 192.62 202.93 192.48 202.65 192.34 202.36 192.34 201.76 192.34 201.16 192.34 200.56 192.34 199.96 192.58 200.03 192.83 200.14 193.11 200.28 193.4 200.42 193.75 200.63 194.07 200.84 194.46 201.09 194.81 201.34 195.62 201.9 196.5 202.54 197.38 203.25 198.3 203.95 200.21 205.43 202.04 206.92 202.89 207.59 203.7 208.22 204.48 208.79 205.15 209.28 206.6 210.13 208.01 211.01 209.42 211.86 210.84 212.71 212.25 213.59 213.66 214.44 215.11 215.32 216.52 216.17 216.31 215.11 216.13 214.05 215.95 212.99 215.74 211.93 215.53 210.87 215.35 209.81 215.14 208.72 214.97 207.69 214.79 206.6 214.61 205.54 214.47 204.48 214.33 203.42 214.22 202.36 214.12 201.34 214.05 200.28 213.94 199.26 213.98 198.06 213.98 196.89 214.01 195.69 214.01 194.53 214.01 193.32 214.05 192.16 214.05 190.96 214.05 189.79 214.05 188.59 214.01 187.43 213.98 186.26 213.94 185.06 213.94 183.9 213.91 182.73 213.91 181.57 213.87 180.37 213.84 179.03 213.8 177.72 213.69 176.41 213.59 175.07 213.45 173.8 213.31 172.5 213.13 171.19 212.95 169.92 212.78 168.65 212.6 167.38 212.39 166.07 212.18 164.8 211.97 163.49 211.72 162.22 211.51 160.95 211.33 159.68 211.51 159.82 211.72 160.03 212.07 160.39 212.67 161.06 213.59 162.12 214.86 163.67 216.69 165.79 219.06 168.61 220.05 169.99 220.9 171.12 221.64 172.14 222.38 173.2 223.26 174.51 224.39 176.13 225.84 178.25 227.71 181.04 229.02 181.68 230.29 182.35 231.59 183.02 232.9 183.72 234.17 184.39 235.48 185.06 236.78 185.77 238.09 186.41 237.91 184.99 237.7 183.58 237.52 182.17 237.38 180.76 237.21 179.34 237.03 177.9 236.82 176.49 236.68 175.07 236.5 173.66 236.32 172.25 236.15 170.84 235.97 169.43 235.79 168.01 235.62 166.6 235.48 165.15 235.26 163.74 235.62 161.06 235.97 158.69 236.22 156.65 236.47 154.88 236.68 153.33 236.82 152.06 236.99 150.96 237.13 150.04 237.24 149.3 237.31 148.67 237.42 148.14 237.49 147.64 237.56 147.22 237.63 146.87 237.7 146.44 237.81 146.02 238.48 144.71 239.18 143.37 239.89 142.07 240.56 140.76 241.27 139.45 241.97 138.15 242.68 136.84 243.35 135.53 243.28 134.86 243.14 134.19 243 133.52 242.85 132.85 242.5 131.55 242.15 130.2 241.76 128.93 241.37 127.66 241.02 126.39 240.7 125.16 240.81 125.12 240.98 125.08 241.69 125.97 242.4 126.85 243.1 127.7 243.84 128.58 244.55 129.43 245.25 130.31 245.96 131.16 246.7 132.04 247.41 132.92 248.12 133.77 248.82 134.65 249.53 135.53 250.27 136.38 250.97 137.26 251.68 138.15 252.39 138.99 252.56 139.31 252.7 139.63 252.84 140.02 252.99 140.37 253.27 141.22 253.52 142.07 253.76 142.95 253.97 143.8 254.19 144.61 254.4 145.35 254.89 146.41 255.42 147.47 255.95 148.53 256.48 149.59 257.05 150.64 257.68 151.7 258.32 152.8 259.02 153.89 260.96 156.4 262.41 158.31 263.47 159.68 264.18 160.6 264.67 161.16 264.95 161.48 265.1 161.62 265.2 161.69 266.15 159.36 267 157.32 267.71 155.48 268.34 153.96 268.87 152.62 269.33 151.49 269.68 150.54 270 149.76 270.25 149.13 270.43 148.6 270.6 148.17 270.71 147.85 270.81 147.57 270.88 147.36 270.95 147.15 271.03 146.94 271.34 145.49 271.59 144.04 271.87 142.56 272.16 141.11 272.44 139.63 272.72 138.18 273 136.74 273.29 135.29 273.57 133.81 273.85 132.36 274.13 130.91 274.42 129.46 274.7 127.98 274.98 126.53 275.26 125.08 275.55 123.64 275.55 122.54 275.55 121.45 275.58 120.32 275.58 119.26 275.58 118.13 275.58 117.04 275.58 115.98 275.58 114.85 275.58 113.75 275.62 112.69 275.62 111.56 275.62 110.5 275.62 109.41 275.62 108.32 275.62 107.22 275.62 106.13 276.18 103.69 276.64 101.54 277.06 99.67 277.45 98.04 277.77 96.63 278.05 95.4 278.3 94.34 278.51 93.38 278.72 92.57 278.9 91.83 279.04 91.16 279.18 90.52 279.32 89.89 279.46 89.22 279.6 88.51 279.75 87.73 279.82 87.67 279.89 87.56 279.96 87.42 279.99 87.28 280.13 86.92 280.27 86.53 280.52 85.55 280.73 84.45 280.98 83.36 281.16 82.33 281.26 81.88 281.37 81.45 281.44 81.13 281.55 80.89 281.86 82.3 282.25 83.71 282.57 85.12 282.96 86.53 283.28 87.98 283.66 89.39 283.98 90.81 284.37 92.22 284.69 93.63 285.08 95.08 285.39 96.49 285.78 97.9 286.13 99.31 286.49 100.76 286.84 102.17 287.19 103.59 287.9 105.25 288.57 106.9 289.28 108.53 289.98 110.19 290.65 111.81 291.36 113.47 292 115.09 292.67 116.75 293.34 118.41 293.97 120.11 294.57 121.77 295.17 123.5 295.77 125.19 296.34 126.96 296.83 128.72 297.36 130.49 297.43 130.63 297.5 130.84 297.61 131.12 297.68 131.44 297.79 131.79 297.89 132.07 298 132.29 298.07 132.43 298.7 134.69 299.2 136.45 299.59 137.72 299.87 138.64 300.08 139.31 300.22 139.81 300.33 140.23 300.43 140.58 300.43 142.1 300.43 143.62 300.43 145.1 300.43 146.62 300.43 148.1 300.43 149.59 300.43 151.1 300.43 152.59 300.43 154.1 300.43 155.62 300.43 157.1 300.43 158.62 300.43 160.1 300.43 161.62 300.43 163.14 300.43 164.62 300.61 164.55 300.79 164.45 302.06 163.81 303.29 163.21 304.56 162.58 305.8 161.98 307.03 161.34 308.31 160.74 309.58 160.14 310.81 159.5 311.48 158.16 312.15 156.82 312.82 155.48 313.5 154.14 314.17 152.76 314.84 151.42 315.51 150.08 316.21 148.74 316.53 147.15 316.88 145.56 317.2 144.01 317.56 142.42 317.87 140.83 318.23 139.24 318.58 137.69 318.9 136.1 318.93 135.39 318.97 134.65 319 133.95 319.04 133.21 319.07 132.5 319.11 131.76 319.14 131.02 319.18 130.28 320.03 132.11 320.87 133.91 321.69 135.71 322.53 137.51 323.34 139.31 324.19 141.11 325.04 142.95 325.89 144.75 326.73 146.55 327.55 148.35 328.39 150.15 329.2 151.95 330.05 153.75 330.9 155.59 331.75 157.39 332.56 159.19 332.56 160.25 332.56 161.31 332.56 162.4 332.52 163.46 332.52 164.52 332.52 165.58 332.52 166.67 332.52 167.69 332.52 168.79 332.49 169.85 332.49 170.91 332.49 171.97 332.49 173.06 332.49 174.12 332.49 175.18 332.49 176.24 332.2 177.83 331.96 179.42 331.68 180.97 331.39 182.56 331.15 184.15 330.86 185.74 330.62 187.32 330.33 188.88 333.37 187.5 335.63 186.44 337.29 185.66 338.42 185.13 339.16 184.78 339.62 184.57 339.94 184.39 340.18 184.22 340.85 183.55 341.49 182.84 342.16 182.17 342.83 181.5 343.5 180.83 344.14 180.12 344.77 179.45 345.44 178.78 345.65 178.36 345.87 177.97 346.08 177.44 346.36 176.77 346.71 175.78 347.24 174.4 347.95 172.53 348.83 170.06 349.22 171.26 349.61 172.5 349.96 173.73 350.39 175 350.81 176.27 351.2 177.54 351.59 178.85 351.97 180.16 352.36 181.46 352.75 182.77 353.07 184.04 353.42 185.38 353.7 186.69 353.99 187.96 354.23 189.23 354.45 190.5 354.16 191.53 353.85 192.51 353.53 193.57 353.21 194.56 352.93 195.58 352.61 196.61 352.29 197.63 352.01 198.66 351.69 199.68 351.37 200.7 351.06 201.73 350.77 202.75 350.46 203.78 350.14 204.8 349.86 205.82 349.54 206.85 349.01 209.28 348.55 211.44 348.16 213.31 347.81 214.9 347.53 216.24 347.28 217.4 347.1 218.32 346.93 219.06 346.82 219.66 346.71 220.08 346.68 220.44 346.64 220.68 346.61 220.83 346.61 220.97 346.61 221.04 346.61 221.07 349.54 219.73 351.8 218.67 353.42 217.93 354.55 217.37 355.36 216.98 355.93 216.66 356.39 216.41 356.81 216.13 357.87 215.18 358.89 214.19 359.92 213.24 360.94 212.28 361.96 211.29 362.99 210.34 364.05 209.39 365.07 208.43 365.11 207.76 365.11 207.09 365.14 206.46 365.18 205.82 365.18 205.15 365.21 204.52 365.25 203.84 365.25 203.25 366.63 208.89 367.82 213.84 368.85 218.14 369.77 221.81 370.51 224.92 371.14 227.53 371.67 229.69 372.1 231.38 372.42 232.72 372.7 233.75 372.87 234.49 373.01 234.98 373.12 235.34 373.19 235.55 373.23 235.62 373.3 235.69 373.3 235.76 373.3 235.87 373.26 237.7 373.26 239.57 373.26 241.41 373.23 243.24 373.23 245.08 373.23 246.91 373.23 248.78 373.19 250.62 373.19 252.49 373.19 254.33 373.16 256.16 373.16 258 373.12 259.87 373.12 261.71 373.12 263.58 373.08 265.41 372.59 266.89 372.03 268.45 371.39 270.07 370.75 271.8 370.47 272.65 370.19 273.53 369.91 274.38 369.63 275.26 369.38 276.11 369.17 276.96 368.95 277.8 368.78 278.62 368.71 278.72 368.6 278.86 368.5 279 368.43 279.18 368.28 279.53 368.11 279.96 368 280.38 367.9 280.88 367.79 281.33 367.65 281.86 367.58 282.36 367.44 282.85 367.33 283.31 367.19 283.77 367.05 284.19 366.87 284.55 366.8 284.72 366.7 284.86 366.59 285.01 366.48 285.15 366.27 285.71 366.06 286.28 365.88 286.84 365.67 287.44 365.46 288.01 365.25 288.61 365.04 289.17 364.82 289.74 363.91 291.22 362.95 292.7 362.04 294.18 361.12 295.7 360.17 297.19 359.28 298.67 358.33 300.15 357.41 301.67 356.49 303.15 355.54 304.63 354.62 306.12 353.7 307.6 352.79 309.12 351.83 310.6 350.95 312.08 351.37 310.14 351.73 308.2 352.05 306.22 352.29 304.21 352.5 302.2 352.64 300.19 352.75 298.14 352.79 296.09 352.75 294.71 352.72 293.37 352.64 292.03 352.57 290.65 352.47 289.31 352.33 288.01 352.15 286.67 351.94 285.36 351.73 284.05 351.52 282.75 351.23 281.44 350.95 280.17 350.63 278.9 350.31 277.63 349.96 276.36 349.57 275.12 349.61 275.01 349.75 273.5 349.93 271.98 350.1 270.5 350.25 269.01 350.39 267.53 350.49 266.05 350.63 264.56 350.74 263.12 350.81 261.6 350.92 260.15 350.95 258.67 351.02 257.15 351.06 255.67 351.09 254.19 351.13 252.67 351.13 251.47 351.13 250.27 351.13 249.07 351.13 247.87 351.13 246.7 351.13 245.5 351.13 244.3 351.13 243.1 351.13 242.54 351.13 242.01 351.13 241.48 351.13 240.98 351.13 240.42 351.13 239.89 351.13 239.36 351.13 238.83 350.35 239.36 349.61 239.89 348.83 240.42 348.06 240.95 347.31 241.48 346.54 242.01 345.76 242.5 345.02 243.07 343.25 244.41 341.52 245.75 339.97 246.99 338.52 248.11 337.29 249.07 336.33 249.84 335.81 250.27 334.61 248.93 333.4 247.62 332.13 246.35 330.86 245.08 329.56 243.84 328.22 242.68 326.84 241.51 325.43 240.38 325.25 239.47 324.83 237.31 324.4 235.12 323.98 232.93 323.56 230.75 323.1 228.56 322.67 226.37 322.25 224.18 321.83 221.99 321.4 219.8 320.98 217.65 320.56 215.42 320.13 213.24 319.71 211.08 319.28 208.89 318.82 206.71 318.72 206.67 318.58 206.67 317.63 208.12 316.71 209.56 315.79 211.01 314.84 212.46 313.92 213.91 313 215.35 312.05 216.8 311.17 218.25 310.21 219.73 309.29 221.18 308.38 222.63 307.42 224.07 306.5 225.52 305.59 226.97 304.63 228.45 304.21 229.09 303.33 228.8 302.44 228.52 301.56 228.27 300.64 228.03 299.76 227.78 298.84 227.57 297.93 227.36 297.04 227.15 297.01 227.07 296.69 226.01 296.37 224.96 296.02 223.9 295.7 222.84 295.38 221.78 295.07 220.72 294.75 219.66 294.61 219.56 294.5 219.41 294.4 219.24 294.29 219.06 294.11 218.67 293.97 218.25 293.83 217.82 293.73 217.33 293.62 216.84 293.51 216.34 293.3 215.35 293.06 214.44 292.91 214.05 292.77 213.69 292.7 213.52 292.63 213.41 292.52 213.27 292.42 213.16 292.42 213.09 292.42 212.99 292.38 212.88 292.35 212.67 292.28 212.35 292.21 211.89 292.1 211.29 291.96 210.55 291.75 209.56 291.54 208.33 291.25 206.88 290.97 205.15 290.58 203.07 290.16 200.67 289.67 197.91 289.14 194.77 286.98 192.19 285.11 189.97 283.49 188.03 282.08 186.37 280.88 184.96 279.89 183.76 279.07 182.81 278.4 182.03 277.88 181.39 277.49 180.9 277.13 180.54 276.92 180.3 276.75 180.12 276.64 179.98 276.53 179.91 276.43 179.8 276.39 180.26 276.39 180.69 276.36 181.07 276.36 181.5 276.32 181.92 276.32 182.42 276.29 183.02 276.29 183.69 276.25 184.46 276.21 185.42 276.21 186.55 276.18 187.89 276.14 189.41 276.14 191.21 276.11 193.22 276.07 195.55 275.4 196.82 274.77 198.09 274.13 199.33 273.5 200.6 272.83 201.87 272.19 203.1 271.56 204.38 270.88 205.65 270.25 206.92 269.61 208.19 268.98 209.42 268.31 210.69 267.67 211.97 267 213.2 266.37 214.47 265.73 215.74 265.77 217.33 265.77 218.92 265.8 220.51 265.8 222.1 265.84 223.72 265.87 225.27 265.91 226.9 265.94 227.5 264.85 227.75 263.75 228.03 262.66 228.34 261.6 228.66 260.54 229.02 259.48 229.37 258.42 229.72 257.4 230.11 256.98 229.33 256.2 227.85 255.42 226.37 254.65 224.85 253.87 223.37 253.09 221.88 252.32 220.4 251.54 218.92 251.29 217.58 251.04 216.24 250.73 214.9 250.44 213.55 250.16 212.21 249.88 210.87 249.56 209.53 249.24 208.19 248.96 206.85 248.64 205.5 248.33 204.2 248.04 202.89 247.73 201.59 247.44 200.28 247.16 198.97 246.88 197.67 246.81 197.6 246.74 197.49 246.7 197.35 246.63 197.14 246.53 196.75 246.35 196.25 246.17 197.38 246.03 198.51 245.85 199.64 245.71 200.77 245.54 201.9 245.4 203.03 245.22 204.16 245.04 205.26 244.9 206.39 244.72 207.52 244.58 208.65 244.41 209.78 244.27 210.91 244.09 212.03 243.91 213.16 243.77 214.29 243.49 215.39 243.17 216.52 242.85 217.61 242.5 218.74 242.18 219.84 241.87 220.97 241.51 222.1 241.16 223.23 240.81 224.36 240.49 225.49 240.14 226.65 239.82 227.78 239.5 228.91 239.18 230.04 238.9 231.21 238.62 232.33 238.94 233.25 239.32 234.17 239.68 235.05 240.03 235.94 240.38 236.85 240.77 237.74 241.13 238.65 241.19 238.79 240.45 239.36 239.68 239.92 238.94 240.49 238.23 241.09 237.49 241.65 236.78 242.25 236.08 242.85 235.37 243.49 235.34 243.49 234.52 243.42 233.68 243.38 232.83 243.31 232.02 243.24 231.17 243.21 230.36 243.17 229.51 243.14 228.84 242.71 228.17 242.32 227.5 241.94 226.79 241.55 226.12 241.16 225.45 240.77 224.74 240.38 224.07 240.03 222.87 238.83 221.67 237.63 220.47 236.47 219.27 235.26 218.07 234.13 216.87 233 216.27 232.47 215.67 231.95 215.07 231.42 214.51 230.92 214.75 232.51 215 234.1 215.28 235.65 215.57 237.24 215.85 238.83 216.17 240.38 216.48 241.94 216.8 243.53 217.12 245.08 217.47 246.67 217.82 248.26 218.18 249.81 218.57 251.4 218.92 253.02 219.31 254.61 219.73 256.2 219.73 257.26 219.73 258.28 219.77 259.34 219.77 260.36 219.8 261.42 219.8 262.45 219.84 263.3 218.88 265.17 218 267.04 217.15 268.94 216.38 270.88 215.67 272.86 215 274.87 214.4 276.89 213.84 278.93 213.34 281.02 212.92 283.1 212.56 285.22 212.25 287.37 212.03 289.52 211.86 291.68 211.75 293.9 211.72 296.09 211.72 296.9 211.75 297.68 211.75 298.49 211.79 299.27 211.82 300.04 211.89 300.86 211.93 301.63 212 302.41 212 302.41"/><polygon class="cls-6" points="198.55 377.11 358.72 377.11 358.72 401.75 198.55 401.75 198.55 377.11 198.55 377.11"/><path class="cls-6" d="M293.4,362.86l4,.1,3.88.29,3.81.49,3.78.67,3.71.88,3.63,1,3.57,1.2,3.46,1.37,3.39,1.56,3.32,1.69,3.21,1.84,3.11,2,3,2.12,2.89,2.29,2.79,2.4,2.68,2.55,2.55,2.68,2.4,2.79,2.29,2.89,2.12,3,2,3.11L360.8,403l1.69,3.32,1.55,3.39,1.38,3.46,1.2,3.56,1,3.64.88,3.71.67,3.77.49,3.82.29,3.88.1,3.95-.1,3.92-.29,3.89-.49,3.84-.67,3.75-.88,3.7-1,3.64-1.2,3.56L364,469.29l-1.55,3.43L360.8,476,359,479.21l-2,3.11-2.12,3-2.29,2.93-2.4,2.76-2.55,2.68-2.68,2.54-2.79,2.4-2.89,2.3-3,2.11-3.11,2-3.21,1.83-3.32,1.7-3.39,1.55-3.46,1.38-3.57,1.2-3.63,1.06-3.71.84-3.78.67-3.81.5-3.88.28-4,.11-3.91-.11-3.89-.28-3.85-.5-3.74-.67-3.7-.84-3.64-1.06-3.57-1.2-3.49-1.38-3.39-1.55-3.28-1.7-3.22-1.83-3.1-2-3-2.11-2.89-2.3-2.79-2.4-2.65-2.54L236.71,491l-2.4-2.76-2.3-2.93-2.15-3-2-3.11L226,476l-1.69-3.28-1.52-3.43-1.38-3.46-1.2-3.56-1.06-3.64-.84-3.7-.68-3.75-.49-3.84-.28-3.89-.11-3.92.11-3.95.28-3.88.49-3.82.68-3.77.84-3.71,1.06-3.64,1.2-3.56,1.38-3.46,1.52-3.39L226,403l1.87-3.21,2-3.11,2.15-3,2.3-2.89,2.4-2.79,2.54-2.68,2.65-2.55,2.79-2.4,2.89-2.29,3-2.12,3.1-2,3.22-1.84,3.28-1.69,3.39-1.56,3.49-1.37,3.57-1.2,3.64-1,3.7-.88,3.74-.67,3.85-.49,3.89-.29,3.91-.1Zm0,22.13,2.83.07,2.75.21,2.72.36,2.68.46,2.65.63,2.58.74,2.54.85,2.47,1,2.4,1.09,2.37,1.2,2.26,1.31,2.22,1.41,2.15,1.52,2.05,1.62,2,1.73L332,401l1.8,1.91,1.73,2,1.59,2.05,1.56,2.15,1.41,2.22,1.3,2.26,1.21,2.37,1.09,2.4,1,2.47.85,2.54.74,2.58.63,2.65.46,2.68.35,2.72.22,2.75.07,2.82-.07,2.79-.22,2.76-.35,2.72-.46,2.68-.63,2.65-.74,2.57-.85,2.54-1,2.48-1.09,2.4-1.21,2.36-1.3,2.3L338.63,470l-1.56,2.15-1.59,2.05-1.73,2-1.8,1.91-1.9,1.8-2,1.73L326,483.2l-2.15,1.52-2.22,1.41-2.26,1.31L317,488.68l-2.4,1.09-2.47,1-2.54.89-2.58.7-2.65.64-2.68.46-2.72.35-2.75.21-2.83.07-2.78-.07-2.76-.21-2.72-.35-2.68-.46-2.65-.64-2.57-.7-2.55-.89-2.47-1-2.4-1.09-2.36-1.24-2.3-1.31L263,484.72l-2.15-1.52-2.05-1.62-2-1.73-1.91-1.8-1.8-1.91-1.73-2-1.63-2.05L248.22,470l-1.42-2.19-1.3-2.3-1.24-2.36-1.09-2.4-.95-2.48-.89-2.54-.74-2.57-.6-2.65-.49-2.68-.32-2.72-.21-2.76-.07-2.79.07-2.82.21-2.75.32-2.72.49-2.68.6-2.65.74-2.58.89-2.54.95-2.47,1.09-2.4,1.24-2.37,1.3-2.26,1.42-2.22,1.51-2.15,1.63-2.05,1.73-2,1.8-1.91,1.91-1.8,2-1.73,2.05-1.62,2.15-1.52,2.19-1.41,2.3-1.31,2.36-1.2,2.4-1.09,2.47-1,2.55-.85,2.57-.74,2.65-.63,2.68-.46,2.72-.36,2.76-.21,2.78-.07Z" transform="translate(-15 -138.89)"/></svg>