<svg id="Ebene_1" data-name="Ebene 1" xmlns="http://www.w3.org/2000/svg" viewBox="0 0 564.82 564.79"><defs><style>.cls-1{fill:#fff;}.cls-1,.cls-2,.cls-4{fill-rule:evenodd;}.cls-2{fill:#da251d;}.cls-3,.cls-5{fill:none;stroke-linecap:square;stroke-miterlimit:10;stroke-width:0.21px;}.cls-3{stroke:#242729;}.cls-5{stroke:#000;}</style></defs><polygon class="cls-1" points="0.01 282.43 282.25 0.18 564.53 282.43 282.25 564.67 0.01 282.43 0.01 282.43"/><path class="cls-2" d="M20.69,421.32l276.56-276.6,276.6,276.6L297.25,697.88,20.69,421.32Zm44.84,0L297.25,189.59,529,421.32,297.25,653,65.53,421.32Z" transform="translate(-15 -138.89)"/><polyline class="cls-3" points="0.15 282.22 282.25 0.15 564.67 282.22 282.25 564.64 0.15 282.22"/><polygon class="cls-4" points="282.15 329.84 283.81 329.88 285.43 329.98 287.05 330.19 288.61 330.48 290.16 330.83 291.68 331.29 293.2 331.78 294.64 332.35 296.06 332.98 297.43 333.69 298.81 334.46 300.08 335.31 301.35 336.19 302.55 337.15 303.72 338.17 304.85 339.23 305.9 340.36 306.93 341.49 307.88 342.73 308.76 343.96 309.61 345.27 310.35 346.61 311.06 348.02 311.73 349.43 312.29 350.88 312.79 352.36 313.25 353.88 313.6 355.43 313.88 357.02 314.06 358.65 314.2 360.27 314.24 361.93 314.2 363.55 314.06 365.21 313.88 366.8 313.6 368.39 313.25 369.94 312.79 371.46 312.29 372.94 311.73 374.39 311.06 375.84 310.35 377.22 309.61 378.56 308.76 379.86 307.88 381.1 306.93 382.33 305.9 383.5 304.85 384.59 303.72 385.65 302.55 386.68 301.35 387.63 300.08 388.51 298.81 389.36 297.43 390.14 296.06 390.84 294.64 391.48 293.2 392.04 291.68 392.57 290.16 393 288.61 393.35 287.05 393.63 285.43 393.84 283.81 393.95 282.15 393.98 280.49 393.95 278.86 393.84 277.27 393.63 275.69 393.35 274.13 393 272.61 392.57 271.13 392.04 269.65 391.48 268.24 390.84 266.86 390.14 265.52 389.36 264.21 388.51 262.94 387.63 261.74 386.68 260.58 385.65 259.48 384.59 258.39 383.5 257.4 382.33 256.45 381.1 255.56 379.86 254.72 378.56 253.94 377.22 253.23 375.84 252.6 374.39 252.03 372.94 251.5 371.46 251.08 369.94 250.73 368.39 250.44 366.8 250.23 365.21 250.13 363.55 250.06 361.93 250.13 360.27 250.23 358.65 250.44 357.02 250.73 355.43 251.08 353.88 251.5 352.36 252.03 350.88 252.6 349.43 253.23 348.02 253.94 346.61 254.72 345.27 255.56 343.96 256.45 342.73 257.4 341.49 258.39 340.36 259.48 339.23 260.58 338.17 261.74 337.15 262.94 336.19 264.21 335.31 265.52 334.46 266.86 333.69 268.24 332.98 269.65 332.35 271.13 331.78 272.61 331.29 274.13 330.83 275.69 330.48 277.27 330.19 278.86 329.98 280.49 329.88 282.15 329.84 282.15 329.84"/><polygon class="cls-5" points="282.15 329.84 283.81 329.88 285.43 329.98 287.05 330.19 288.61 330.48 290.16 330.83 291.68 331.29 293.2 331.78 294.64 332.35 296.06 332.98 297.43 333.69 298.81 334.46 300.08 335.31 301.35 336.19 302.55 337.15 303.72 338.17 304.85 339.23 305.9 340.36 306.93 341.49 307.88 342.73 308.76 343.96 309.61 345.27 310.35 346.61 311.06 348.02 311.73 349.43 312.29 350.88 312.79 352.36 313.25 353.88 313.6 355.43 313.88 357.02 314.06 358.65 314.2 360.27 314.24 361.93 314.2 363.55 314.06 365.21 313.88 366.8 313.6 368.39 313.25 369.94 312.79 371.46 312.29 372.94 311.73 374.39 311.06 375.84 310.35 377.22 309.61 378.56 308.76 379.86 307.88 381.1 306.93 382.33 305.9 383.5 304.85 384.59 303.72 385.65 302.55 386.68 301.35 387.63 300.08 388.51 298.81 389.36 297.43 390.14 296.06 390.84 294.64 391.48 293.2 392.04 291.68 392.57 290.16 393 288.61 393.35 287.05 393.63 285.43 393.84 283.81 393.95 282.15 393.98 280.49 393.95 278.86 393.84 277.27 393.63 275.69 393.35 274.13 393 272.61 392.57 271.13 392.04 269.65 391.48 268.24 390.84 266.86 390.14 265.52 389.36 264.21 388.51 262.94 387.63 261.74 386.68 260.58 385.65 259.48 384.59 258.39 383.5 257.4 382.33 256.45 381.1 255.56 379.86 254.72 378.56 253.94 377.22 253.23 375.84 252.6 374.39 252.03 372.94 251.5 371.46 251.08 369.94 250.73 368.39 250.44 366.8 250.23 365.21 250.13 363.55 250.06 361.93 250.13 360.27 250.23 358.65 250.44 357.02 250.73 355.43 251.08 353.88 251.5 352.36 252.03 350.88 252.6 349.43 253.23 348.02 253.94 346.61 254.72 345.27 255.56 343.96 256.45 342.73 257.4 341.49 258.39 340.36 259.48 339.23 260.58 338.17 261.74 337.15 262.94 336.19 264.21 335.31 265.52 334.46 266.86 333.69 268.24 332.98 269.65 332.35 271.13 331.78 272.61 331.29 274.13 330.83 275.69 330.48 277.27 330.19 278.86 329.98 280.49 329.88 282.15 329.84 282.15 329.84"/><polygon class="cls-4" points="242.57 154.7 242.4 153.01 242.43 151.39 242.61 149.83 242.96 148.31 243.42 146.87 244.06 145.46 244.83 144.11 245.71 142.84 246.7 141.61 247.83 140.44 249.03 139.31 250.37 138.25 251.75 137.23 253.23 136.28 254.79 135.39 256.41 134.55 258.07 133.73 259.8 132.99 261.56 132.32 263.33 131.69 265.17 131.09 267 130.56 268.84 130.1 270.67 129.68 272.51 129.29 274.34 128.97 276.14 128.72 277.91 128.47 279.64 128.33 281.33 128.19 282.96 128.12 284.55 128.12 286.17 128.16 287.87 128.23 289.56 128.37 291.32 128.54 293.13 128.76 294.93 129.04 296.73 129.36 298.56 129.75 300.36 130.17 302.16 130.66 303.96 131.19 305.73 131.76 307.49 132.39 309.19 133.1 310.85 133.84 312.44 134.62 313.99 135.46 315.47 136.38 316.88 137.34 318.23 138.32 319.46 139.38 320.59 140.51 321.65 141.68 322.6 142.91 323.42 144.18 324.12 145.53 324.69 146.9 325.11 148.35 325.39 149.87 325.53 151.42 325.53 153.04 325.32 154.7 324.4 160.42 323.34 166.67 322.18 173.41 320.91 180.62 319.53 188.35 318.01 196.54 316.43 205.19 314.73 214.29 312.93 223.86 311.02 233.89 309.05 244.34 306.96 255.21 304.77 266.51 302.52 278.23 300.19 290.34 297.75 302.83 297.47 303.79 297.08 304.67 296.55 305.48 295.88 306.26 295.1 306.96 294.22 307.6 293.23 308.16 292.17 308.69 291.01 309.15 289.81 309.54 288.54 309.89 287.23 310.18 285.89 310.39 284.51 310.53 283.13 310.63 281.72 310.67 280.31 310.63 278.93 310.56 277.56 310.39 276.21 310.18 274.91 309.89 273.67 309.58 272.47 309.19 271.34 308.73 270.28 308.2 269.33 307.63 268.48 306.96 267.71 306.26 267.07 305.52 266.58 304.67 266.19 303.79 265.98 302.83 264.42 293.23 262.8 282.96 261.11 272.23 259.34 261.11 257.54 249.84 255.74 238.51 253.97 227.25 252.21 216.27 250.51 205.68 248.93 195.62 247.44 186.23 246.1 177.69 244.94 170.1 243.91 163.64 243.14 158.48 242.57 154.7 242.57 154.7"/><polygon class="cls-5" points="242.57 154.7 242.4 153.01 242.43 151.39 242.61 149.83 242.96 148.31 243.42 146.87 244.06 145.46 244.83 144.11 245.71 142.84 246.7 141.61 247.83 140.44 249.03 139.31 250.37 138.25 251.75 137.23 253.23 136.28 254.79 135.39 256.41 134.55 258.07 133.73 259.8 132.99 261.56 132.32 263.33 131.69 265.17 131.09 267 130.56 268.84 130.1 270.67 129.68 272.51 129.29 274.34 128.97 276.14 128.72 277.91 128.47 279.64 128.33 281.33 128.19 282.96 128.12 284.55 128.12 286.17 128.16 287.87 128.23 289.56 128.37 291.32 128.54 293.13 128.76 294.93 129.04 296.73 129.36 298.56 129.75 300.36 130.17 302.16 130.66 303.96 131.19 305.73 131.76 307.49 132.39 309.19 133.1 310.85 133.84 312.44 134.62 313.99 135.46 315.47 136.38 316.88 137.34 318.23 138.32 319.46 139.38 320.59 140.51 321.65 141.68 322.6 142.91 323.42 144.18 324.12 145.53 324.69 146.9 325.11 148.35 325.39 149.87 325.53 151.42 325.53 153.04 325.32 154.7 324.4 160.42 323.34 166.67 322.18 173.41 320.91 180.62 319.53 188.35 318.01 196.54 316.43 205.19 314.73 214.29 312.93 223.86 311.02 233.89 309.05 244.34 306.96 255.21 304.77 266.51 302.52 278.23 300.19 290.34 297.75 302.83 297.47 303.79 297.08 304.67 296.55 305.48 295.88 306.26 295.1 306.96 294.22 307.6 293.23 308.16 292.17 308.69 291.01 309.15 289.81 309.54 288.54 309.89 287.23 310.18 285.89 310.39 284.51 310.53 283.13 310.63 281.72 310.67 280.31 310.63 278.93 310.56 277.56 310.39 276.21 310.18 274.91 309.89 273.67 309.58 272.47 309.19 271.34 308.73 270.28 308.2 269.33 307.63 268.48 306.96 267.71 306.26 267.07 305.52 266.58 304.67 266.19 303.79 265.98 302.83 264.42 293.23 262.8 282.96 261.11 272.23 259.34 261.11 257.54 249.84 255.74 238.51 253.97 227.25 252.21 216.27 250.51 205.68 248.93 195.62 247.44 186.23 246.1 177.69 244.94 170.1 243.91 163.64 243.14 158.48 242.57 154.7 242.57 154.7"/></svg>