<svg id="Ebene_1" data-name="Ebene 1" xmlns="http://www.w3.org/2000/svg" viewBox="0 0 564.82 564.79"><defs><style>.cls-1{fill:#fff;}.cls-1,.cls-2,.cls-4{fill-rule:evenodd;}.cls-2{fill:#da251d;}.cls-3,.cls-5{fill:none;stroke-linecap:square;stroke-miterlimit:10;stroke-width:0.21px;}.cls-3{stroke:#242729;}.cls-5{stroke:#000;}</style></defs><polygon class="cls-1" points="0.01 282.43 282.25 0.18 564.53 282.43 282.25 564.67 0.01 282.43 0.01 282.43"/><path class="cls-2" d="M20.69,421.32l276.56-276.6,276.6,276.6L297.25,697.88,20.69,421.32Zm44.84,0L297.25,189.59,529,421.32,297.25,653,65.53,421.32Z" transform="translate(-15 -138.89)"/><polyline class="cls-3" points="0.15 282.22 282.25 0.15 564.67 282.22 282.25 564.64 0.15 282.22"/><path class="cls-4" d="M191.42,511v-.43l0-.28,0-.21,0-.14,0-.14,0-.22v-.28l0-.42,3-1.1,2.93-1.09,2.93-1.06,2.89-1.06,1.45-.49,1.45-.5,1.48-.49,1.45-.46,1.48-.42,1.48-.43,1.52-.35,1.55-.35,1.7-.36.85-.17.88-.14.85-.15.88-.14.85-.14.88-.1.88-.11.85-.07.88-.07.85-.07.88,0h.85l.88,0H229l.88.07.85.11.88.1.85.14.84.18.85.21,44.48-18.71-6.42-3.14.53-3.53,4.37-.43,1.77-.17,4.41-.71,2.19-.53,2.51-.81,1.16-.53,1.13-.49,1.17-.53,1.16-.5,1.17-.53,1.16-.49,1.13-.49,1.17-.68,1.09-.63,1.06-.64,1-.67,1-.63,1-.64.95-.67,1-.67.92-.67,1.2-.95,1.16-.92,1.13-1,1.09-1,1-.88,2.54-3.14,2-2.93,1.8-2.54,1.77-2.51,1.8-2.51,1.76-2.47.92-1.23.92-1.24.92-1.2.91-1.2,1-1.2.92-1.2.95-1.2.95-1.2.95-1.17,1-1.16,1-1.17,1-1.16,1-1.17,1-1.16,1.06-1.13,1.06-1.13L339,422l1.1-1.13,1.13-1.09,1.13-1.17,4.55-3.85.74-.56.78-.53.74-.53.74-.53.74-.57.78-.53.74-.53.74-.52,1.1-.64,1.09-.64,1.1-.63,1.06-.57,1.06-.56,1.09-.57,1-.49,1.06-.49,1.06-.5,1.06-.46,1.06-.42,1.06-.42,1.06-.39,1.06-.36,1.06-.31,1.06-.32,1.09-.28,1.06-.25,1.09-.25,1.1-.17,1.13-.18,1.09-.18,1.13-.1,1.17-.07,1.13-.07,1.2-.08h1.16l1.2,0,1.24,0,1.23.1,1.27.11,1.27.14-.81,1.66-.84,1.66-.85,1.66-.88,1.66-.85,1.62-.85,1.66-.85,1.66-.77,1.69,3-.81,3-.85,2.93-.88,2.93-.92,2.93-.88,2.93-.92,2.93-.85,3-.84-.1,1.34-.11,1.31-.14,1.3-.18,1.31-.17,1.27-.25,1.27-.25,1.27-.28,1.24-.32,1.23-.35,1.24-.39,1.2-.39,1.2-.42,1.2-.46,1.16-.46,1.17-.53,1.16-.53,1.13-.53,1.17-.6,1.09-.6,1.13-.6,1.1-.67,1.09-.67,1.09-.67,1.06-.74,1.06-.74,1.06-.74,1-.78,1-.81,1-.81,1-.85,1-.88,1-1.27,1.35-1.31,1.34-1.38,1.34L384,450l-1.42,1.27-1.44,1.27-1.49,1.24L378.17,455l-1.52,1.2-1.52,1.13L395,472.4l-2.51,1.2-2.5,1.17-2.47,1.2-2.51,1.2-2.51,1.2-2.5,1.2-2.47,1.2-2.51,1.16.1.07L403,484.69,402,486l-1,1.37-1,1.35-1,1.37-1,1.34-1,1.38-1,1.34-1,1.34v.07h.07l15.32.22-.07,15.39-219-.21Zm121.4-18.47-.78-.35-1.34-.63-1.8-.82-2.19-1-2.5-1.09-2.72-1.24-2.86-1.27-2.9-1.3-2.89-1.27-2.79-1.24-2.54-1.16-2.3-1-1.94-.88-1.48-.64-1-.45-.36-.18,1.06-.18,1.06-.21,1.06-.21,1.06-.25,1.06-.25,1-.31,1-.32,1.06-.32,1-.39,1-.35,1-.42,1-.43,1-.42,1-.46,1-.49,1-.46,1-.53,1-.53.95-.53.95-.57,1-.56.91-.57.92-.6.92-.6.92-.63,1.09-.81,1.13-.78,1.06-.85,1.09-.81.85-.71,1.45-1.37.71-.81.67-.82.67-.81.67-.81.63-.81.67-.85.64-.81.67-.85L318.5,454l1.13-1.51,1.1-1.52,1.09-1.52,1.1-1.55,1.06-1.56,1.09-1.52,1.06-1.55,1.06-1.52,1.09-1.55,1.06-1.52.88-1.06.85-1.06.88-1.06.85-1,.88-1,.85-1,.88-1,.85-1,.88-1,.89-1,.88-1,.88-.92.92-.91.92-.92.92-.92.91-.88,1-.88.95-.89.95-.84,1-.85,1-.81,1-.82,1-.81,1.06-.81,1-.78,1.1-.77,1.09-.74,1.1-.75,1.13-.74,1.16-.7,2.37-1.42.81-.38.78-.43.81-.39.77-.38.82-.39.81-.36.81-.35.85-.32L368,407l1.2-.39,1.24-.35,1.24-.32,1.27-.28,1.23-.25,1.27-.21,1.31-.14,1.09-.07,1.06-.07,1,0,.92,0,.81,0h.67l.57,0-9.29,16.59,1.73-.46,1.77-.49,1.73-.53,1.73-.5,1.73-.53,1.73-.53,1.73-.53,1.73-.56,1.73-.53,1.72-.57,1.73-.53,1.73-.56,1.73-.57,1.73-.53,1.7-.56,1.73-.53,0,.88,0,.89-.11.91-.14.89-.14.91-.21.89-.21.91-.25.89-.28.91-.29.89-.31.88-.36.92-.35.88-.39.88-.42.89-.43.88-.91,1.73-1,1.69-1,1.66-1.06,1.63-1.13,1.55-1.13,1.52L390,438.37l-1.17,1.38-.7.81-.75.78-.7.77-.74.78-.74.74-.71.74-.78.74-.74.71-.74.7-.74.71-.78.67-.77.67-.78.67-.78.67-.81.64-.78.67-.81.64-.81.63-.85.6-.81.64-.85.6-.84.6-.89.6-.84.63-.89.57-.88.6-.92.6-.92.56-.91.6-.74.39-.71.39-.74.39-.74.39-.71.38-.74.36-.71.39-.74.38-.74.36-.71.38-.7.36-.74.35-.71.35-.74.36-.71.35-.74.35-.81.29-.88.28-.85.28-.85.28-.81.29-.85.28L348,467l-.85.28-.85.28-.84.29-.85.28-.85.28-.85.28-.84.29-.85.28-.85.28-.1.07-.29.11-.42.14-.53.21-1.34.42-1.48.5-1.52.49-1.34.43-.53.17-.43.14-.28.15-.11,0-.45.11-.39.07-.43.1-.38.11-.39.11-.39.1-.35.14-.36.11-.31.14-.36.14-.32.14-.31.14-.29.18-.31.18-.29.14-.28.17-.28.22-.28.17-.29.21-.24.22-.28.21-.25.24-.25.25-.28.25-.5.49-.49.57-.49.56-.53.64-1.59,2.4L319.25,483l-1.2,1.83L317,486.45l-.89,1.31-.74,1.13-.6.92-.49.74-.39.6-.32.42-.25.32-.14.25-.14.14-.1.14-.07.07,0,0Z" transform="translate(-15 -138.89)"/><polygon class="cls-4" points="256.87 308.66 287.37 324.33 250.41 329.84 248.93 331.75 247.48 333.72 246.07 335.63 244.76 337.46 243.6 339.12 242.61 340.57 241.79 341.7 241.3 342.44 229.51 332.59 199.19 335.06 198.97 334.43 198.76 333.79 198.59 333.16 198.37 332.52 200.99 330.9 203.63 329.31 206.28 327.76 208.96 326.2 211.65 324.69 214.33 323.17 217.01 321.65 219.7 320.13 223.86 317.73 223.97 313.78 224.04 309.86 224.14 305.9 224.25 301.95 224.39 298 224.5 294.08 224.6 290.12 224.71 286.17 224.81 282.22 224.88 278.3 224.96 274.34 224.99 270.39 225.03 266.44 225.03 262.48 224.99 258.56 224.96 254.61 189.44 236.04 187.96 235.69 186.58 235.65 185.81 235.65 185.1 235.69 184.43 235.79 183.79 235.97 183.12 236.15 182.49 236.36 181.78 236.57 181.04 236.78 177.3 237.91 177.26 237.95 177.23 237.98 175.6 235.34 177.79 233.5 180.09 231.59 181.25 230.64 182.45 229.69 183.65 228.77 184.89 227.85 186.12 226.93 187.39 226.09 188.7 225.24 190.01 224.43 191.31 223.69 192.65 222.94 194.03 222.31 195.41 221.71 196.57 221.46 198.06 221.5 199.29 222.06 202.08 223.37 204.83 224.64 207.59 225.94 210.34 227.25 213.13 228.56 215.88 229.83 218.64 231.13 221.39 232.44 221.32 230.57 221.07 229.4 220.79 228.24 220.51 227.07 220.19 225.91 219.84 224.71 219.66 224.14 219.45 223.54 219.27 222.98 219.06 222.41 218.85 221.85 218.6 221.28 218.35 220.72 218.14 220.19 217.86 219.63 217.61 219.1 217.33 218.6 217.05 218.07 216.73 217.58 216.45 217.08 216.09 216.63 215.78 216.17 215.42 215.71 215.07 215.28 214.72 214.86 214.29 214.47 212.39 212.92 210.48 211.4 208.58 209.88 206.67 208.36 204.76 206.81 202.86 205.29 200.95 203.78 199.04 202.26 197.14 200.74 195.23 199.19 193.32 197.67 191.42 196.15 189.51 194.63 187.61 193.11 185.66 191.59 183.76 190.08 183.76 189.05 183.76 188.06 183.72 187.04 183.72 186.05 183.72 185.03 183.72 184.04 183.72 183.02 183.72 182.03 185.74 183.26 187.75 184.46 189.79 185.7 191.81 186.94 193.85 188.17 195.87 189.41 197.88 190.64 199.93 191.88 201.94 193.08 203.99 194.31 206 195.55 208.05 196.78 210.06 198.02 212.07 199.26 214.12 200.46 216.13 201.69 216.06 200.03 215.99 198.37 215.88 196.71 215.81 195.09 215.67 193.5 215.5 191.91 215.42 191.1 215.32 190.32 215.21 189.55 215.11 188.74 214.97 187.96 214.82 187.22 214.68 186.44 214.54 185.66 214.37 184.89 214.19 184.11 214.01 183.37 213.8 182.59 213.59 181.82 213.34 181.07 213.09 180.3 212.81 179.52 212.53 178.78 212.21 178 211.93 177.26 211.58 176.49 209.95 173.59 208.36 170.7 206.74 167.8 205.15 164.91 203.56 162.01 201.97 159.08 200.42 156.19 198.87 153.26 199.93 152.37 200.95 151.46 201.97 150.57 203.03 149.69 203.1 149.69 203.32 149.9 203.74 150.5 204.34 151.42 205.15 152.66 207.2 155.76 209.63 159.47 212.18 163.42 214.65 167.24 216.77 170.52 218.32 172.92 218.88 171.12 219.45 169.32 220.05 167.48 220.61 165.68 221.21 163.88 221.81 162.08 222.41 160.28 222.98 158.48 229.02 156.93 228.77 158.98 228.56 160.95 228.31 162.89 228.06 164.84 227.82 166.78 227.6 168.68 227.36 170.63 227.15 172.57 227.07 173.52 227 174.47 226.9 175.39 226.86 176.34 226.79 177.33 226.76 178.25 226.72 179.2 226.72 180.16 226.72 181.11 226.72 182.06 226.72 183.02 226.79 183.97 226.83 184.89 226.9 185.84 227 186.76 227.11 187.71 227.99 190.57 228.88 193.47 229.72 196.33 230.57 199.22 231.45 202.12 232.3 204.97 233.11 207.87 233.96 210.76 234.77 213.66 235.58 216.55 236.43 219.41 237.21 222.31 238.02 225.2 238.83 228.13 239.61 231.03 240.42 233.92 242.15 231.49 243.84 229.05 245.57 226.62 247.27 224.14 249 221.71 250.69 219.27 252.42 216.8 254.12 214.37 254.22 210.98 254.26 207.59 254.22 204.23 254.15 200.84 254.01 197.46 253.87 194.1 253.66 190.71 253.44 187.32 253.2 183.97 252.95 180.58 252.7 177.23 252.46 173.84 252.25 170.45 252.03 167.09 251.89 163.71 251.75 160.32 252.46 160.32 253.16 160.35 253.87 160.35 254.57 160.35 255.28 160.35 255.99 160.35 256.69 160.35 257.4 160.35 257.68 162.29 257.93 164.24 258.18 166.18 258.46 168.12 258.7 170.03 258.99 171.97 259.24 173.91 259.52 175.85 259.8 177.79 260.05 179.73 260.33 181.64 260.61 183.58 260.86 185.52 261.14 187.47 261.42 189.41 261.67 191.31 263.37 189.44 265.02 187.57 266.61 185.77 268.2 183.97 269.75 182.21 271.31 180.44 272.86 178.71 274.38 176.91 275.97 175.11 277.52 173.31 279.14 171.44 280.81 169.5 282.5 167.52 284.26 165.47 286.1 163.32 288.01 161.09 288.01 162.08 288.01 163.07 288.01 164.06 288.01 165.05 288.01 166.04 288.01 167.03 288.01 168.01 288.01 169 286.24 171.33 284.44 173.63 282.64 175.96 280.88 178.25 279.11 180.58 277.35 182.91 275.62 185.28 273.92 187.64 273.11 188.81 272.33 189.97 271.59 191.14 270.81 192.3 270.11 193.5 269.37 194.67 268.66 195.87 268.02 197.07 267.35 198.27 266.75 199.47 266.12 200.67 265.55 201.9 265.02 203.1 264.5 204.34 264.04 205.57 264 206.32 264 207.06 264.04 207.83 264.07 208.58 264.14 209.35 264.21 210.13 264.28 210.91 264.39 211.68 264.46 212.49 264.56 213.31 264.67 214.08 264.74 214.9 264.81 215.71 264.85 216.52 264.88 217.33 264.92 218.14 264.74 219.13 264.53 220.08 264.35 221 264.14 221.92 263.89 222.84 263.65 223.76 263.37 224.67 263.05 225.66 262.2 227.57 261.46 229.23 260.82 230.68 260.26 231.95 259.8 232.97 259.41 233.89 259.09 234.59 258.81 235.19 258.63 235.65 258.46 236.04 258.39 236.29 258.32 236.5 258.25 236.64 258.25 236.75 258.25 236.82 258.21 236.89 259.06 236.11 259.87 235.34 260.68 234.56 261.49 233.82 262.31 233.04 263.08 232.33 263.93 231.63 264.74 230.89 265.17 230.57 265.59 230.25 266.01 229.9 266.44 229.58 266.89 229.26 267.32 228.98 267.78 228.66 268.24 228.38 268.73 228.1 269.19 227.82 269.68 227.53 270.18 227.29 270.67 227.04 271.2 226.83 271.73 226.58 272.26 226.37 273.53 226.33 274.8 226.26 276.04 226.26 277.31 226.19 278.51 226.16 279.75 226.05 280.38 226.01 280.98 225.98 281.58 225.91 282.18 225.84 282.78 225.73 283.38 225.63 283.95 225.56 284.55 225.41 285.11 225.27 285.71 225.1 286.28 224.96 286.88 224.74 287.44 224.53 288.01 224.32 288.57 224.07 289.14 223.79 289.7 223.51 290.27 223.19 290.83 222.84 291.39 222.49 293.9 219.94 296.41 217.44 298.88 214.9 301.35 212.35 303.82 209.78 306.26 207.2 308.69 204.62 311.09 202.01 313.56 203.74 312.19 205.86 310.81 207.98 309.47 210.13 308.09 212.25 306.72 214.37 305.34 216.52 303.96 218.64 302.59 220.75 301.21 222.87 299.83 225.03 298.46 227.15 297.08 229.26 295.7 231.38 294.32 233.53 292.95 235.65 291.57 237.77 289.7 237.98 287.94 238.26 286.28 238.58 284.69 238.94 283.2 239.32 281.79 239.78 280.45 240.28 279.18 240.81 277.98 241.37 276.85 241.97 275.79 242.61 274.73 243.31 273.78 244.06 272.83 244.83 271.91 245.64 271.03 246.49 270.18 247.37 269.33 248.33 268.52 249.28 267.71 250.3 266.12 252.42 264.5 254.68 262.8 257.12 261 259.66 259.09 262.38 256.98 265.2 256.87 308.66 256.87 308.66"/><polygon class="cls-4" points="172.78 275.86 332.84 275.86 332.84 279.57 172.78 279.57 172.78 275.86 172.78 275.86"/><polygon class="cls-4" points="368.36 287.72 368.74 287.76 369.13 287.79 369.49 287.9 369.84 288.04 370.19 288.18 370.51 288.39 370.79 288.61 371.07 288.85 371.32 289.14 371.53 289.42 371.74 289.74 371.88 290.09 372.03 290.44 372.13 290.8 372.17 291.18 372.2 291.57 372.17 291.96 372.13 292.35 372.03 292.74 371.88 293.09 371.74 293.41 371.53 293.73 371.32 294.04 371.07 294.29 370.79 294.54 370.51 294.78 370.19 294.96 369.84 295.14 369.49 295.28 369.13 295.35 368.74 295.42 368.36 295.42 367.93 295.42 367.58 295.35 367.19 295.28 366.84 295.14 366.52 294.96 366.17 294.78 365.88 294.54 365.6 294.29 365.35 294.04 365.14 293.73 364.97 293.41 364.79 293.09 364.65 292.74 364.58 292.35 364.51 291.96 364.47 291.57 364.51 291.18 364.58 290.8 364.65 290.44 364.79 290.09 364.97 289.74 365.14 289.42 365.35 289.14 365.6 288.85 365.88 288.61 366.17 288.39 366.52 288.18 366.84 288.04 367.19 287.9 367.58 287.79 367.93 287.76 368.36 287.72 368.36 287.72"/><polygon class="cls-5" points="368.36 287.72 368.74 287.76 369.13 287.79 369.49 287.9 369.84 288.04 370.19 288.18 370.51 288.39 370.79 288.61 371.07 288.85 371.32 289.14 371.53 289.42 371.74 289.74 371.88 290.09 372.03 290.44 372.13 290.8 372.17 291.18 372.2 291.57 372.17 291.96 372.13 292.35 372.03 292.74 371.88 293.09 371.74 293.41 371.53 293.73 371.32 294.04 371.07 294.29 370.79 294.54 370.51 294.78 370.19 294.96 369.84 295.14 369.49 295.28 369.13 295.35 368.74 295.42 368.36 295.42 367.93 295.42 367.58 295.35 367.19 295.28 366.84 295.14 366.52 294.96 366.17 294.78 365.88 294.54 365.6 294.29 365.35 294.04 365.14 293.73 364.97 293.41 364.79 293.09 364.65 292.74 364.58 292.35 364.51 291.96 364.47 291.57 364.51 291.18 364.58 290.8 364.65 290.44 364.79 290.09 364.97 289.74 365.14 289.42 365.35 289.14 365.6 288.85 365.88 288.61 366.17 288.39 366.52 288.18 366.84 288.04 367.19 287.9 367.58 287.79 367.93 287.76 368.36 287.72 368.36 287.72"/></svg>