<svg id="Ebene_1" data-name="Ebene 1" xmlns="http://www.w3.org/2000/svg" viewBox="0 0 564.82 564.79"><defs><style>.cls-1{fill:#fff;}.cls-1,.cls-2,.cls-4{fill-rule:evenodd;}.cls-2{fill:#da251d;}.cls-3{fill:none;stroke:#242729;stroke-linecap:square;stroke-miterlimit:10;stroke-width:0.21px;}</style></defs><polygon class="cls-1" points="0.01 282.43 282.25 0.18 564.53 282.43 282.25 564.67 0.01 282.43 0.01 282.43"/><path class="cls-2" d="M20.69,421.32l276.56-276.6,276.6,276.6L297.25,697.88,20.69,421.32Zm44.84,0L297.25,189.59,529,421.32,297.25,653,65.53,421.32Z" transform="translate(-15 -138.89)"/><polyline class="cls-3" points="0.15 282.22 282.25 0.15 564.67 282.22 282.25 564.64 0.15 282.22"/><polygon class="cls-4" points="165.72 265.59 171.69 264 178.43 262.24 185.88 260.29 194.03 258.14 202.89 255.78 212.42 253.27 222.63 250.59 233.43 247.76 244.87 244.72 256.87 241.58 269.44 238.26 282.57 234.81 296.23 231.21 310.42 227.46 325.07 223.62 340.22 219.63 341.45 219.34 342.62 219.2 343.75 219.13 344.81 219.2 345.83 219.34 346.82 219.59 347.77 219.91 348.66 220.3 349.54 220.75 350.35 221.28 351.16 221.81 351.94 222.41 352.72 223.05 353.42 223.72 354.16 224.39 354.87 225.1 356.25 226.47 357.62 227.78 358.29 228.42 359 229.02 359.67 229.54 360.38 230.04 361.12 230.5 361.86 230.85 362.6 231.17 363.38 231.38 364.19 231.52 365.04 231.52 365.92 231.45 366.84 231.28 369.38 230.64 371.71 230.04 373.93 229.44 376.05 228.91 378.06 228.38 380.04 227.85 382.02 227.32 383.99 226.79 386.04 226.23 388.16 225.66 390.42 225.06 392.82 224.43 395.4 223.72 398.22 222.98 401.26 222.2 404.61 221.32 405.67 221.11 406.66 221 407.61 221.04 408.53 221.14 409.38 221.39 410.19 221.71 410.96 222.13 411.71 222.63 412.38 223.19 412.98 223.86 413.54 224.53 414.04 225.31 414.5 226.09 414.88 226.93 415.2 227.82 415.45 228.7 415.66 229.62 415.77 230.53 415.84 231.45 415.84 232.37 415.73 233.29 415.59 234.17 415.38 235.05 415.06 235.87 414.67 236.68 414.21 237.42 413.68 238.09 413.05 238.72 412.34 239.29 411.53 239.78 410.65 240.17 409.69 240.49 407.36 241.13 405.07 241.72 402.85 242.29 400.66 242.89 398.43 243.46 396.24 244.06 394.06 244.62 391.83 245.22 389.57 245.78 387.28 246.42 384.91 247.02 382.48 247.66 380 248.33 377.39 249 374.71 249.7 371.88 250.44 370.9 250.76 370.01 251.15 369.24 251.61 368.53 252.14 367.93 252.7 367.37 253.34 366.91 254.01 366.52 254.75 366.17 255.49 365.85 256.31 365.57 257.12 365.32 258 364.89 259.76 364.47 261.6 364.26 262.52 364.05 263.44 363.76 264.35 363.48 265.24 363.13 266.15 362.74 267 362.32 267.85 361.79 268.66 361.22 269.47 360.55 270.21 359.81 270.92 358.96 271.56 358.01 272.15 356.95 272.72 355.75 273.21 354.45 273.64 344.07 276.36 334.46 278.9 325.53 281.23 317.17 283.45 309.22 285.54 301.6 287.55 294.18 289.49 286.91 291.43 279.6 293.34 272.23 295.28 264.6 297.29 256.66 299.41 248.26 301.6 239.32 303.96 229.72 306.47 219.38 309.22 179.94 319.6 178.96 319.85 177.97 319.99 176.98 320.1 175.99 320.17 175 320.13 174.05 320.06 173.06 319.92 172.11 319.74 171.16 319.5 170.24 319.18 169.32 318.79 168.4 318.37 167.48 317.87 166.6 317.31 165.75 316.71 164.87 316.04 164.06 315.3 163.25 314.52 162.44 313.67 161.66 312.75 160.92 311.8 160.18 310.78 159.47 309.68 158.8 308.55 158.16 307.39 157.53 306.12 156.93 304.85 156.36 303.47 155.83 302.06 155.3 300.57 154.84 299.06 154.39 297.5 154 295.88 153.65 294.29 153.36 292.74 153.15 291.22 152.97 289.77 152.83 288.32 152.76 286.91 152.76 285.57 152.8 284.23 152.87 282.96 153.01 281.69 153.19 280.49 153.4 279.32 153.68 278.19 154 277.1 154.39 276.07 154.81 275.05 155.23 274.1 155.76 273.18 156.29 272.33 156.86 271.49 157.49 270.71 158.16 270 158.84 269.3 159.58 268.66 160.35 268.06 161.16 267.53 162.01 267.04 162.89 266.61 163.81 266.23 164.73 265.87 165.72 265.59 165.72 265.59"/></svg>